<?xml version="1.0" encoding="UTF-8" standalone="no"?><!DOCTYPE svg PUBLIC "-//W3C//DTD SVG 1.1//EN" "http://www.w3.org/Graphics/SVG/1.1/DTD/svg11.dtd"><svg width="100%" height="100%" viewBox="0 0 2084 593" version="1.1" xmlns="http://www.w3.org/2000/svg" xmlns:xlink="http://www.w3.org/1999/xlink" xml:space="preserve" xmlns:serif="http://www.serif.com/" style="fill-rule:evenodd;clip-rule:evenodd;stroke-miterlimit:10;"><rect id="Plan-de-travail4" serif:id="Plan de travail4" x="0" y="0" width="2083.34" height="592.154" style="fill:none;"/><clipPath id="_clip1"><rect x="0" y="0" width="2083.34" height="592.154"/></clipPath><g clip-path="url(#_clip1)"><g><g><rect x="4.158" y="-128.368" width="2083.34" height="833.821" style="fill:#fff;"/></g><g id="Groupe-12" serif:id="Groupe 12"><path d="M168.089,454.251c1.368,-1.256 -2.799,2.91 0,0c-9.17,-6.289 -18.357,-12.556 -27.557,-18.802c-3.153,-2.138 -5.788,-4.602 -5.282,-8.815c0.581,-4.802 3.736,-7.517 8.129,-8.744c7.664,-2.137 15.152,-1.269 22.648,1.309c17.427,5.99 32.021,16.249 45.344,28.743c7.275,6.823 17.72,8.763 24.273,-3.683c8.77,-16.335 12.525,-34.904 10.793,-53.364c-1.997,-21.847 -6.839,-43.25 -10.586,-64.826c-1.799,-10.352 -3.243,-20.865 -1.21,-31.497c0.739,-3.866 3.318,-5.732 6.319,-6.822c2.693,-0.979 6.048,-0.646 7.961,1.855c2.904,3.791 6.397,7.333 7.619,12.168c4.656,18.422 9.495,36.802 13.749,55.316c2.121,9.154 4.727,18.189 7.807,27.067c0.953,2.764 2.237,6.491 5.803,6.395c3.872,-0.105 4.619,-4.091 5.866,-7.059c0.244,-0.733 0.391,-1.496 0.436,-2.269c1.392,-10.865 3.411,-21.637 4.851,-32.51c2.767,-20.954 4.164,-42.099 8.227,-62.887c1.167,-5.964 3.352,-10.968 9.429,-13.348l7.993,1.395c6.729,6.442 7.774,14.192 6.696,23.188c-2.491,20.743 -5.219,41.476 -6.528,62.355c-0.457,7.278 -2.539,14.441 -3.513,21.705c-0.682,5.078 -1.358,10.277 1.083,15.198c0.879,1.782 1.851,3.403 4.088,3.658c2.491,0.283 3.238,-1.518 4.144,-3.278c4.852,-9.43 7.312,-19.725 10.667,-29.684c6.351,-18.85 10.663,-38.391 19.312,-56.464c3.148,-6.573 10.278,-9.818 16.143,-7.158c4.684,2.123 6.242,5.745 5.63,10.742c-1.654,13.474 -6.81,25.941 -10.982,38.678c-4.172,12.736 -8.359,25.456 -12.039,38.353c-1.909,6.693 -3.481,13.245 -3.488,20.271c-0.011,7.974 4.85,11.18 12.175,7.704c11.492,-5.454 19.216,-15.174 27.508,-24.192c7.523,-8.18 14.242,-17.123 22.028,-25.03c6.769,-6.874 13.392,-7.802 18.195,2.147l-1.593,9.133c-14.899,24.375 -33.765,46.001 -48.763,70.306c-1.53,4.322 -3.396,8.556 -4.523,12.979c-5.153,20.209 -12.487,39.529 -24.49,56.667c-11.205,15.891 -18.386,34.268 -20.922,53.546c-3.555,25.546 -8.669,50.877 -13.104,76.301c-0.956,5.51 -2.103,10.994 -2.799,16.535c-0.488,3.866 -1.881,5.121 -5.912,4.417l-0.101,-0.015c-27.907,-5.004 -55.835,-9.882 -83.785,-14.632c-3.733,-0.635 -4.683,-2.035 -4.056,-5.753c1.535,-9.08 2.626,-18.269 4.025,-27.336c2.557,-16.536 4.007,-33.225 7.071,-49.69c1.376,-6.769 2.119,-13.652 2.218,-20.559c-0.012,-4.235 1.944,-8.846 -0.998,-12.913c-4.378,-5.812 -8.566,-11.789 -13.195,-17.4c-8.567,-10.387 -16.929,-20.852 -23.686,-32.594c-7.859,-13.665 -15.77,-27.423 -29.118,-36.807Zm88.467,-435.694l0.006,0c5.318,4.972 10.466,10.14 15.989,14.873c10.226,8.76 20.261,17.631 28.936,28.038c10.091,12.111 20.249,24.304 35.011,31.255c10.115,4.619 20.241,9.214 30.38,13.785c3.473,1.565 6.493,3.54 6.717,7.777c0.252,4.831 -2.39,8.049 -6.506,10.011c-7.182,3.422 -14.708,3.854 -22.535,2.603c-18.198,-2.906 -34.338,-10.504 -49.609,-20.522c-8.341,-5.472 -18.964,-5.587 -23.281,7.799c-5.832,17.6 -6.341,36.537 -1.461,54.425c5.722,21.179 14.171,41.431 21.57,62.042c3.55,9.889 6.779,19.998 6.604,30.82c-0.068,3.936 -2.288,6.218 -5.058,7.807c-2.485,1.428 -5.848,1.676 -8.162,-0.459c-3.513,-3.235 -7.562,-6.125 -9.596,-10.678c-7.753,-17.347 -15.679,-34.622 -23.051,-52.13c-3.663,-8.653 -7.784,-17.106 -12.344,-25.322c-1.413,-2.559 -3.319,-6.011 -6.815,-5.302c-3.797,0.768 -3.847,4.824 -4.566,7.962c-0.114,0.764 -0.128,1.541 -0.039,2.309c0.495,10.943 0.359,21.902 0.808,32.86c0.876,21.118 3.134,42.189 2.703,63.365c-0.123,6.077 -1.416,11.382 -6.994,14.77l-8.114,0.007c-7.736,-5.189 -10.099,-12.644 -10.581,-21.692c-1.113,-20.863 -1.988,-41.756 -4.287,-62.549c-0.801,-7.249 0.019,-14.663 -0.269,-21.986c-0.2,-5.12 -0.427,-10.357 -3.679,-14.786c-1.172,-1.605 -2.409,-3.034 -4.657,-2.901c-2.5,0.15 -2.929,2.052 -3.519,3.942c-3.158,10.122 -3.812,20.686 -5.406,31.074c-3.017,19.661 -3.907,39.652 -9.321,58.942c-1.971,7.017 -8.437,11.439 -14.672,9.827c-4.978,-1.287 -7.135,-4.587 -7.391,-9.615c-0.688,-13.557 2.249,-26.726 4.17,-39.989c1.921,-13.264 3.859,-26.514 5.268,-39.852c0.73,-6.922 1.154,-13.646 -0.047,-20.569c-1.362,-7.857 -6.7,-10.179 -13.319,-5.497c-10.384,7.347 -16.322,18.25 -22.941,28.558c-6.006,9.352 -11.089,19.317 -17.399,28.444c-5.488,7.936 -11.853,9.988 -18.295,1.012l0,-9.269c10.489,-26.574 25.358,-51.115 35.957,-77.641l0.147,-0.847c0.753,-4.235 1.749,-8.45 2.078,-12.717c1.603,-20.793 5.508,-41.086 14.387,-60.032c8.307,-17.581 12.222,-36.918 11.407,-56.345c-0.889,-25.777 -0.205,-51.61 -0.205,-77.418l-0.003,-0.004c-0.007,-5.592 0.182,-11.192 -0.086,-16.77c-0.184,-3.892 0.973,-5.368 5.065,-5.368l0.099,0c28.354,0.135 56.708,0.139 85.064,0.012c3.787,-0.015 4.963,1.201 4.985,4.97c0.048,9.209 0.553,18.449 0.733,27.622c0.322,16.73 1.761,33.419 1.573,50.166c-0.192,6.905 0.26,13.812 1.349,20.634c0.74,4.171 -0.388,9.047 3.202,12.549Zm0,0c-8.613,-0.764 -90.624,-81.284 -101.981,-93.811c11.355,12.528 93.368,93.051 101.983,93.813l-0.002,-0.002Z" style="fill:#fff;fill-rule:nonzero;stroke:#000;stroke-opacity:0;stroke-width:4.17px;"/></g></g><g><g><path d="M596.608,214.292l-3.356,23.151l-67.572,0l1.525,-25.164l0,-76.33l-1.525,-24.325l69.403,0l-3.356,23.15l-42.557,0l0,26.338l38.744,0l-3.356,23.151l-35.388,0l0,30.029l47.438,0Z" style="fill:#60b4d8;fill-rule:nonzero;"/><g><path d="M641.914,240.127c-13.017,0 -22.575,-4.39 -28.677,-13.169c-6.101,-8.779 -9.152,-21.781 -9.152,-39.004c0,-16.888 3.178,-29.973 9.534,-39.256c6.355,-9.282 15.787,-13.924 28.295,-13.924c6.915,0 12.279,0.587 16.092,1.762c3.813,1.174 7.5,3.271 11.059,6.291l-3.356,20.97l-2.441,1.174c-2.338,-2.572 -4.881,-4.39 -7.626,-5.452c-2.746,-1.063 -6.559,-1.594 -11.44,-1.594c-6.61,0 -11.288,2.321 -14.033,6.962c-2.746,4.641 -4.119,12.33 -4.119,23.067c0,7.717 0.559,13.588 1.678,17.615c1.119,4.026 3.127,6.878 6.025,8.555c2.898,1.678 7.144,2.517 12.737,2.517c5.288,0 9.508,-0.559 12.66,-1.678c3.152,-1.118 5.949,-2.964 8.389,-5.536l2.593,1.342l-4.728,20.635c-3.966,3.467 -7.5,5.787 -10.601,6.962c-3.102,1.174 -7.398,1.761 -12.889,1.761Z" style="fill:#60b4d8;fill-rule:nonzero;"/><path d="M718.028,240.127c-13.728,0 -23.719,-4.474 -29.973,-13.421c-6.254,-8.947 -9.381,-22.2 -9.381,-39.759c0,-17.558 3.127,-30.755 9.381,-39.591c6.254,-8.835 16.245,-13.253 29.973,-13.253c13.728,0 23.719,4.418 29.973,13.253c6.254,8.836 9.381,22.033 9.381,39.591c0,17.559 -3.127,30.812 -9.381,39.759c-6.254,8.947 -16.245,13.421 -29.973,13.421Zm0,-23.151c4.78,0 8.39,-0.866 10.83,-2.6c2.441,-1.734 4.144,-4.697 5.11,-8.891c0.966,-4.194 1.449,-10.317 1.449,-18.37c0,-8.052 -0.483,-14.176 -1.449,-18.369c-0.966,-4.194 -2.669,-7.158 -5.11,-8.892c-2.44,-1.733 -6.05,-2.6 -10.83,-2.6c-4.779,0 -8.389,0.867 -10.83,2.6c-2.44,1.734 -4.144,4.698 -5.11,8.892c-0.966,4.193 -1.449,10.317 -1.449,18.369c0,8.053 0.483,14.176 1.449,18.37c0.966,4.194 2.67,7.157 5.11,8.891c2.441,1.734 6.051,2.6 10.83,2.6Z" style="fill:#60b4d8;fill-rule:nonzero;"/><path d="M863.241,212.279l0,-43.114c0,-3.691 -0.941,-6.627 -2.822,-8.807c-1.882,-2.181 -4.398,-3.272 -7.551,-3.272c-5.084,0 -9.508,2.349 -13.27,7.046l0,48.147l1.525,25.164l-24.405,0l1.525,-25.164l0,-43.114c0,-3.691 -0.941,-6.627 -2.822,-8.807c-1.881,-2.181 -4.398,-3.272 -7.55,-3.272c-5.085,0 -9.508,2.349 -13.271,7.046l0,48.147l1.526,25.164l-24.406,0l1.525,-25.164l0,-51.167l-1.525,-24.325l19.83,0l2.44,10.066c5.593,-7.493 13.118,-11.24 22.575,-11.24c4.881,0 9.101,1.174 12.66,3.523c3.56,2.349 6.204,5.816 7.932,10.401c5.695,-9.283 13.83,-13.924 24.406,-13.924c7.118,0 12.736,2.461 16.855,7.381c4.118,4.921 6.177,12.135 6.177,21.641l0,47.644l1.526,25.164l-24.406,0l1.526,-25.164Z" style="fill:#60b4d8;fill-rule:nonzero;"/><path d="M993.352,212.279l0,-43.114c0,-3.691 -0.941,-6.627 -2.822,-8.807c-1.881,-2.181 -4.398,-3.272 -7.55,-3.272c-5.085,0 -9.508,2.349 -13.271,7.046l0,48.147l1.526,25.164l-24.406,0l1.526,-25.164l0,-43.114c0,-3.691 -0.941,-6.627 -2.822,-8.807c-1.882,-2.181 -4.398,-3.272 -7.551,-3.272c-5.084,0 -9.508,2.349 -13.27,7.046l0,48.147l1.525,25.164l-24.405,0l1.525,-25.164l0,-51.167l-1.525,-24.325l19.829,0l2.441,10.066c5.593,-7.493 13.118,-11.24 22.575,-11.24c4.881,0 9.101,1.174 12.66,3.523c3.559,2.349 6.203,5.816 7.932,10.401c5.694,-9.283 13.83,-13.924 24.405,-13.924c7.118,0 12.737,2.461 16.855,7.381c4.119,4.921 6.178,12.135 6.178,21.641l0,47.644l1.525,25.164l-24.405,0l1.525,-25.164Z" style="fill:#60b4d8;fill-rule:nonzero;"/><path d="M1068.86,239.456c-13.626,0 -23.591,-4.418 -29.896,-13.253c-6.305,-8.835 -9.457,-21.921 -9.457,-39.256c0,-16.887 3.33,-29.917 9.991,-39.088c6.66,-9.17 16.448,-13.756 29.362,-13.756c12.712,0 22.143,3.523 28.296,10.569c6.152,7.046 9.736,18.174 10.753,33.384l-4.118,17.615l-52.014,0c0.406,5.48 1.372,9.674 2.898,12.582c1.525,2.908 3.737,4.921 6.635,6.039c2.898,1.119 6.94,1.678 12.126,1.678c6.814,0 12.89,-0.671 18.228,-2.013c5.339,-1.342 8.974,-3.076 10.906,-5.201l2.594,1.51l-4.729,20.467c-3.864,3.243 -8.237,5.508 -13.118,6.794c-4.881,1.286 -11.033,1.929 -18.457,1.929Zm17.389,-61.4c0,-7.046 -1.372,-12.274 -4.118,-15.685c-2.746,-3.411 -6.966,-5.117 -12.66,-5.117c-6,0 -10.347,1.538 -13.042,4.613c-2.695,3.076 -4.296,8.472 -4.805,16.189l34.625,0Z" style="fill:#60b4d8;fill-rule:nonzero;"/><path d="M1163.88,135.613c6.203,0 10.983,0.783 14.338,2.349l-3.508,20.634l-1.983,1.51c-3.152,-2.237 -7.677,-3.355 -13.575,-3.355c-3.254,0 -6.127,0.727 -8.619,2.181c-2.491,1.454 -4.804,3.802 -6.94,7.045l0,46.302l1.525,25.164l-24.405,0l1.525,-25.164l0,-51.167l-1.525,-24.325l19.829,0l2.594,10.569c5.186,-7.829 12.101,-11.743 20.744,-11.743Z" style="fill:#60b4d8;fill-rule:nonzero;"/></g><g><path d="M1221.56,240.127c-13.017,0 -22.575,-4.39 -28.677,-13.169c-6.101,-8.779 -9.152,-21.781 -9.152,-39.004c0,-16.888 3.178,-29.973 9.534,-39.256c6.355,-9.282 15.787,-13.924 28.295,-13.924c6.914,0 12.279,0.587 16.092,1.762c3.813,1.174 7.5,3.271 11.059,6.291l-3.356,20.97l-2.441,1.174c-2.338,-2.572 -4.881,-4.39 -7.626,-5.452c-2.746,-1.063 -6.559,-1.594 -11.44,-1.594c-6.61,0 -11.288,2.321 -14.034,6.962c-2.745,4.641 -4.118,12.33 -4.118,23.067c0,7.717 0.559,13.588 1.678,17.615c1.119,4.026 3.127,6.878 6.025,8.555c2.898,1.678 7.144,2.517 12.737,2.517c5.287,0 9.508,-0.559 12.66,-1.678c3.152,-1.118 5.949,-2.964 8.389,-5.536l2.593,1.342l-4.728,20.635c-3.966,3.467 -7.5,5.787 -10.601,6.962c-3.102,1.174 -7.398,1.761 -12.889,1.761Z" style="fill:#60b4d8;fill-rule:nonzero;"/><path d="M1297.67,239.456c-13.626,0 -23.592,-4.418 -29.897,-13.253c-6.304,-8.835 -9.457,-21.921 -9.457,-39.256c0,-16.887 3.331,-29.917 9.991,-39.088c6.661,-9.17 16.449,-13.756 29.363,-13.756c12.711,0 22.143,3.523 28.295,10.569c6.152,7.046 9.737,18.174 10.754,33.384l-4.119,17.615l-52.014,0c0.407,5.48 1.373,9.674 2.898,12.582c1.526,2.908 3.738,4.921 6.636,6.039c2.898,1.119 6.94,1.678 12.126,1.678c6.813,0 12.889,-0.671 18.228,-2.013c5.339,-1.342 8.974,-3.076 10.906,-5.201l2.593,1.51l-4.728,20.467c-3.865,3.243 -8.237,5.508 -13.118,6.794c-4.881,1.286 -11.034,1.929 -18.457,1.929Zm17.389,-61.4c0,-7.046 -1.373,-12.274 -4.118,-15.685c-2.746,-3.411 -6.966,-5.117 -12.661,-5.117c-5.999,0 -10.347,1.538 -13.041,4.613c-2.695,3.076 -4.297,8.472 -4.805,16.189l34.625,0Z" style="fill:#60b4d8;fill-rule:nonzero;"/><path d="M1384.77,239.288c-6.813,0 -13.347,-1.37 -19.601,-4.11c-6.253,-2.74 -11.668,-6.682 -16.244,-11.827l-3.204,-23.654l2.136,-0.671c5.694,5.368 11.44,9.478 17.236,12.33c5.796,2.852 11.389,4.278 16.779,4.278c6.406,0 11.364,-1.09 14.872,-3.271c3.508,-2.181 5.262,-5.285 5.262,-9.311c0,-3.802 -1.652,-6.906 -4.957,-9.31c-3.305,-2.405 -9.228,-5.005 -17.77,-7.801c-8.034,-2.572 -14.338,-5.424 -18.914,-8.556c-4.576,-3.131 -7.881,-7.046 -9.915,-11.743c-2.034,-4.697 -3.051,-10.793 -3.051,-18.286c0,-11.743 3.483,-20.914 10.449,-27.512c6.966,-6.599 16.143,-9.898 27.532,-9.898c6.915,0 13.576,1.174 19.982,3.523c6.407,2.348 11.593,5.48 15.559,9.394l-3.356,22.648l-2.288,0.671c-2.136,-3.691 -5.822,-6.71 -11.059,-9.059c-5.237,-2.349 -10.855,-3.523 -16.855,-3.523c-5.491,0 -9.711,1.062 -12.66,3.187c-2.949,2.125 -4.424,5.257 -4.424,9.395c0,4.25 1.449,7.521 4.348,9.814c2.898,2.293 8.16,4.613 15.787,6.962c8.745,2.684 15.558,5.564 20.439,8.639c4.881,3.076 8.441,6.906 10.678,11.492c2.237,4.585 3.356,10.457 3.356,17.615c0,12.19 -3.661,21.669 -10.983,28.435c-7.322,6.766 -17.033,10.149 -29.134,10.149Z" style="fill:#60b4d8;fill-rule:nonzero;"/><path d="M1474.77,240.127c-13.728,0 -23.719,-4.474 -29.973,-13.421c-6.254,-8.947 -9.381,-22.2 -9.381,-39.759c0,-17.558 3.127,-30.755 9.381,-39.591c6.254,-8.835 16.245,-13.253 29.973,-13.253c13.728,0 23.719,4.418 29.973,13.253c6.254,8.836 9.381,22.033 9.381,39.591c0,17.559 -3.127,30.812 -9.381,39.759c-6.254,8.947 -16.245,13.421 -29.973,13.421Zm0,-23.151c4.78,0 8.39,-0.866 10.83,-2.6c2.441,-1.734 4.144,-4.697 5.11,-8.891c0.966,-4.194 1.449,-10.317 1.449,-18.37c0,-8.052 -0.483,-14.176 -1.449,-18.369c-0.966,-4.194 -2.669,-7.158 -5.11,-8.892c-2.44,-1.733 -6.05,-2.6 -10.83,-2.6c-4.779,0 -8.389,0.867 -10.83,2.6c-2.44,1.734 -4.144,4.698 -5.11,8.892c-0.966,4.193 -1.449,10.317 -1.449,18.369c0,8.053 0.483,14.176 1.449,18.37c0.966,4.194 2.67,7.157 5.11,8.891c2.441,1.734 6.051,2.6 10.83,2.6Z" style="fill:#60b4d8;fill-rule:nonzero;"/><path d="M1529.98,212.279l0,-84.718l-1.525,-24.325l24.406,0l-1.526,24.325l0,84.718l1.526,25.164l-24.406,0l1.525,-25.164Z" style="fill:#60b4d8;fill-rule:nonzero;"/><path d="M1581.69,127.561c-3.865,0 -7.144,-1.203 -9.839,-3.607c-2.695,-2.405 -4.042,-5.508 -4.042,-9.311c0,-3.914 1.347,-7.074 4.042,-9.478c2.695,-2.405 5.974,-3.607 9.839,-3.607c3.864,0 7.143,1.202 9.838,3.607c2.695,2.404 4.042,5.564 4.042,9.478c0,3.803 -1.347,6.906 -4.042,9.311c-2.695,2.404 -5.974,3.607 -9.838,3.607Zm-10.83,84.718l0,-51.167l-1.526,-24.325l24.406,0l-1.526,24.325l0,51.167l1.526,25.164l-24.406,0l1.526,-25.164Z" style="fill:#60b4d8;fill-rule:nonzero;"/><path d="M1682.21,212.447l1.526,24.996l-22.423,0l-0.457,-9.059c-1.932,3.02 -4.805,5.508 -8.618,7.465c-3.814,1.957 -7.449,2.936 -10.907,2.936c-10.677,0 -18.888,-4.446 -24.634,-13.337c-5.745,-8.891 -8.618,-21.725 -8.618,-38.501c0,-17.782 2.669,-30.923 8.008,-39.423c5.339,-8.5 13.245,-12.75 23.719,-12.75c4.169,0 8.084,0.504 11.745,1.51c3.661,1.007 6.762,2.405 9.305,4.194l0,-12.917l-1.526,-24.325l24.406,0l-1.526,24.325l0,84.886Zm-21.354,-52.341c-3.356,-1.454 -8.339,-2.181 -14.949,-2.181c-4.271,0 -7.525,0.783 -9.762,2.349c-2.237,1.565 -3.813,4.389 -4.728,8.472c-0.916,4.082 -1.373,10.149 -1.373,18.201c0,7.717 0.432,13.645 1.296,17.783c0.865,4.138 2.314,7.074 4.348,8.807c2.033,1.734 4.932,2.6 8.694,2.6c2.847,0 5.873,-0.475 9.076,-1.425c3.203,-0.951 5.669,-2.097 7.398,-3.44l0,-51.166Z" style="fill:#60b4d8;fill-rule:nonzero;"/><path d="M1697.16,209.427c0,-6.375 1.398,-12.162 4.194,-17.363c2.797,-5.201 6.509,-9.311 11.135,-12.33c4.627,-3.02 9.636,-4.53 15.025,-4.53c9.355,0 16.626,1.51 21.812,4.53l0,-8.892c0,-4.249 -1.55,-7.549 -4.652,-9.897c-3.101,-2.349 -7.449,-3.523 -13.042,-3.523c-5.999,0 -11.312,1.062 -15.939,3.187c-4.627,2.125 -8.161,5.313 -10.601,9.562l-1.678,-0.335l2.745,-24.828c3.458,-3.356 7.754,-5.956 12.889,-7.801c5.136,-1.846 10.347,-2.768 15.635,-2.768c10.983,0 19.728,2.852 26.236,8.555c6.508,5.704 9.762,13.477 9.762,23.319l0,46.134l1.526,24.996l-22.423,0l-0.458,-9.227c-2.033,3.579 -5.211,6.459 -9.533,8.64c-4.322,2.181 -9.076,3.271 -14.262,3.271c-8.643,0 -15.533,-2.74 -20.668,-8.22c-5.136,-5.48 -7.703,-12.974 -7.703,-22.48Zm21.965,-1.51c0,3.803 0.889,6.739 2.669,8.808c1.78,2.069 4.398,3.103 7.856,3.103c3.762,0 7.347,-0.811 10.753,-2.432c3.407,-1.622 6.381,-3.943 8.923,-6.962l0,-11.408c-5.694,-3.02 -12.101,-4.529 -19.219,-4.529c-3.762,0 -6.533,1.118 -8.313,3.355c-1.78,2.237 -2.669,5.592 -2.669,10.065Z" style="fill:#60b4d8;fill-rule:nonzero;"/><path d="M1799.97,127.561c-3.864,0 -7.144,-1.203 -9.839,-3.607c-2.694,-2.405 -4.042,-5.508 -4.042,-9.311c0,-3.914 1.348,-7.074 4.042,-9.478c2.695,-2.405 5.975,-3.607 9.839,-3.607c3.864,0 7.143,1.202 9.838,3.607c2.695,2.404 4.042,5.564 4.042,9.478c0,3.803 -1.347,6.906 -4.042,9.311c-2.695,2.404 -5.974,3.607 -9.838,3.607Zm-10.83,84.718l0,-51.167l-1.526,-24.325l24.406,0l-1.525,24.325l0,51.167l1.525,25.164l-24.406,0l1.526,-25.164Z" style="fill:#60b4d8;fill-rule:nonzero;"/><path d="M1871.97,135.613c6.203,0 10.982,0.783 14.338,2.349l-3.508,20.634l-1.983,1.51c-3.153,-2.237 -7.678,-3.355 -13.576,-3.355c-3.254,0 -6.127,0.727 -8.618,2.181c-2.491,1.454 -4.805,3.802 -6.94,7.045l0,46.302l1.525,25.164l-24.405,0l1.525,-25.164l0,-51.167l-1.525,-24.325l19.829,0l2.593,10.569c5.186,-7.829 12.101,-11.743 20.745,-11.743Z" style="fill:#60b4d8;fill-rule:nonzero;"/></g><path d="M1931.16,239.456c-13.626,0 -23.592,-4.418 -29.896,-13.253c-6.305,-8.835 -9.458,-21.921 -9.458,-39.256c0,-16.887 3.331,-29.917 9.991,-39.088c6.661,-9.17 16.449,-13.756 29.363,-13.756c12.711,0 22.143,3.523 28.295,10.569c6.152,7.046 9.737,18.174 10.754,33.384l-4.119,17.615l-52.014,0c0.407,5.48 1.373,9.674 2.899,12.582c1.525,2.908 3.737,4.921 6.635,6.039c2.898,1.119 6.94,1.678 12.126,1.678c6.813,0 12.889,-0.671 18.228,-2.013c5.339,-1.342 8.974,-3.076 10.906,-5.201l2.593,1.51l-4.728,20.467c-3.864,3.243 -8.237,5.508 -13.118,6.794c-4.881,1.286 -11.033,1.929 -18.457,1.929Zm17.389,-61.4c0,-7.046 -1.373,-12.274 -4.118,-15.685c-2.746,-3.411 -6.966,-5.117 -12.661,-5.117c-5.999,0 -10.347,1.538 -13.041,4.613c-2.695,3.076 -4.297,8.472 -4.805,16.189l34.625,0Z" style="fill:#60b4d8;fill-rule:nonzero;"/></g></g><path id="bulle-2" d="M150.811,38.214c-1.858,6.95 -4.343,13.744 -7.438,20.295c-8.879,18.946 -12.784,39.239 -14.387,60.032c-0.329,4.267 -1.325,8.482 -2.078,12.717l-0.147,0.847c-10.599,26.526 -25.468,51.067 -35.957,77.641l0,9.269c6.442,8.976 12.807,6.924 18.295,-1.012c6.31,-9.127 11.393,-19.092 17.399,-28.444c6.619,-10.308 12.557,-21.211 22.941,-28.558c6.619,-4.682 11.957,-2.36 13.319,5.497c1.201,6.923 0.777,13.647 0.047,20.569c-1.409,13.338 -3.347,26.588 -5.268,39.852c-1.921,13.263 -4.858,26.432 -4.17,39.989c0.256,5.028 2.413,8.328 7.391,9.615c6.235,1.612 12.701,-2.81 14.672,-9.827c5.414,-19.29 6.304,-39.281 9.321,-58.942c1.594,-10.388 2.248,-20.952 5.406,-31.074c0.59,-1.89 1.019,-3.792 3.519,-3.942c2.248,-0.133 3.485,1.296 4.657,2.901c3.252,4.429 3.479,9.666 3.679,14.786c0.288,7.323 -0.532,14.737 0.269,21.986c2.299,20.793 3.174,41.686 4.287,62.549c0.482,9.048 2.845,16.503 10.581,21.692l8.114,-0.007c5.578,-3.388 6.871,-8.693 6.994,-14.77c0.431,-21.176 -1.827,-42.247 -2.703,-63.365c-0.449,-10.958 -0.313,-21.917 -0.808,-32.86c-0.089,-0.768 -0.075,-1.545 0.039,-2.309c0.719,-3.138 0.769,-7.194 4.566,-7.962c3.496,-0.709 5.402,2.743 6.815,5.302c4.56,8.216 8.681,16.669 12.344,25.322c7.372,17.508 15.298,34.783 23.051,52.13c2.034,4.553 6.083,7.443 9.596,10.678c2.314,2.135 5.677,1.887 8.162,0.459c2.77,-1.589 4.99,-3.871 5.058,-7.807c0.175,-10.822 -3.054,-20.931 -6.604,-30.82c-7.399,-20.611 -15.848,-40.863 -21.57,-62.042c-4.88,-17.888 -4.371,-36.825 1.461,-54.425c4.317,-13.386 14.94,-13.271 23.281,-7.799c15.271,10.018 31.411,17.616 49.609,20.522c7.827,1.251 15.353,0.819 22.535,-2.603c4.116,-1.962 6.758,-5.18 6.506,-10.011c-0.224,-4.237 -3.244,-6.212 -6.717,-7.777c-10.139,-4.571 -20.265,-9.166 -30.38,-13.785c-14.762,-6.951 -24.92,-19.144 -35.011,-31.255c-3.431,-4.116 -7.074,-7.991 -10.858,-11.713c21.206,8.079 42.325,18.904 62.866,32.352c134.323,87.934 178.922,254.618 37.877,432.395c-28.266,35.627 -44.893,53.279 -59.652,58.806c2.692,-18.77 9.795,-36.648 20.731,-52.157c12.003,-17.138 19.337,-36.458 24.49,-56.667c1.127,-4.423 2.993,-8.657 4.523,-12.979c14.998,-24.305 33.864,-45.931 48.763,-70.306l1.593,-9.133c-4.803,-9.949 -11.426,-9.021 -18.195,-2.147c-7.786,7.907 -14.505,16.85 -22.028,25.03c-8.292,9.018 -16.016,18.738 -27.508,24.192c-7.325,3.476 -12.186,0.27 -12.175,-7.704c0.007,-7.026 1.579,-13.578 3.488,-20.271c3.68,-12.897 7.867,-25.617 12.039,-38.353c4.172,-12.737 9.328,-25.204 10.982,-38.678c0.612,-4.997 -0.946,-8.619 -5.63,-10.742c-5.865,-2.66 -12.995,0.585 -16.143,7.158c-8.649,18.073 -12.961,37.614 -19.312,56.464c-3.355,9.959 -5.815,20.254 -10.667,29.684c-0.906,1.76 -1.653,3.561 -4.144,3.278c-2.237,-0.255 -3.209,-1.876 -4.088,-3.658c-2.441,-4.921 -1.765,-10.12 -1.083,-15.198c0.974,-7.264 3.056,-14.427 3.513,-21.705c1.309,-20.879 4.037,-41.612 6.528,-62.355c1.078,-8.996 0.033,-16.746 -6.696,-23.188l-7.993,-1.395c-6.077,2.38 -8.262,7.384 -9.429,13.348c-4.063,20.788 -5.46,41.933 -8.227,62.887c-1.44,10.873 -3.459,21.645 -4.851,32.51c-0.045,0.773 -0.192,1.536 -0.436,2.269c-1.247,2.968 -1.994,6.954 -5.866,7.059c-3.566,0.096 -4.85,-3.631 -5.803,-6.395c-3.08,-8.878 -5.686,-17.913 -7.807,-27.067c-4.254,-18.514 -9.093,-36.894 -13.749,-55.316c-1.222,-4.835 -4.715,-8.377 -7.619,-12.168c-1.913,-2.501 -5.268,-2.834 -7.961,-1.855c-3.001,1.09 -5.58,2.956 -6.319,6.822c-2.033,10.632 -0.589,21.145 1.21,31.497c3.747,21.576 8.589,42.979 10.586,64.826c1.732,18.46 -2.023,37.029 -10.793,53.364c-6.553,12.446 -16.998,10.506 -24.273,3.683c-13.323,-12.494 -27.917,-22.753 -45.344,-28.743c-7.496,-2.578 -14.984,-3.446 -22.648,-1.309c-4.393,1.227 -7.548,3.942 -8.129,8.744c-0.506,4.213 2.129,6.677 5.282,8.815c9.2,6.246 18.387,12.513 27.557,18.802c-1.924,2 -0.557,0.657 0.041,0.029l-0.041,-0.029c0.427,-0.393 0.314,-0.256 0.041,0.029c13.322,9.382 21.226,23.127 29.077,36.778c6.57,11.417 14.657,21.626 22.975,31.73c-8.323,-4.174 -17.376,-8.439 -27.267,-12.735c-59.951,-26.043 -233.074,-295.855 -138.381,-410.425c26.381,-31.92 59.569,-52.121 96.277,-61.414Z" style="fill:#60b4d8;fill-rule:nonzero;"/><g><path d="M696.424,302.904c0.581,0.996 1.162,2.324 1.66,3.901c0.498,1.578 0.747,3.404 0.747,5.313c0,3.321 -0.747,5.812 -2.158,7.389c-1.495,1.577 -3.487,2.407 -6.144,2.407l-33.704,0l0,19.841l34.369,0c0.581,1.079 1.162,2.407 1.743,3.902c0.581,1.494 0.83,3.32 0.83,5.313c0,3.32 -0.747,5.811 -2.241,7.388c-1.495,1.577 -3.57,2.324 -6.06,2.324l-28.309,0l0,33.788c-1.079,0.332 -2.656,0.581 -4.732,0.83c-1.992,0.249 -4.15,0.415 -6.392,0.415c-4.732,0 -8.052,-0.83 -9.962,-2.407c-1.909,-1.578 -2.822,-4.566 -2.822,-8.8l0,-68.986c0,-3.819 1.162,-6.89 3.403,-9.132c2.242,-2.241 5.313,-3.403 9.132,-3.403l50.64,0l0,-0.083Z" style="fill:#072249;fill-rule:nonzero;"/><path d="M731.539,394.636c-0.996,0.332 -2.407,0.581 -4.234,0.83c-1.826,0.249 -3.818,0.415 -6.06,0.415c-4.566,0 -7.803,-0.747 -9.879,-2.158c-1.992,-1.495 -3.071,-4.317 -3.071,-8.551l0,-46.323c0,-2.822 0.664,-5.23 2.158,-7.305c1.411,-1.992 3.404,-3.819 5.894,-5.313c3.321,-1.992 7.389,-3.653 12.038,-4.815c4.731,-1.162 9.629,-1.743 14.776,-1.743c10.543,0 15.773,3.57 15.773,10.626c0,1.743 -0.249,3.32 -0.747,4.732c-0.498,1.411 -1.079,2.656 -1.66,3.652c-2.325,-0.498 -5.147,-0.747 -8.468,-0.747c-2.905,0 -5.894,0.332 -8.799,1.079c-2.906,0.748 -5.479,1.661 -7.721,2.906l0,52.715Z" style="fill:#072249;fill-rule:nonzero;"/><path d="M769.145,300.994c0,-3.403 1.162,-6.392 3.57,-8.799c2.407,-2.408 5.479,-3.653 9.297,-3.653c3.819,0 6.974,1.245 9.298,3.653c2.408,2.407 3.57,5.396 3.57,8.799c0,3.57 -1.162,6.559 -3.57,8.966c-2.407,2.407 -5.479,3.653 -9.298,3.653c-3.818,0 -6.973,-1.246 -9.297,-3.653c-2.408,-2.49 -3.57,-5.479 -3.57,-8.966Zm24.407,93.642c-0.997,0.332 -2.408,0.581 -4.234,0.83c-1.826,0.249 -3.819,0.415 -6.06,0.415c-4.566,0 -7.804,-0.747 -9.796,-2.158c-1.992,-1.495 -2.989,-4.317 -2.989,-8.551l0,-62.262c0.997,-0.332 2.408,-0.581 4.234,-0.913c1.826,-0.332 3.819,-0.415 6.06,-0.415c4.566,0 7.804,0.747 9.796,2.242c1.992,1.494 2.989,4.399 2.989,8.633l0,62.179Z" style="fill:#072249;fill-rule:nonzero;"/><path d="M830.992,367.988c1.411,4.234 3.901,7.222 7.388,9.049c3.57,1.743 7.637,2.656 12.286,2.656c4.234,0 8.219,-0.581 11.954,-1.743c3.736,-1.163 6.808,-2.408 9.132,-3.902c1.494,0.996 2.74,2.324 3.819,3.902c0.996,1.577 1.494,3.403 1.494,5.313c0,2.324 -0.747,4.316 -2.158,6.06c-1.412,1.743 -3.321,3.154 -5.811,4.317c-2.491,1.162 -5.396,1.992 -8.8,2.573c-3.404,0.581 -7.139,0.83 -11.124,0.83c-5.977,0 -11.456,-0.83 -16.52,-2.49c-5.064,-1.661 -9.381,-4.151 -13.034,-7.389c-3.652,-3.32 -6.475,-7.388 -8.55,-12.369c-2.076,-4.981 -3.072,-10.792 -3.072,-17.433c0,-6.475 0.996,-12.037 3.072,-16.852c2.075,-4.732 4.815,-8.717 8.301,-11.788c3.487,-3.155 7.472,-5.396 11.955,-6.891c4.482,-1.494 9.131,-2.158 13.863,-2.158c5.147,0 9.879,0.747 14.196,2.324c4.317,1.578 7.969,3.736 11.041,6.559c3.071,2.822 5.479,6.226 7.222,10.127c1.744,3.902 2.574,8.219 2.574,12.868c0,3.237 -0.83,5.645 -2.574,7.305c-1.743,1.577 -4.151,2.657 -7.305,3.155l-39.349,5.977Zm14.361,-31.297c-4.317,0 -7.969,1.328 -10.875,3.985c-2.905,2.656 -4.566,6.558 -5.064,11.622l28.973,-4.732c-0.166,-2.656 -1.329,-5.064 -3.487,-7.388c-2.075,-2.325 -5.23,-3.487 -9.547,-3.487Z" style="fill:#072249;fill-rule:nonzero;"/><path d="M937.5,340.344c-2.158,-1.744 -4.981,-2.574 -8.467,-2.574c-2.408,0 -4.649,0.332 -6.641,0.913c-1.993,0.581 -3.902,1.329 -5.645,2.242l0,53.628c-0.997,0.332 -2.408,0.581 -4.234,0.83c-1.827,0.249 -3.819,0.415 -6.06,0.415c-4.566,0 -7.804,-0.747 -9.879,-2.158c-1.993,-1.495 -3.072,-4.317 -3.072,-8.551l0,-46.821c0,-2.656 0.581,-4.732 1.661,-6.392c1.079,-1.577 2.656,-3.154 4.731,-4.566c3.238,-2.324 7.389,-4.15 12.536,-5.645c5.064,-1.411 10.709,-2.158 16.935,-2.158c11.041,0 19.508,2.407 25.569,7.305c5.977,4.815 9.048,11.788 9.048,20.754l0,46.987c-1.079,0.332 -2.573,0.581 -4.4,0.83c-1.826,0.249 -3.818,0.415 -6.06,0.415c-4.566,0 -7.803,-0.747 -9.795,-2.158c-1.993,-1.412 -2.989,-4.317 -2.989,-8.551l0,-36.859c0,-3.486 -1.079,-6.143 -3.238,-7.886Z" style="fill:#072249;fill-rule:nonzero;"/><path d="M1015.87,319.59c2.324,0 4.483,0.166 6.558,0.498c2.076,0.332 3.985,0.83 5.645,1.411l0,-25.403c1.079,-0.332 2.574,-0.581 4.4,-0.913c1.826,-0.332 3.819,-0.415 6.06,-0.415c4.566,0 7.804,0.747 9.796,2.242c1.992,1.494 2.989,4.399 2.989,8.633l0,73.801c0,2.407 -0.499,4.483 -1.495,6.143c-0.996,1.66 -2.656,3.238 -4.815,4.649c-2.822,1.743 -6.475,3.321 -10.875,4.732c-4.483,1.411 -9.546,2.158 -15.275,2.158c-12.701,0 -22.746,-3.237 -30.051,-9.63c-7.305,-6.392 -10.958,-16.022 -10.958,-28.889c0,-6.641 0.996,-12.452 2.988,-17.267c1.993,-4.815 4.649,-8.883 8.136,-12.12c3.404,-3.238 7.471,-5.645 12.12,-7.223c4.4,-1.577 9.464,-2.407 14.777,-2.407Zm12.452,20.505c-1.328,-0.581 -2.739,-1.163 -4.317,-1.578c-1.577,-0.415 -3.237,-0.664 -4.897,-0.664c-5.479,0 -9.796,1.661 -13.034,4.981c-3.238,3.321 -4.815,8.634 -4.815,15.939c0,6.973 1.577,12.037 4.649,15.192c3.072,3.155 7.388,4.815 12.784,4.815c2.159,0 3.985,-0.249 5.645,-0.664c1.661,-0.415 2.989,-0.996 3.985,-1.578l0,-36.443Z" style="fill:#072249;fill-rule:nonzero;"/><path d="M1128.52,373.384c0,7.471 -2.74,13.282 -8.302,17.516c-5.562,4.151 -13.78,6.309 -24.572,6.309c-4.234,0 -8.136,-0.332 -11.622,-0.913c-3.487,-0.581 -6.476,-1.494 -9.049,-2.739c-2.491,-1.246 -4.483,-2.74 -5.894,-4.566c-1.411,-1.827 -2.159,-3.902 -2.159,-6.392c0,-2.242 0.415,-4.151 1.329,-5.646c0.913,-1.577 2.075,-2.822 3.486,-3.901c2.906,1.743 6.226,3.237 9.962,4.566c3.736,1.328 8.053,1.992 13.034,1.992c7.139,0 10.792,-1.992 10.792,-6.06c0,-1.743 -0.665,-3.072 -1.91,-3.902c-1.245,-0.913 -3.403,-1.743 -6.475,-2.407l-6.06,-1.329c-8.302,-1.743 -14.445,-4.399 -18.513,-7.969c-4.067,-3.57 -6.06,-8.634 -6.06,-15.109c0,-7.139 2.906,-12.867 8.717,-17.018c5.811,-4.151 13.614,-6.309 23.41,-6.309c3.653,0 7.057,0.249 10.294,0.83c3.238,0.581 5.977,1.411 8.302,2.49c2.324,1.08 4.151,2.491 5.562,4.151c1.328,1.661 2.075,3.653 2.075,5.811c0,1.993 -0.415,3.819 -1.245,5.396c-0.83,1.578 -1.909,2.823 -3.155,3.902c-0.83,-0.498 -1.992,-1.079 -3.569,-1.66c-1.578,-0.581 -3.238,-1.163 -5.064,-1.661c-1.827,-0.498 -3.736,-0.913 -5.728,-1.245c-1.993,-0.332 -3.902,-0.415 -5.645,-0.415c-3.57,0 -6.31,0.498 -8.302,1.411c-1.992,0.997 -2.988,2.408 -2.988,4.317c0,1.411 0.581,2.491 1.66,3.321c1.079,0.83 3.154,1.577 6.06,2.241l5.728,1.328c9.215,1.993 15.773,4.981 19.675,8.8c4.233,3.902 6.226,8.8 6.226,14.86Z" style="fill:#072249;fill-rule:nonzero;"/><path d="M1218.01,344.162c0,3.985 -0.581,7.555 -1.743,10.792c-1.162,3.238 -2.822,5.895 -4.981,8.136c-2.158,2.241 -4.732,3.985 -7.803,5.147c-3.072,1.245 -6.475,1.826 -10.294,1.826c-3.819,0 -7.222,-0.581 -10.294,-1.826c-3.072,-1.245 -5.645,-2.906 -7.804,-5.147c-2.158,-2.241 -3.818,-4.981 -4.98,-8.136c-1.163,-3.237 -1.744,-6.807 -1.744,-10.792c0,-3.984 0.581,-7.554 1.744,-10.792c1.162,-3.237 2.822,-5.894 4.98,-8.135c2.159,-2.242 4.815,-3.985 7.887,-5.147c3.072,-1.245 6.475,-1.826 10.128,-1.826c3.736,0 7.056,0.581 10.128,1.826c3.071,1.245 5.645,2.988 7.886,5.23c2.159,2.241 3.819,4.981 4.981,8.135c1.328,3.155 1.909,6.725 1.909,10.709Zm-24.821,-17.184c-4.151,0 -7.472,1.494 -9.962,4.483c-2.407,2.989 -3.653,7.222 -3.653,12.618c0,5.479 1.163,9.63 3.57,12.619c2.407,2.988 5.728,4.483 10.045,4.483c4.317,0 7.637,-1.495 10.045,-4.483c2.407,-2.989 3.569,-7.14 3.569,-12.619c0,-5.396 -1.162,-9.546 -3.569,-12.618c-2.408,-2.989 -5.811,-4.483 -10.045,-4.483Z" style="fill:#072249;fill-rule:nonzero;"/><path d="M1240.59,322.661l19.757,0c0.249,0.415 0.581,0.997 0.747,1.744c0.25,0.747 0.333,1.577 0.333,2.573c0,2.906 -1.329,4.4 -3.985,4.4l-16.603,0l0,37.025c-0.498,0.249 -1.163,0.415 -2.076,0.581c-0.913,0.166 -1.826,0.249 -2.905,0.249c-1.993,0 -3.487,-0.415 -4.483,-1.162c-0.996,-0.747 -1.494,-2.076 -1.494,-3.902l0,-47.651c0,-3.237 0.498,-5.977 1.411,-8.301c0.913,-2.325 2.324,-4.151 4.068,-5.645c1.743,-1.495 3.818,-2.574 6.309,-3.238c2.49,-0.664 5.23,-1.079 8.218,-1.079c4.317,0 7.638,0.581 9.962,1.66c2.325,1.079 3.487,2.657 3.487,4.732c0,0.996 -0.166,1.826 -0.581,2.574c-0.415,0.747 -0.83,1.411 -1.411,1.909c-1.329,-0.581 -2.823,-1.079 -4.566,-1.494c-1.744,-0.415 -3.487,-0.665 -5.313,-0.665c-3.902,0 -6.725,0.748 -8.385,2.325c-1.66,1.494 -2.49,4.068 -2.49,7.554l0,5.811Z" style="fill:#072249;fill-rule:nonzero;"/><path d="M1330,365.414l0,29.222c-1.079,0.332 -2.656,0.581 -4.732,0.83c-1.992,0.249 -4.15,0.415 -6.392,0.415c-4.732,0 -8.052,-0.83 -9.962,-2.407c-1.909,-1.578 -2.822,-4.566 -2.822,-8.8l0,-73.552c0,-1.992 0.498,-3.569 1.577,-4.732c1.079,-1.079 2.574,-1.992 4.649,-2.573c1.577,-0.581 3.487,-1.079 5.562,-1.494c2.075,-0.415 4.151,-0.748 6.392,-1.08c2.159,-0.332 4.317,-0.498 6.558,-0.581c2.159,-0.083 4.234,-0.166 6.144,-0.166c13.78,0 24.157,2.906 31.213,8.717c7.057,5.811 10.626,13.78 10.626,23.908c0,4.815 -0.913,9.298 -2.656,13.283c-1.743,3.985 -4.317,7.388 -7.638,10.211c-3.32,2.822 -7.388,4.981 -12.203,6.558c-4.815,1.494 -10.211,2.241 -16.271,2.241l-10.045,0Zm8.468,-18.678c4.981,0 8.882,-1.162 11.788,-3.404c2.906,-2.241 4.4,-5.645 4.4,-10.211c0,-8.965 -5.396,-13.448 -16.105,-13.448c-1.826,0 -3.404,0.083 -4.815,0.166c-1.328,0.083 -2.74,0.249 -3.985,0.415l0,26.482l8.717,0Z" style="fill:#072249;fill-rule:nonzero;"/><path d="M1411.85,394.636c-0.996,0.332 -2.407,0.581 -4.233,0.83c-1.827,0.249 -3.819,0.415 -6.06,0.415c-4.566,0 -7.804,-0.747 -9.879,-2.158c-1.993,-1.495 -3.072,-4.317 -3.072,-8.551l0,-46.323c0,-2.822 0.664,-5.23 2.159,-7.305c1.411,-1.992 3.403,-3.819 5.894,-5.313c3.32,-1.992 7.388,-3.653 12.037,-4.815c4.732,-1.162 9.63,-1.743 14.777,-1.743c10.543,0 15.773,3.57 15.773,10.626c0,1.743 -0.249,3.32 -0.748,4.732c-0.498,1.411 -1.079,2.656 -1.66,3.652c-2.324,-0.498 -5.147,-0.747 -8.467,-0.747c-2.906,0 -5.895,0.332 -8.8,1.079c-2.906,0.748 -5.479,1.661 -7.721,2.906l0,52.715Z" style="fill:#072249;fill-rule:nonzero;"/><path d="M1467.14,367.988c1.411,4.234 3.901,7.222 7.388,9.049c3.57,1.743 7.638,2.656 12.286,2.656c4.234,0 8.219,-0.581 11.955,-1.743c3.735,-1.163 6.807,-2.408 9.131,-3.902c1.495,0.996 2.74,2.324 3.819,3.902c0.996,1.577 1.494,3.403 1.494,5.313c0,2.324 -0.747,4.316 -2.158,6.06c-1.411,1.743 -3.321,3.154 -5.811,4.317c-2.491,1.162 -5.396,1.992 -8.8,2.573c-3.403,0.581 -7.139,0.83 -11.124,0.83c-5.977,0 -11.456,-0.83 -16.52,-2.49c-5.064,-1.661 -9.381,-4.151 -13.033,-7.389c-3.653,-3.32 -6.476,-7.388 -8.551,-12.369c-2.075,-4.981 -3.072,-10.792 -3.072,-17.433c0,-6.475 0.997,-12.037 3.072,-16.852c2.075,-4.732 4.815,-8.717 8.302,-11.788c3.486,-3.155 7.471,-5.396 11.954,-6.891c4.483,-1.494 9.131,-2.158 13.863,-2.158c5.147,0 9.879,0.747 14.196,2.324c4.317,1.578 7.969,3.736 11.041,6.559c3.072,2.822 5.479,6.226 7.222,10.127c1.744,3.902 2.574,8.219 2.574,12.868c0,3.237 -0.83,5.645 -2.574,7.305c-1.743,1.577 -4.15,2.657 -7.305,3.155l-39.349,5.977Zm14.444,-31.297c-4.316,0 -7.969,1.328 -10.875,3.985c-2.905,2.656 -4.565,6.558 -5.064,11.622l28.973,-4.732c-0.166,-2.656 -1.328,-5.064 -3.487,-7.388c-2.158,-2.325 -5.313,-3.487 -9.547,-3.487Z" style="fill:#072249;fill-rule:nonzero;"/><path d="M1589.59,373.384c0,7.471 -2.739,13.282 -8.301,17.516c-5.562,4.151 -13.781,6.309 -24.573,6.309c-4.233,0 -8.135,-0.332 -11.622,-0.913c-3.486,-0.581 -6.475,-1.494 -9.048,-2.739c-2.491,-1.246 -4.483,-2.74 -5.895,-4.566c-1.411,-1.827 -2.158,-3.902 -2.158,-6.392c0,-2.242 0.415,-4.151 1.328,-5.646c0.913,-1.577 2.076,-2.822 3.487,-3.901c2.905,1.743 6.226,3.237 9.962,4.566c3.735,1.328 8.052,1.992 13.033,1.992c7.14,0 10.792,-1.992 10.792,-6.06c0,-1.743 -0.664,-3.072 -1.909,-3.902c-1.245,-0.913 -3.404,-1.743 -6.475,-2.407l-6.06,-1.329c-8.302,-1.743 -14.445,-4.399 -18.513,-7.969c-4.068,-3.57 -6.06,-8.634 -6.06,-15.109c0,-7.139 2.906,-12.867 8.717,-17.018c5.811,-4.151 13.614,-6.309 23.41,-6.309c3.653,0 7.056,0.249 10.294,0.83c3.237,0.581 5.977,1.411 8.301,2.49c2.325,1.08 4.151,2.491 5.562,4.151c1.329,1.661 2.076,3.653 2.076,5.811c0,1.993 -0.415,3.819 -1.245,5.396c-0.831,1.578 -1.91,2.823 -3.155,3.902c-0.83,-0.498 -1.992,-1.079 -3.57,-1.66c-1.577,-0.581 -3.237,-1.163 -5.064,-1.661c-1.826,-0.498 -3.735,-0.913 -5.728,-1.245c-1.992,-0.332 -3.901,-0.415 -5.645,-0.415c-3.569,0 -6.309,0.498 -8.301,1.411c-1.993,0.997 -2.989,2.408 -2.989,4.317c0,1.411 0.581,2.491 1.66,3.321c1.08,0.83 3.155,1.577 6.061,2.241l5.728,1.328c9.214,1.993 15.773,4.981 19.674,8.8c4.317,3.902 6.226,8.8 6.226,14.86Z" style="fill:#072249;fill-rule:nonzero;"/><path d="M1629.02,376.787c1.826,1.246 4.317,1.91 7.554,1.91c1.494,0 3.155,-0.166 4.815,-0.498c1.743,-0.332 3.155,-0.747 4.4,-1.329c0.913,0.997 1.66,2.159 2.241,3.487c0.581,1.328 0.914,2.823 0.914,4.566c0,3.57 -1.412,6.475 -4.151,8.717c-2.74,2.241 -7.638,3.403 -14.445,3.403c-8.468,0 -15.109,-1.909 -19.841,-5.811c-4.732,-3.902 -7.139,-10.211 -7.139,-19.01l0,-68.073c1.079,-0.332 2.574,-0.664 4.4,-0.996c1.826,-0.332 3.819,-0.498 5.894,-0.498c4.483,0 7.637,0.747 9.63,2.324c1.992,1.577 2.988,4.4 2.988,8.551l0,9.879l20.92,0c0.498,0.996 0.996,2.324 1.494,3.901c0.499,1.578 0.748,3.238 0.748,4.898c0,3.238 -0.748,5.562 -2.159,6.973c-1.494,1.412 -3.32,2.159 -5.645,2.159l-15.275,0l0,29.387c-0.083,2.74 0.83,4.815 2.657,6.06Z" style="fill:#072249;fill-rule:nonzero;"/><path d="M1692.03,319.59c5.229,0 10.044,0.498 14.361,1.577c4.317,1.079 7.97,2.74 10.958,4.898c3.072,2.241 5.396,5.064 7.057,8.468c1.66,3.403 2.49,7.471 2.49,12.12l0,34.285c0,2.657 -0.664,4.732 -2.075,6.309c-1.329,1.578 -2.989,2.906 -4.898,3.985c-3.155,1.91 -6.974,3.404 -11.539,4.4c-4.566,0.996 -9.713,1.494 -15.441,1.494c-10.377,0 -18.679,-1.992 -24.822,-5.977c-6.143,-3.985 -9.215,-10.045 -9.215,-18.263c0,-6.974 2.076,-12.287 6.227,-15.939c4.15,-3.653 10.542,-5.894 19.093,-6.807l20.173,-2.159l0,-1.66c0,-3.238 -1.328,-5.645 -3.902,-7.14c-2.656,-1.494 -6.392,-2.241 -11.373,-2.241c-3.819,0 -7.637,0.415 -11.29,1.328c-3.653,0.913 -6.973,1.993 -9.962,3.155c-1.245,-0.83 -2.241,-2.075 -3.072,-3.736c-0.83,-1.66 -1.328,-3.486 -1.328,-5.396c0,-4.483 2.325,-7.637 6.974,-9.547c2.905,-1.079 6.309,-1.909 10.21,-2.49c3.819,-0.332 7.638,-0.664 11.374,-0.664Zm0.913,60.518c2.241,0 4.399,-0.249 6.558,-0.664c2.158,-0.415 3.819,-0.996 4.898,-1.743l0,-14.03l-12.453,1.079c-3.237,0.332 -5.811,0.996 -7.803,2.159c-1.992,1.162 -2.989,2.905 -2.989,5.23c0,2.407 0.914,4.316 2.74,5.728c1.992,1.494 4.898,2.241 9.049,2.241Z" style="fill:#072249;fill-rule:nonzero;"/><path d="M1215.44,415.39c-17.516,0 -35.033,-5.728 -46.572,-17.102c-0.996,-0.996 -0.996,-2.573 0,-3.569c0.997,-0.996 2.574,-0.996 3.57,0c20.92,20.588 65.084,20.588 86.004,0c0.996,-0.996 2.573,-0.996 3.57,0c0.996,0.996 0.996,2.573 0,3.569c-11.54,11.374 -29.056,17.102 -46.572,17.102Z" style="fill:#ff5e17;fill-rule:nonzero;"/></g><g><path d="M1867.81,381.498c-4.102,5.33 -9.205,9.836 -15.019,13.276c-7.832,4.618 -16.941,7.251 -26.695,7.251c-4.716,0 -9.286,-0.614 -13.647,-1.793c-12.16,-3.246 -22.577,-10.756 -29.586,-20.801c-1.001,-1.437 0.436,-3.294 2.067,-2.697c4.764,1.712 8.446,2.294 10.288,0.856c2.422,-1.889 2.761,-6.96 -4.668,-17.554c-7.089,-10.126 -15.697,-23.999 1.05,-43.056c15.294,-17.377 37.177,-18.216 52.761,-10.158c-0.032,0 -0.048,0.016 -0.048,0.016c2.648,1.987 4.812,3.812 6.605,5.491c0.178,0.162 0.355,0.339 0.517,0.501c4.36,4.199 6.298,7.445 7.59,10.19c-9.496,-11.369 -28.843,-11.417 -42.974,-5.571c-18.879,7.816 -28.424,30.781 -26.244,36.611c0.065,0.194 0.146,0.355 0.243,0.501c2.697,4.328 24.709,15.213 41.634,15.213c0.436,0 0.872,0 1.292,-0.016c0.209,0 0.419,-0.016 0.629,-0.033c0.21,-0.016 0.42,-0.016 0.63,-0.032c0.21,-0.016 0.42,-0.032 0.63,-0.048c0.21,-0.017 0.42,-0.033 0.614,-0.065c0.21,-0.016 0.403,-0.048 0.613,-0.081c0.194,-0.032 0.404,-0.048 0.598,-0.08c0.178,-0.033 0.371,-0.065 0.549,-0.097c0.533,-0.097 1.05,-0.194 1.55,-0.323c0.453,-0.113 0.905,-0.243 1.341,-0.372c0.371,-0.113 0.727,-0.242 1.082,-0.371c8.478,-3.198 13.259,-8.608 17.167,-13.388c0.016,-0.017 0.032,-0.049 0.048,-0.065c-1.695,4.393 -8.704,18.75 1.761,22.27c1.211,0.404 3.278,0.792 5.991,0.969c1.793,0.097 2.681,2.084 1.631,3.456Z" style="fill:#072249;fill-rule:nonzero;"/><path d="M1844.43,306.838l-0.081,0c0,0 0.016,0 0.048,-0.016c0,0 0.017,0 0.033,0.016Z" style="fill:#072249;fill-rule:nonzero;"/><path d="M1862.84,344.483c-0.694,3.473 -2.341,6.896 -4.134,9.916c-0.032,0.113 -0.355,0.598 -0.258,0.436c-6.186,7.558 -14.002,14.115 -24.16,14.826c-0.21,0 -0.42,0.016 -0.63,0.032c-9.238,0.501 -18.685,-2.196 -27.196,-5.588c-3.747,-1.486 -7.429,-3.197 -10.901,-5.265c-1.841,-1.098 -4.894,-2.648 -5.701,-4.828c7.897,-6.412 20.51,-4.086 28.94,-0.226c4.425,2.018 8.672,4.425 13.598,4.941c6.46,0.679 12.791,-1.405 18.314,-4.635c4.425,-2.551 8.624,-5.846 12.128,-9.609Z" style="fill:#e6e8ec;fill-rule:nonzero;"/><path d="M1893.49,324.119l-1.648,1.162c-0.016,0 -0.016,0.016 -0.032,0.016c-6.605,4.361 -13.453,5.459 -19.364,5.847l-0.032,0c-4.312,0.274 -8.139,-0.42 -9.028,-0.533l-0.145,0c0.065,-0.081 0.129,-0.162 0.21,-0.242c0.065,-0.081 0.129,-0.146 0.194,-0.227c0.194,-0.226 0.404,-0.436 0.614,-0.646c3.666,0.566 16.23,1.825 29.231,-5.377Z" style="fill:#212121;fill-rule:nonzero;"/><path d="M1891.01,315.527c0,0 -3.391,3.65 -9.011,5.895c-2.891,1.146 -6.218,1.986 -9.432,3.181c-0.419,0.162 -0.823,0.307 -1.227,0.485c-4.344,-7.849 -14.632,-16.958 -26.905,-18.25l-0.081,0c0,0 0.016,0 0.048,-0.016c0.453,-0.129 4.49,-1.163 10.191,-1.712c10.4,-1.033 26.388,-0.403 36.417,10.417Z" style="fill:#ff4e00;fill-rule:nonzero;"/><path d="M1889.86,333.776c-6.25,7.009 -16.489,17.539 -31.347,21.011c0,0 0.065,-0.113 0.178,-0.307c0.016,-0.016 0.016,-0.032 0.032,-0.048c0,0 0,-0.017 0.016,-0.017c0.646,-1.098 1.212,-2.164 1.68,-3.165c1.211,-2.552 1.889,-4.683 2.212,-5.83c0.162,-0.549 0.227,-0.888 0.227,-0.92c3.084,-2.649 7.396,-5.895 9.302,-10.159c0.452,-1.017 0.775,-2.083 0.904,-3.213c-0.194,0.016 -0.387,0.016 -0.581,0.032c5.911,-0.388 12.758,-1.486 19.363,-5.846c0.016,0 0.016,-0.017 0.033,-0.017c0.549,-0.355 1.098,-0.742 1.647,-1.162c-0.032,-0.016 0.759,4.667 -3.666,9.641Z" style="fill:#ff4e00;fill-rule:nonzero;"/><path d="M1863.2,343.143c-0.097,0.452 -0.226,0.888 -0.356,1.34c0,0.033 -0.08,0.372 -0.226,0.921c-0.323,1.147 -1.001,3.278 -2.212,5.83c-0.469,1.001 -1.034,2.067 -1.68,3.165c0.63,-1.163 2.552,-4.942 4.118,-9.899c0.017,-0.065 0.049,-0.146 0.065,-0.21c0.097,-0.372 0.21,-0.759 0.291,-1.147Z" style="fill:#ff4e00;fill-rule:nonzero;"/><path d="M1873.05,331.128c-0.129,1.13 -0.452,2.196 -0.904,3.213c-1.906,4.248 -6.218,7.51 -9.303,10.159c0.146,-0.453 0.259,-0.889 0.356,-1.341c0.016,-0.065 0.032,-0.129 0.048,-0.21c0.808,-3.601 0.581,-7.687 0,-12.338l0.145,0c0.889,0.129 4.716,0.807 9.028,0.533l0.032,0c0.194,0 0.404,-0.016 0.598,-0.016Z" style="fill:#ffd701;fill-rule:nonzero;"/><path d="M1863.24,342.949c0.727,-3.407 0.436,-6.912 0,-12.338c0.581,4.635 0.808,8.721 0,12.338Z" style="fill:#ffd701;fill-rule:nonzero;"/><path d="M1872.42,331.16c-4.312,0.274 -8.139,-0.42 -9.028,-0.533c0.905,0.097 4.926,0.71 9.028,0.533Z" style="fill:#ffd701;fill-rule:nonzero;"/><path d="M1871.34,325.088c-0.016,0 -0.016,0.016 -0.032,0.016c-2.568,1.049 -5.007,2.406 -7.025,4.392c-0.21,0.21 -0.42,0.42 -0.614,0.646c-0.065,0.081 -0.129,0.146 -0.194,0.227c-0.064,0.08 -0.129,0.161 -0.21,0.242c-0.048,-0.049 -0.097,-0.097 -0.145,-0.146c-0.032,-0.032 -0.065,-0.064 -0.081,-0.096c-1.954,-2.197 -2.6,-4.49 -3.957,-7.349c-1.291,-2.745 -3.246,-5.991 -7.59,-10.19c-0.161,-0.162 -0.339,-0.323 -0.517,-0.501c-1.776,-1.679 -3.94,-3.488 -6.605,-5.491l0.081,0c12.241,1.276 22.545,10.401 26.889,18.25Z" style="fill:#ffd701;fill-rule:nonzero;"/><path d="M1871.34,325.088c-2.568,1.049 -5.039,2.406 -7.057,4.392c-0.21,0.21 -0.42,0.42 -0.614,0.646c0.194,-0.226 0.404,-0.436 0.614,-0.646c2.018,-2.002 4.457,-3.343 7.025,-4.392l0.032,0Z" style="fill:#ffd701;fill-rule:nonzero;"/><path d="M1842.65,329.609c-1.453,0.243 -2.826,-0.742 -3.068,-2.196c-0.242,-1.453 0.743,-2.826 2.196,-3.068c1.454,-0.243 2.826,0.743 3.069,2.196c0.226,1.437 -0.743,2.826 -2.197,3.068Z" style="fill:#212121;fill-rule:nonzero;"/><path d="M1846.24,334.357c-6.314,1.228 -8.914,1.002 -16.375,0.969c-11.58,-0.032 -18.007,3.876 -24.936,7.736c6.735,-5.2 12.581,-7.978 18.75,-9.044c11.628,-1.986 16.489,-1.049 15.972,-4.118c0.84,0.727 2.003,1.098 3.182,0.888c2.115,-0.355 3.553,-2.357 3.198,-4.473c-0.356,-2.116 -2.374,-3.553 -4.49,-3.198c-1.841,0.307 -3.165,1.857 -3.246,3.65c-0.033,-0.081 -0.081,-0.145 -0.129,-0.226c-1.389,-2.422 -0.081,-3.811 -0.63,-6.492c8.608,-1.421 14.147,13.243 8.704,14.308Z" style="fill:#212121;fill-rule:nonzero;"/><path d="M1842.65,329.609c-1.453,0.243 -2.826,-0.742 -3.068,-2.196c-0.242,-1.453 0.743,-2.826 2.196,-3.068c1.454,-0.243 2.826,0.743 3.069,2.196c0.226,1.437 -0.743,2.826 -2.197,3.068Z" style="fill:#141313;fill-rule:nonzero;"/><path d="M1840.16,325.358c0.216,-0.47 0.727,-0.696 1.14,-0.506c0.413,0.191 0.572,0.727 0.355,1.196c-0.217,0.469 -0.728,0.696 -1.14,0.505c-0.413,-0.19 -0.572,-0.726 -0.355,-1.195Z" style="fill:#efeaea;"/><path d="M1846.05,326.331c-0.356,-2.116 -2.374,-3.553 -4.49,-3.198c-1.841,0.307 -3.165,1.858 -3.246,3.65c-0.016,0.275 0,0.549 0.048,0.824c0.162,0.937 0.63,1.728 1.292,2.293c0.84,0.727 2.003,1.098 3.182,0.888c2.132,-0.339 3.569,-2.341 3.214,-4.457Zm-3.392,3.278c-1.453,0.243 -2.826,-0.742 -3.068,-2.196c-0.242,-1.453 0.743,-2.826 2.196,-3.068c1.454,-0.243 2.826,0.743 3.069,2.196c0.226,1.437 -0.743,2.826 -2.197,3.068Z" style="fill:#ff4e00;fill-rule:nonzero;"/><path d="M1863.26,330.595c-0.048,-0.049 -0.097,-0.097 -0.145,-0.162c-0.032,-0.032 -0.065,-0.064 -0.081,-0.097c-1.954,-2.196 -2.6,-4.489 -3.957,-7.348c-9.496,-11.369 -28.843,-11.418 -42.974,-5.572c-18.879,7.817 -28.423,30.782 -26.243,36.612c0.856,-0.695 5.2,-3.86 13.323,-3.86c0.566,0 1.163,0.016 1.761,0.049c14.211,0.775 18.604,8.656 29.844,8.656c1.454,0 3.036,-0.129 4.748,-0.436c9.642,-1.664 18.266,-9.06 21.706,-12.371c0.742,-0.711 1.259,-1.244 1.469,-1.47c0.049,-0.048 0.081,-0.096 0.097,-0.113c0.016,-0.064 0.049,-0.145 0.065,-0.21c0.113,-0.371 0.226,-0.759 0.307,-1.146c0.016,-0.065 0.032,-0.129 0.048,-0.21c0.743,-3.375 0.452,-6.88 0.032,-12.322Zm-17.022,3.762c-6.314,1.228 -8.914,1.002 -16.375,0.969c-11.58,-0.032 -18.007,3.876 -24.936,7.736c6.735,-5.2 12.581,-7.978 18.75,-9.044c11.628,-1.986 16.489,-1.049 15.972,-4.118c-0.662,-0.565 -1.13,-1.373 -1.292,-2.293c-0.048,-0.275 -0.064,-0.549 -0.048,-0.824c-0.032,-0.08 -0.081,-0.145 -0.129,-0.226c-1.389,-2.422 -0.081,-3.811 -0.63,-6.492c8.592,-1.437 14.131,13.227 8.688,14.292Z" style="fill:#fff;fill-rule:nonzero;"/></g></g></svg>