<?xml version="1.0" encoding="utf-8"?>
<!-- Generator: Adobe Illustrator 21.0.1, SVG Export Plug-In . SVG Version: 6.00 Build 0)  -->
<!DOCTYPE svg PUBLIC "-//W3C//DTD SVG 1.1//EN" "http://www.w3.org/Graphics/SVG/1.1/DTD/svg11.dtd">
<svg version="1.1" id="Calque_1" xmlns="http://www.w3.org/2000/svg" xmlns:xlink="http://www.w3.org/1999/xlink" x="0px" y="0px"
	 viewBox="0 0 836 951" enable-background="new 0 0 836 951" xml:space="preserve">
<path opacity="0.1" fill="#072249" d="M272.2,883.2c6.9,4,1,8.7-6.4,22.9c-12.7,24.5-5.9,9.3-26.5,6.1c-13.8-2.1-38.1,15.4-18.6-5
	C237.1,889.9,265.3,879.3,272.2,883.2z"/>
<path opacity="0.1" fill="#072249" d="M271.2,914.9c16.1-23,17.1-41.5,41.1-22.9c11.1,8.6,16.2,14.2,17.8,25.9
	c2.9,20.7-16.8,2.3-30,0.9C288.7,917.6,257,935.1,271.2,914.9z"/>
<path opacity="0.1" fill="#072249" d="M464.2,911.7c-2.4-10.2-3.7-30.9,2.5-34.9c6.2-4.1,25.5,10.8,43.1,30.8
	c15,17.1-11.2,10.1-23,11.6C470.4,921.1,470.4,938.5,464.2,911.7z"/>
<path opacity="0.1" fill="#072249" d="M492.6,875.1c4.5-6.9,38,15,84,23.2c18.6,3.3-6,5.9-26.2,5.9c-8.1,0-15.9,12.2-22.7,6.3
	C512.9,897.7,490.4,878.5,492.6,875.1z"/>
<path fill="#072249" d="M656.5,636.8c-58,81-137.3,136.7-153.7,147.7c-0.1,0-0.1,0.1-0.2,0.1c-1.8,1.2-2.7,1.8-2.9,1.9
	c39.4-51.9,65.6-109.9,79-181.2c1.7-8.8,3.1-17.7,4.4-26.9c14-101.9,15.3-242.9-143.8-251.9c-80.6-4.6-81.6,95.7-65.5,243.9
	c8.8,80.4-36,124.7-70.2,161c-26.7,28.4-47,51.9-30.4,84.1c1.1,2.2,3.9,4.1,7.8,5.6c-0.6-0.1-1.3-0.1-1.9-0.2
	C138.1,805.9,79.6,729.1,159,733.5c60.7,3.4,87.9-75.2,90-123.8C255.2,467.6-173.8,157.1,82.2,203c68.9,12.4,200.5,105.7,227.4,84.8
	c9.2-7.1,10.4-26.3-17.6-66.4c-26.8-38.3-59.4-90.7,4-162.8c57.8-65.7,140.5-68.9,199.5-38.4c-0.1,0-0.2,0-0.2,0
	C531.9,47.8,544,66.6,551,81.5c-35.9-43-109.1-43.2-162.4-21.1c-71.3,29.5-107.4,116.4-99.2,138.4c0.3,0.7,0.6,1.4,0.9,1.9
	c12.3,19.7,130.7,75.5,193.5,51.8c32-12.1,50.1-32.5,64.9-50.6c0.1-0.1,0.1-0.2,0.2-0.3c-6.4,16.6-32.9,70.9,6.6,84.2
	c20.4,6.9,105.1,11.5,183.2-43C912.1,121.7,832,392,656.5,636.8z"/>
<path fill="#072249" d="M495.7,20.3c-0.1,0-0.2,0-0.3,0c0,0,0.1,0,0.2,0C495.6,20.3,495.6,20.3,495.7,20.3z"/>
<g>
	<path fill="#E6E8EC" d="M565.3,162.7c-32.1,34.2-81.8,65-130.2,51c-25.9-7.5-47.7-23.6-74.9-27.8c-23-3.6-51.8-2.4-70.8,13
		c6.3,16.6,37.9,27.5,52.4,33.8c29.1,12.7,60.5,22.5,92.3,25C493.7,262.4,551.5,221.7,565.3,162.7"/>
</g>
<path fill="#FFFFFF" d="M583.2,578.4c-1.3,9.2-2.7,18.2-4.4,26.9c-11.8-10.8-32.9,22.6-37.9,29.1c-17.1,22.2-33.8,44.7-53.8,64.4
	c-21.2,20.9-46.6,39.2-76.2,45.3c-37.2,7.8-70.1-14-107.2-12.8c18.8-19.9,37.8-39.9,51.2-64c16.8-30,22.2-63.1,19-97
	c-5.9-61.7-17.6-130.4-0.7-191.4c5-17.9,13.9-36,30.7-45.5c19.9-11.2,45.4-7.4,66.7-3.2c50.4,9.8,89.7,41,106.6,90
	C594.5,470.5,590.3,526.6,583.2,578.4z"/>
<path fill="#E6E8EC" d="M447.4,872.5c-44.2,0.4-85.1,2.4-123.5,5c21.7,22.2,20.4,63.7,8,63.7c-1,0-2-0.3-3.1-0.8
	c-12.5-6.1-20.7-8-27.2-8c-5.1,0-9.1,1.2-13.1,2.4c-4.1,1.2-8.2,2.4-13.6,2.4c-1.4,0-2.9-0.1-4.5-0.3c-20.2-2.3-19.4-12.5-40.7-12.5
	c-5.5,0-12.5,0.7-21.6,2.3c-0.5,0.1-1,0.1-1.5,0.1c-9.8,0,5.6-23.6,31.5-42.4c-34.7,3.2-67.3,6.5-98.4,9
	C6.9,904.2-3.1,921.7,247,945.1c40.1,3.8,81.6,5.4,122.7,5.4c230.9,0,447.5-51.4,301.4-67.1c-52.7-5.6-101.6-8.8-147.4-10.2
	c42.1,20.4,87.4,25.3,67.1,34c-15.2,6.5-32.7,0.4-53.2,18.4c-5.4,4.8-12.8,5.3-21.4,5.3c-1.2,0-2.5,0-3.7,0c-1.3,0-2.6,0-3.9,0
	c-11.5,0-24.6,0.8-38.1,9.7c-0.4,0.3-0.9,0.4-1.3,0.4C461.1,941,449.3,899.1,447.4,872.5"/>
<path fill="#E6E8EC" d="M573.8,603.2c-13.7,0-27.4,24.1-34.4,33.2c-17.2,22.4-34.1,45-54.5,64.6c-21.5,20.6-47.2,38.4-77,43.7
	c-36.1,6.4-68.2-14.6-104.2-13.4c-12.7,13.5-27.4,28-33.7,45.9c-4.7,13.3-4.6,37.8,11.1,43.8c-0.6-0.1-1.3-0.1-1.9-0.2
	c2.9,0.8,6.4,1.3,9.5,1.2c-3-12.3-7.7-26.9,10.2-28.3c16-1.3,13.2,13.4,10,25c26.4-9,42.1-41.4,72-41.2
	c29.7,0.1,46.2,34.1,74.8,38.9c-2.1-10.5-12.2-25.5,1.7-30.7c22.3-8.4,20,12.4,17.9,26.5c7-5.3,16.8-15,27.7-27.5l-0.2,0.1l0.2-0.1
	c39.4-51.9,62.6-107.9,75.9-179.2C577.3,603.9,575.6,603.2,573.8,603.2"/>
<path opacity="0.1" fill="#072249" d="M502.9,784.5L502.9,784.5l-0.2,0.1C502.8,784.6,502.8,784.6,502.9,784.5z"/>
<path fill="#FF4E00" d="M323.9,877.4c-1.1-1.2-2.3-2.3-3.6-3.3c-14.3-11.9-16.3-21.5-16.4-31c-0.1-7.3,2.7-16.1,4.9-24.4
	c3.9-14.1,6.3-26.2-10-25c-0.4,0-0.9,0.1-1.3,0.2c-17.4,3.1-12.5,13.3-8.8,28.1c1.3,5.1,2.4,10.8,2.3,17c0,6-1.6,11.6-3.1,16.6
	c-1.4,4.5-5.1,7.8-9.6,9.1c-14.6,3.9-28.4,11.4-40.1,19.9c-27.1,19.7-42.7,44.5-30,42.2c44.8-8.1,36.8,7.2,62.3,10.1
	c21.8,2.5,23.6-13.6,58.4,3.5C343.9,947.8,347.3,901.4,323.9,877.4z M239.3,912.2c-13.8-2.1-38.1,15.4-18.6-5
	c16.4-17.3,44.6-28,51.5-24c6.9,4,1,8.7-6.4,22.9C253.1,930.7,259.9,915.4,239.3,912.2z M300.1,918.8c-11.4-1.2-43.1,16.3-28.9-3.9
	c16.1-23,17.1-41.5,41.1-22.9c11.1,8.6,16.2,14.2,17.8,25.9C333,938.6,313.3,920.2,300.1,918.8z"/>
<path fill="#FF4E00" d="M265.8,906.1c-12.7,24.5-5.9,9.3-26.5,6.1c-13.8-2.1-38.1,15.4-18.6-5c16.4-17.3,44.6-28,51.5-24
	C279.1,887.2,273.2,892,265.8,906.1z"/>
<path fill="#FF4E00" d="M300.1,918.8c-11.4-1.2-43.1,16.3-28.9-3.9c16.1-23,17.1-41.5,41.1-22.9c11.1,8.6,16.2,14.2,17.8,25.9
	C333,938.6,313.3,920.2,300.1,918.8z"/>
<path fill="#212121" d="M681.1,85.7l-6.3,4.5c0,0-0.1,0-0.1,0.1c-1.2,0.8-2.5,1.6-3.8,2.4c-10.7,6.5-23.6,11.9-38.2,15.4
	c-0.1,0-0.2,0-0.3,0.1c-9.1,2.2-18.9,3.6-29.3,4.1c0,0,0,0-0.1,0c-0.6,0-1.1,0.1-1.7,0.1c-0.9,0-1.8,0.1-2.7,0.1c-0.6,0-1.2,0-1.8,0
	c0,0-0.1,0-0.1,0c-1.5,0-2.9,0-4.2,0c0,0-0.1,0-0.1,0c-0.7,0-1.4,0-2.1,0c-0.7,0-1.4,0-2-0.1c-0.3,0-0.7,0-1,0c-1,0-1.9-0.1-2.8-0.1
	c0,0,0,0,0,0c-1.2-0.1-2.3-0.1-3.5-0.2c-0.1,0-0.1,0-0.2,0c-0.9-0.1-1.8-0.2-2.8-0.2c-0.9-0.1-1.7-0.2-2.5-0.3
	c-2-0.2-3.9-0.4-5.9-0.7c0,0-0.1,0-0.1,0c-0.1,0-0.2,0-0.3,0c-0.3,0-0.7-0.1-1-0.1c-0.5-0.1-0.9-0.1-1.4-0.2c0-0.1,0.1-0.1,0.2-0.2
	c0.1-0.1,0.2-0.2,0.2-0.3c0.2-0.1,0.3-0.3,0.4-0.5c0.9-0.9,2.1-2,3.6-3.2C571.3,106,632,112.9,681.1,85.7z"/>
<path fill="#FF4E00" d="M671.7,53.2c0,0-12.8,13.8-34.1,22.3c-12.3,4.9-26.8,8.3-40.3,13.8c-16.4-29.6-55.3-64.1-101.7-69
	c-0.1,0-0.2,0-0.3,0c0,0,0.1,0,0.2,0C500.5,18.9,613.1-10.1,671.7,53.2z"/>
<path fill="#FF4E00" d="M667.4,122.2c-23.6,26.5-62.4,66.3-118.5,79.4c0,0,0.2-0.4,0.6-1.2c0,0,0-0.1,0-0.1
	c12-20.3,15.7-37.7,15.7-37.7c11.7-10,28-22.3,35.2-38.4c1.7-3.8,2.9-7.9,3.4-12.1c-0.6,0-1.3,0.1-1.9,0.1c22.2-1.5,48-5.7,72.8-22
	c0,0,0.1-0.1,0.1-0.1c2.1-1.4,4.2-2.9,6.3-4.5C681.1,85.7,684.2,103.4,667.4,122.2z"/>
<path fill="#FF4E00" d="M566.3,159.1c-0.1,0.5-0.3,1-0.4,1.5c0,0.1,0,0.2-0.1,0.3c-0.2,0.6-0.3,1.2-0.5,1.8c0,0-3.7,17.4-15.7,37.7
	c2.3-4.2,9.7-18.6,15.7-37.6c0.1-0.3,0.2-0.5,0.2-0.8C565.7,161,566,160,566.3,159.1z"/>
<path fill="#FFD701" d="M569.6,110.6c-0.4,0-0.8-0.1-1.1-0.2C568.9,110.5,569.2,110.5,569.6,110.6z"/>
<path fill="#FFD701" d="M575.3,111.3c-0.7-0.1-1.3-0.2-1.9-0.2C573.9,111.2,574.6,111.3,575.3,111.3z"/>
<path fill="#FFD701" d="M602.6,112.2C602.6,112.2,602.6,112.2,602.6,112.2c-0.4,0-0.8,0-1.2,0c-0.9,0-1.8,0.1-2.7,0.1
	c-0.6,0-1.2,0-1.8,0c0,0-0.1,0-0.1,0c-1.4,0-2.8,0-4.2,0c0,0-0.1,0-0.1,0c-0.7,0-1.4,0-2.1,0c-0.7,0-1.4,0-2-0.1c-0.3,0-0.7,0-1,0
	c-1,0-1.9-0.1-2.8-0.1c0,0,0,0,0,0c-1.2-0.1-2.3-0.1-3.5-0.2c-0.1,0-0.1,0-0.2,0c-0.9-0.1-1.9-0.2-2.8-0.2c-0.9-0.1-1.7-0.2-2.5-0.3
	c-2.1-0.2-4-0.5-5.9-0.7c0,0-0.1,0-0.1,0c-0.1,0-0.2,0-0.3,0c-0.1,0-0.2,0-0.3,0c-0.3,0-0.5-0.1-0.8-0.1c-0.5-0.1-0.9-0.1-1.4-0.2h0
	c1.3,16.1,3.4,33-0.5,48.9c-0.1,0.5-0.3,1-0.4,1.5c0,0.1,0,0.2-0.1,0.3c-0.2,0.6-0.3,1.2-0.5,1.8c0.4-0.3,0.7-0.6,1.1-0.9
	c1.1-1,2.3-2,3.5-2.9c0,0,0.1,0,0.1-0.1c0.7-0.6,1.3-1.1,2-1.7c1.8-1.5,3.5-3,5.2-4.5c0.5-0.5,1.1-1,1.6-1.4
	c0.4-0.4,0.9-0.8,1.3-1.2c0.7-0.6,1.4-1.2,2-1.9c0.4-0.4,0.8-0.8,1.2-1.2c3.3-3.1,6.4-6.4,9.2-10c0.4-0.4,0.7-0.9,1-1.3
	c0.3-0.5,0.7-0.9,1-1.3c0.1-0.1,0.2-0.3,0.3-0.4c0.1-0.2,0.2-0.3,0.3-0.5c0,0,0.1-0.1,0.1-0.1c0.4-0.6,0.8-1.2,1.2-1.8
	c0,0,0,0,0-0.1c0.3-0.5,0.6-0.9,0.9-1.3c0.3-0.5,0.6-0.9,0.8-1.4c0.2-0.4,0.5-0.9,0.7-1.3c0.2-0.3,0.3-0.6,0.5-0.9
	c0.2-0.3,0.3-0.6,0.5-0.9c0.1-0.3,0.3-0.6,0.4-0.9c0.1-0.3,0.3-0.6,0.4-0.9c0.1-0.2,0.2-0.5,0.3-0.7c0.1-0.2,0.2-0.5,0.3-0.7
	c0.1-0.2,0.2-0.4,0.2-0.6c0.1-0.2,0.2-0.5,0.3-0.7c0.1-0.4,0.2-0.7,0.4-1c0.1-0.4,0.2-0.8,0.4-1.2c0-0.1,0-0.1,0-0.2
	c0-0.1,0.1-0.3,0.1-0.4c0.1-0.3,0.2-0.7,0.3-1c0,0,0-0.1,0-0.1c0.1-0.5,0.2-1.1,0.4-1.6c0.1-0.5,0.2-1,0.3-1.6
	c0.1-0.5,0.2-1,0.2-1.6C603.4,112.2,603,112.2,602.6,112.2z"/>
<path fill="#FFD701" d="M568.5,110.4c0.3,0,0.7,0.1,1.1,0.2C569.2,110.5,568.9,110.5,568.5,110.4z"/>
<path fill="#FFD701" d="M597.3,89.3c0,0-0.1,0-0.1,0c-8.6,4.1-19.5,11.5-26,16.7c-1.5,1.2-2.7,2.3-3.6,3.2c-0.1,0.2-0.3,0.3-0.4,0.5
	c-0.1,0.1-0.1,0.2-0.2,0.3c-0.1,0.1-0.1,0.1-0.2,0.2c-8-8.6-10.5-17.5-15.8-28.7c-7-14.8-19-33.7-55.6-61.2c0.1,0,0.2,0,0.3,0
	C542,25.2,580.9,59.7,597.3,89.3z"/>
<path fill="#FF4E00" d="M501.8,94c-1.3-8-9-13.4-17-12.1c-6.9,1.2-11.9,7.1-12.3,13.8v0c0,1,0,2.1,0.2,3.1c0.6,3.5,2.4,6.5,4.9,8.7
	c3.2,2.8,7.6,4.2,12.1,3.4C497.7,109.6,503.1,102,501.8,94z M488.9,106.4c-5.5,0.9-10.7-2.8-11.6-8.3c-0.9-5.5,2.8-10.7,8.3-11.6
	c5.5-0.9,10.7,2.8,11.6,8.3S494.4,105.5,488.9,106.4z"/>
<path fill="#212121" d="M488.9,106.4c-5.5,0.9-10.7-2.8-11.6-8.3c-0.9-5.5,2.8-10.7,8.3-11.6c5.5-0.9,10.7,2.8,11.6,8.3
	S494.4,105.5,488.9,106.4z"/>
<path fill="#FFFFFF" d="M566.8,110.2L566.8,110.2c0.1-0.1,0.1-0.1,0.2-0.2C566.9,110,566.9,110.1,566.8,110.2
	c-8-8.6-10.5-17.5-15.8-28.7c-35.9-43-109.1-43.2-162.4-21.1c-71.3,29.5-107.4,116.4-99.2,138.4c3.5-2.8,22.1-16.3,57.1-14.4
	c60.7,3.3,74,40.9,130.8,31.1c46.2-8,86.2-50.8,88-52.8c0.1-0.3,0.2-0.5,0.2-0.8c0.3-1,0.6-1.9,0.8-2.9
	C570.2,143.2,568.1,126.3,566.8,110.2z M502.5,124.4c-23.9,4.7-33.7,3.8-61.9,3.7c-43.8-0.2-68.1,14.6-94.2,29.3
	c25.5-19.6,47.6-30.2,70.9-34.2c44-7.5,62.3-4,60.4-15.6c-2.5-2.1-4.3-5.2-4.9-8.7c-0.2-1-0.2-2.1-0.2-3.1v0
	c-0.1-0.3-0.3-0.6-0.5-0.8c-5.2-9.2-0.3-14.4-2.4-24.5C502.1,64.9,523.1,120.3,502.5,124.4z"/>
<path fill="#212121" d="M502.5,124.4c-23.9,4.7-33.7,3.8-61.9,3.7c-43.8-0.2-68.1,14.6-94.2,29.3c25.5-19.6,47.6-30.2,70.9-34.2
	c44-7.5,62.3-4,60.4-15.6c3.2,2.8,7.6,4.2,12.1,3.4c8-1.3,13.4-8.9,12.1-16.9c-1.3-8-9-13.4-17-12.1c-6.9,1.2-11.9,7.1-12.3,13.8
	c-0.1-0.3-0.3-0.6-0.5-0.8c-5.2-9.2-0.3-14.4-2.4-24.5C502.1,64.9,523.1,120.3,502.5,124.4z"/>
<path fill="#141313" d="M488.9,106.4c-5.5,0.9-10.7-2.8-11.6-8.3c-0.9-5.5,2.8-10.7,8.3-11.6c5.5-0.9,10.7,2.8,11.6,8.3
	S494.4,105.5,488.9,106.4z"/>
<ellipse transform="matrix(0.4191 -0.9079 0.9079 0.4191 196.9677 491.1795)" fill="#EFEAEA" cx="482.3" cy="91.7" rx="3.6" ry="3.1"/>
<path fill="#FF4E00" d="M523.8,873.2c-13.6-6.6-26.8-14.8-37.4-25.2c0,0,0,0,0,0c-3.3-4.9-11.1-11.1-12-21c-0.4-4.8,0.1-10,0.8-14.9
	c2.3-15.6,6.7-29.4-12.5-27.5c-21.3,2.2-10.6,14.3-7.1,31.7c0.3,1.6,0.6,3.3,0.8,5.1c0.9,9.4-7.2,31.9-7.6,32.9
	c-1.5,3.7-1.8,10.3-1.3,18.1c2,28.2,15.1,73.4,23.1,68.2c27.4-18,53.3-2.8,67.1-15c20.5-18,38-11.9,53.2-18.4
	C611.1,898.5,565.9,893.7,523.8,873.2z M486.8,919.1c-16.3,2-16.3,19.5-22.6-7.4c-2.4-10.2-3.7-30.9,2.5-34.9
	c6.2-4.1,25.5,10.8,43.1,30.8C524.8,924.6,498.6,917.6,486.8,919.1z M550.4,904.3c-8.1,0-15.9,12.2-22.7,6.3
	c-14.8-12.9-37.3-32.1-35.1-35.5c4.5-6.9,38,15,84,23.2C595.1,901.7,570.6,904.3,550.4,904.3z"/>
<path fill="#FF4E00" d="M509.8,907.5c15,17.1-11.2,10.1-23,11.6c-16.3,2-16.3,19.5-22.6-7.4c-2.4-10.2-3.7-30.9,2.5-34.9
	C472.9,872.6,492.3,887.5,509.8,907.5z"/>
<path fill="#FF4E00" d="M550.4,904.3c-8.1,0-15.9,12.2-22.7,6.3c-14.8-12.9-37.3-32.1-35.1-35.5c4.5-6.9,38,15,84,23.2
	C595.1,901.7,570.6,904.3,550.4,904.3z"/>
<path opacity="0.1" d="M486.8,919.1c-16.3,2-16.3,19.5-22.6-7.4c-2.4-10.2-3.7-30.9,2.5-34.9c6.2-4.1,25.5,10.8,43.1,30.8
	C524.8,924.6,498.6,917.6,486.8,919.1z"/>
<path opacity="0.1" d="M300.1,918.8c-11.4-1.2-43.1,16.3-28.9-3.9c16.1-23,17.1-41.5,41.1-22.9c11.1,8.6,16.2,14.2,17.8,25.9
	C333,938.6,313.3,920.2,300.1,918.8z"/>
<path opacity="0.1" d="M550.4,904.3c-8.1,0-15.9,12.2-22.7,6.3c-14.8-12.9-37.3-32.1-35.1-35.5c4.5-6.9,38,15,84,23.2
	C595.1,901.7,570.6,904.3,550.4,904.3z"/>
<path opacity="0.1" d="M265.8,906.1c-12.7,24.5-5.9,9.3-26.5,6.1c-13.8-2.1-38.1,15.4-18.6-5c16.4-17.3,44.6-28,51.5-24
	C279.1,887.2,273.2,892,265.8,906.1z"/>
</svg>
