<?xml version="1.0" encoding="utf-8"?>
<!-- Generator: Adobe Illustrator 21.0.1, SVG Export Plug-In . SVG Version: 6.00 Build 0)  -->
<!DOCTYPE svg PUBLIC "-//W3C//DTD SVG 1.1//EN" "http://www.w3.org/Graphics/SVG/1.1/DTD/svg11.dtd">
<svg version="1.1" id="Calque_1" xmlns="http://www.w3.org/2000/svg" xmlns:xlink="http://www.w3.org/1999/xlink" x="0px" y="0px"
	 viewBox="0 0 1249 446" enable-background="new 0 0 1249 446" xml:space="preserve">
<path fill="#072249" d="M623.3,337.9c0,4.9-0.7,9.3-2.2,13.2c-1.5,3.9-3.5,7.3-6.1,10c-2.6,2.7-5.8,4.9-9.6,6.4
	c-3.8,1.5-8,2.2-12.6,2.2c-4.6,0-8.8-0.8-12.6-2.2c-3.8-1.5-7-3.6-9.6-6.4c-2.6-2.7-4.6-6.1-6.1-10c-1.5-3.9-2.2-8.3-2.2-13.2
	s0.7-9.3,2.2-13.2c1.5-3.9,3.5-7.3,6.2-10c2.7-2.7,5.9-4.9,9.6-6.4c3.8-1.5,7.9-2.2,12.5-2.2c4.5,0,8.7,0.8,12.5,2.2
	c3.8,1.5,7,3.6,9.6,6.4c2.7,2.8,4.7,6.1,6.2,10C622.6,328.7,623.3,333.1,623.3,337.9z M592.9,316.9c-5.1,0-9.2,1.8-12.2,5.5
	c-3,3.7-4.5,8.9-4.5,15.5c0,6.7,1.5,11.8,4.4,15.5c2.9,3.6,7,5.5,12.3,5.5c5.3,0,9.4-1.8,12.3-5.5c2.9-3.6,4.4-8.8,4.4-15.5
	c0-6.6-1.5-11.7-4.4-15.5C602.2,318.7,598.1,316.9,592.9,316.9z"/>
<path fill="#072249" d="M651,311.6h24.3c0.3,0.5,0.7,1.2,1,2.1c0.3,0.9,0.4,1.9,0.4,3.1c0,3.6-1.6,5.4-4.9,5.4h-20.4v45.5
	c-0.6,0.3-1.4,0.5-2.5,0.7c-1.1,0.2-2.2,0.3-3.5,0.3c-2.5,0-4.3-0.5-5.5-1.4c-1.2-0.9-1.8-2.5-1.8-4.8V304c0-3.9,0.6-7.3,1.7-10.1
	c1.2-2.8,2.8-5.1,4.9-6.9c2.1-1.8,4.7-3.1,7.8-4c3-0.9,6.4-1.3,10.1-1.3c5.3,0,9.4,0.7,12.2,2.1c2.8,1.4,4.2,3.3,4.2,5.8
	c0,1.2-0.2,2.2-0.7,3.1c-0.5,0.9-1,1.7-1.7,2.4c-1.6-0.7-3.5-1.3-5.6-1.8c-2.1-0.5-4.3-0.8-6.5-0.8c-4.8,0-8.2,0.9-10.3,2.8
	c-2.1,1.9-3.1,5-3.1,9.2V311.6z"/>
<path fill="#072249" d="M760.8,364v35.9c-1.4,0.4-3.3,0.7-5.8,1c-2.5,0.3-5.1,0.5-7.8,0.5c-5.8,0-9.9-1-12.2-3
	c-2.3-2-3.4-5.6-3.4-10.8v-90.2c0-2.5,0.7-4.4,2-5.8c1.3-1.4,3.2-2.4,5.7-3.2c2-0.7,4.2-1.4,6.8-1.9c2.5-0.5,5.1-0.9,7.8-1.3
	c2.7-0.4,5.3-0.6,8-0.7c2.7-0.1,5.2-0.2,7.5-0.2c16.9,0,29.6,3.6,38.3,10.7c8.7,7.1,13,16.9,13,29.3c0,6-1.1,11.4-3.3,16.3
	c-2.2,4.9-5.3,9.1-9.4,12.6c-4.1,3.5-9.1,6.1-15,8c-5.9,1.9-12.6,2.8-20,2.8H760.8z M771.2,341.1c6.1,0,10.9-1.4,14.5-4.2
	c3.6-2.8,5.4-7,5.4-12.6c0-11-6.6-16.6-19.7-16.6c-2.2,0-4.2,0.1-5.9,0.2c-1.7,0.1-3.3,0.3-4.9,0.6v32.6H771.2z"/>
<path fill="#072249" d="M861.2,399.9c-1.2,0.4-3,0.7-5.2,1c-2.2,0.3-4.7,0.5-7.4,0.5c-5.6,0-9.6-0.9-12.1-2.7
	c-2.5-1.8-3.7-5.3-3.7-10.5v-56.7c0-3.5,0.9-6.4,2.6-8.9c1.7-2.5,4.2-4.6,7.3-6.5c4.1-2.5,9-4.4,14.8-5.9c5.8-1.4,11.8-2.1,18.1-2.1
	c12.9,0,19.3,4.3,19.3,13c0,2.1-0.3,4-0.9,5.8c-0.6,1.7-1.3,3.2-2,4.5c-2.9-0.6-6.3-0.9-10.4-0.9c-3.6,0-7.2,0.4-10.8,1.3
	c-3.6,0.9-6.8,2-9.5,3.5V399.9z"/>
<path fill="#072249" d="M929.1,367.2c1.7,5.2,4.8,8.9,9.1,11.1c4.3,2.2,9.4,3.3,15.1,3.3c5.2,0,10.1-0.7,14.7-2.1
	c4.6-1.4,8.3-3,11.2-4.7c1.9,1.2,3.4,2.9,4.7,4.8c1.2,2,1.9,4.2,1.9,6.5c0,2.9-0.9,5.3-2.6,7.4c-1.7,2.1-4.1,3.9-7.2,5.3
	c-3,1.4-6.6,2.5-10.8,3.2c-4.2,0.7-8.7,1-13.7,1c-7.3,0-14.1-1-20.3-3.1c-6.2-2-11.5-5.1-16-9.1c-4.5-4-8-9.1-10.5-15.2
	c-2.5-6.1-3.8-13.2-3.8-21.4c0-7.9,1.3-14.8,3.8-20.6c2.5-5.8,6-10.7,10.2-14.5c4.3-3.8,9.2-6.7,14.7-8.5c5.5-1.8,11.2-2.7,17-2.7
	c6.3,0,12.1,1,17.4,2.9c5.3,1.9,9.8,4.6,13.6,8.1c3.8,3.5,6.7,7.6,8.8,12.5c2.1,4.8,3.2,10.1,3.2,15.8c0,4-1.1,6.9-3.2,8.9
	c-2.1,2-5.1,3.3-8.9,3.9L929.1,367.2z M946.8,328.8c-5.3,0-9.8,1.6-13.3,4.9c-3.5,3.3-5.6,8-6.2,14.2l35.5-5.8
	c-0.2-3.2-1.7-6.3-4.3-9.1C955.9,330.3,952,328.8,946.8,328.8z"/>
<path fill="#072249" d="M1079.4,373.9c0,9.2-3.4,16.3-10.2,21.5c-6.8,5.1-16.9,7.7-30.1,7.7c-5.2,0-10-0.4-14.2-1.1
	c-4.3-0.7-8-1.9-11.1-3.3c-3.1-1.5-5.5-3.3-7.3-5.6c-1.7-2.2-2.6-4.8-2.6-7.8c0-2.7,0.6-5.1,1.7-7c1.1-1.9,2.5-3.5,4.3-4.7
	c3.6,2.1,7.7,4,12.3,5.6c4.6,1.6,9.9,2.4,16,2.4c8.8,0,13.2-2.5,13.2-7.4c0-2.1-0.8-3.7-2.3-4.8c-1.6-1.1-4.2-2.1-7.9-3l-7.4-1.7
	c-10.2-2.1-17.7-5.4-22.7-9.8c-5-4.4-7.4-10.6-7.4-18.5c0-8.8,3.6-15.8,10.7-20.9c7.1-5.1,16.7-7.7,28.7-7.7c4.5,0,8.7,0.3,12.6,1
	c4,0.7,7.4,1.7,10.2,3.1c2.9,1.4,5.1,3.1,6.8,5.1c1.7,2,2.5,4.4,2.5,7.2c0,2.5-0.5,4.7-1.5,6.6c-1,1.9-2.3,3.5-3.9,4.7
	c-1-0.6-2.5-1.3-4.4-2c-1.9-0.7-4-1.4-6.2-2c-2.2-0.6-4.6-1.1-7.1-1.5c-2.5-0.4-4.8-0.6-6.9-0.6c-4.3,0-7.7,0.6-10.1,1.8
	c-2.4,1.2-3.6,2.9-3.6,5.3c0,1.7,0.7,3.1,2,4.1c1.4,1,3.8,1.9,7.4,2.8l7.1,1.7c11.3,2.5,19.3,6.1,24.2,10.8
	C1077,360.3,1079.4,366.4,1079.4,373.9z"/>
<path fill="#072249" d="M1127.7,378c2.2,1.6,5.3,2.3,9.3,2.3c1.9,0,3.8-0.2,6-0.7c2.1-0.4,3.9-1,5.4-1.6c1.1,1.2,2,2.7,2.8,4.3
	c0.7,1.6,1.1,3.5,1.1,5.6c0,4.3-1.7,7.9-5.1,10.7c-3.4,2.8-9.3,4.2-17.8,4.2c-10.4,0-18.5-2.4-24.4-7.2c-5.8-4.8-8.7-12.6-8.7-23.3
	v-83.5c1.4-0.4,3.2-0.8,5.4-1.2c2.2-0.4,4.7-0.7,7.3-0.7c5.5,0,9.4,1,11.8,2.9c2.4,1.9,3.6,5.4,3.6,10.5v12.1h25.7
	c0.6,1.2,1.2,2.8,1.9,4.7c0.6,1.9,0.9,3.9,0.9,6c0,4-0.9,6.8-2.7,8.6c-1.8,1.7-4.1,2.6-7,2.6h-18.8v36.1
	C1124.4,374,1125.5,376.5,1127.7,378z"/>
<path fill="#072249" d="M1205.1,307.8c6.4,0,12.3,0.7,17.6,2c5.3,1.3,9.8,3.3,13.5,6c3.7,2.7,6.6,6.2,8.6,10.4
	c2,4.2,3.1,9.2,3.1,14.9v42c0,3.2-0.8,5.8-2.5,7.7c-1.7,1.9-3.7,3.6-6,4.9c-3.8,2.4-8.6,4.2-14.1,5.4s-11.9,1.9-19,1.9
	c-12.8,0-22.9-2.4-30.5-7.3c-7.6-4.9-11.3-12.4-11.3-22.4c0-8.6,2.5-15.1,7.6-19.5c5.1-4.5,12.9-7.3,23.4-8.4l24.7-2.6v-2
	c0-4-1.6-6.9-4.8-8.7c-3.2-1.9-7.9-2.8-14-2.8c-4.7,0-9.3,0.6-13.9,1.7c-4.5,1.1-8.6,2.4-12.2,3.9c-1.5-1-2.8-2.5-3.8-4.6
	c-1.1-2-1.6-4.2-1.6-6.6c0-5.5,2.9-9.4,8.6-11.7c3.6-1.4,7.8-2.4,12.6-3.1C1195.8,308.2,1200.5,307.8,1205.1,307.8z M1206.2,382
	c2.7,0,5.4-0.3,8.1-0.8c2.7-0.6,4.7-1.3,6-2.1v-17.1l-15.3,1.3c-4,0.4-7.2,1.3-9.6,2.7c-2.4,1.4-3.6,3.6-3.6,6.4
	c0,3,1.1,5.3,3.3,7.1C1197.5,381.2,1201.1,382,1206.2,382z"/>
<path fill="#072249" d="M650.2,43c0.8,1.4,1.6,3.2,2.3,5.5c0.7,2.2,1.1,4.7,1.1,7.4c0,4.6-1,8.1-3,10.3c-2,2.2-4.9,3.4-8.5,3.4
	h-46.6V97h47.7c0.8,1.5,1.6,3.4,2.4,5.5c0.8,2.1,1.2,4.6,1.2,7.4c0,4.6-1.1,8-3.2,10.2c-2.1,2.2-4.9,3.3-8.4,3.3h-39.3v46.8
	c-1.5,0.4-3.7,0.8-6.5,1.2c-2.8,0.3-5.7,0.5-8.8,0.5c-6.6,0-11.2-1.1-13.8-3.4c-2.6-2.2-3.9-6.3-3.9-12.2V60.4
	c0-5.3,1.6-9.6,4.7-12.7c3.2-3.2,7.4-4.7,12.7-4.7H650.2z"/>
<path fill="#072249" d="M698.9,170.1c-1.4,0.4-3.4,0.8-5.9,1.2c-2.5,0.3-5.3,0.5-8.4,0.5c-6.3,0-10.9-1-13.7-3
	c-2.8-2-4.2-6-4.2-11.9V92.8c0-3.9,1-7.3,2.9-10.1c2-2.8,4.7-5.3,8.2-7.4c4.6-2.8,10.2-5,16.7-6.6c6.5-1.6,13.3-2.4,20.5-2.4
	c14.6,0,21.8,4.9,21.8,14.7c0,2.4-0.4,4.6-1,6.5c-0.7,2-1.5,3.6-2.3,5c-3.2-0.7-7.1-1.1-11.8-1.1c-4.1,0-8.1,0.5-12.2,1.5
	c-4.1,1-7.6,2.3-10.7,4V170.1z"/>
<path fill="#072249" d="M751,40.2c0-4.8,1.6-8.8,4.9-12.2c3.3-3.4,7.6-5,12.9-5c5.3,0,9.6,1.7,12.9,5c3.3,3.4,4.9,7.4,4.9,12.2
	c0,4.9-1.6,9-4.9,12.4c-3.3,3.4-7.6,5-12.9,5c-5.3,0-9.6-1.7-12.9-5C752.7,49.3,751,45.1,751,40.2z M784.8,170.1
	c-1.4,0.4-3.4,0.8-5.9,1.2c-2.5,0.3-5.3,0.5-8.4,0.5c-6.3,0-10.8-1-13.5-3s-4.1-6-4.1-11.9V70.5c1.4-0.4,3.4-0.8,5.9-1.3
	c2.5-0.4,5.3-0.6,8.4-0.6c6.3,0,10.8,1,13.5,3.2c2.7,2.1,4.1,6.1,4.1,12V170.1z"/>
<path fill="#072249" d="M836.7,133.1c2,5.9,5.4,10.1,10.3,12.5c4.9,2.5,10.6,3.7,17,3.7c5.9,0,11.4-0.8,16.6-2.4
	c5.2-1.6,9.4-3.4,12.6-5.4c2.1,1.4,3.9,3.2,5.3,5.5c1.4,2.2,2.1,4.7,2.1,7.4c0,3.2-1,6-2.9,8.4c-2,2.4-4.7,4.4-8.1,6
	c-3.4,1.6-7.5,2.8-12.2,3.6c-4.7,0.8-9.8,1.2-15.4,1.2c-8.3,0-15.9-1.2-22.9-3.5c-7-2.3-13-5.7-18.1-10.3c-5-4.5-9-10.3-11.9-17.1
	c-2.9-6.9-4.3-14.9-4.3-24.2c0-9,1.4-16.7,4.3-23.3c2.9-6.6,6.7-12,11.6-16.4c4.8-4.3,10.4-7.5,16.6-9.6c6.2-2,12.6-3,19.2-3
	c7.1,0,13.7,1.1,19.6,3.3c6,2.2,11.1,5.2,15.3,9.1c4.3,3.9,7.6,8.6,10,14.1c2.4,5.5,3.6,11.4,3.6,17.9c0,4.5-1.2,7.8-3.6,10.1
	c-2.4,2.2-5.7,3.7-10.1,4.4L836.7,133.1z M856.7,89.8c-6,0-11,1.9-15,5.6c-4,3.7-6.3,9.1-7,16.1l40.1-6.5c-0.3-3.6-1.9-7.1-4.8-10.3
	C867,91.4,862.6,89.8,856.7,89.8z"/>
<path fill="#072249" d="M984.4,94.9c-2.9-2.4-6.9-3.6-11.8-3.6c-3.4,0-6.4,0.4-9.2,1.3c-2.8,0.8-5.4,1.9-7.8,3.2v74.4
	c-1.4,0.4-3.4,0.8-5.9,1.2c-2.5,0.3-5.3,0.5-8.4,0.5c-6.3,0-10.9-1-13.7-3c-2.8-2-4.2-6-4.2-11.9V91.9c0-3.6,0.8-6.6,2.3-8.8
	c1.5-2.2,3.7-4.3,6.5-6.3c4.5-3.2,10.3-5.8,17.3-7.8c7.1-2,14.9-2.9,23.4-2.9c15.3,0,27.1,3.4,35.4,10.1
	c8.3,6.7,12.5,16.3,12.5,28.8v65.1c-1.5,0.4-3.6,0.8-6.1,1.2c-2.5,0.3-5.3,0.5-8.4,0.5c-6.3,0-10.8-1-13.5-3c-2.7-2-4.1-6-4.1-11.9
	v-51C988.8,100.9,987.3,97.2,984.4,94.9z"/>
<path fill="#072249" d="M1093,66.1c3.2,0,6.3,0.2,9.1,0.7c2.9,0.5,5.5,1.2,7.9,2V33.5c1.5-0.4,3.6-0.8,6.1-1.3
	c2.5-0.4,5.3-0.6,8.4-0.6c6.3,0,10.8,1.1,13.5,3.2c2.7,2.1,4.1,6.1,4.1,12v102.3c0,3.4-0.7,6.2-2.1,8.5c-1.4,2.3-3.6,4.4-6.7,6.4
	c-3.9,2.4-9,4.6-15.1,6.5c-6.2,2-13.2,2.9-21.2,2.9c-17.6,0-31.5-4.4-41.7-13.3c-10.2-8.9-15.2-22.2-15.2-40
	c0-9.2,1.4-17.2,4.1-23.9c2.7-6.7,6.5-12.3,11.2-16.8c4.8-4.5,10.4-7.8,16.8-10C1078.7,67.2,1085.6,66.1,1093,66.1z M1110.2,94.4
	c-1.8-0.8-3.8-1.6-6-2.2c-2.2-0.6-4.4-0.9-6.8-0.9c-7.6,0-13.6,2.3-18.1,6.9c-4.5,4.6-6.7,12-6.7,22.1c0,9.7,2.1,16.7,6.4,21.1
	c4.3,4.4,10.2,6.6,17.8,6.6c2.9,0,5.6-0.3,7.9-0.9c2.3-0.6,4.2-1.4,5.6-2.2V94.4z"/>
<path fill="#072249" d="M1249.1,140.6c0,10.4-3.9,18.5-11.6,24.3c-7.7,5.8-19,8.7-34,8.7c-5.9,0-11.2-0.4-16.1-1.3s-9-2.1-12.5-3.8
	c-3.5-1.7-6.2-3.8-8.2-6.3c-2-2.5-2.9-5.5-2.9-8.8c0-3.1,0.6-5.7,1.9-7.9c1.3-2.2,2.9-4,4.8-5.4c4.1,2.4,8.7,4.5,13.9,6.3
	c5.2,1.8,11.2,2.7,18.1,2.7c9.9,0,14.9-2.8,14.9-8.4c0-2.4-0.9-4.2-2.6-5.5c-1.8-1.3-4.7-2.4-8.9-3.4l-8.4-1.9
	c-11.5-2.4-20-6.1-25.6-11c-5.6-5-8.4-11.9-8.4-20.9c0-9.9,4-17.8,12.1-23.6c8.1-5.8,18.9-8.7,32.5-8.7c5,0,9.8,0.4,14.3,1.2
	c4.5,0.8,8.3,1.9,11.6,3.5c3.2,1.5,5.8,3.5,7.7,5.8s2.8,5,2.8,8.1c0,2.8-0.6,5.3-1.7,7.5c-1.1,2.2-2.6,4-4.4,5.4
	c-1.1-0.7-2.8-1.5-4.9-2.3c-2.2-0.8-4.5-1.6-7-2.3c-2.5-0.7-5.2-1.3-8-1.7c-2.8-0.4-5.4-0.6-7.8-0.6c-4.9,0-8.7,0.7-11.4,2
	c-2.7,1.3-4.1,3.3-4.1,6c0,2,0.8,3.5,2.3,4.6c1.5,1.1,4.3,2.2,8.4,3.2l8,1.9c12.7,2.8,21.8,6.9,27.3,12.2
	C1246.4,125.4,1249.1,132.2,1249.1,140.6z"/>
<path fill="#FF5E17" d="M620.1,425.4c-21.5,0-43-7-57.1-20.9c-1.2-1.2-1.2-3.2,0-4.4c1.2-1.2,3.2-1.2,4.4,0
	c25.6,25.3,79.9,25.3,105.6,0c1.2-1.2,3.2-1.2,4.4,0s1.2,3.2,0,4.4C663.1,418.4,641.6,425.4,620.1,425.4z"/>
<path fill="#FFFFFF" d="M292.6,137.9c-0.9-5.4-6-9-11.4-8.1c-5.4,0.9-9,6-8.1,11.4c0.9,5.4,6,9,11.4,8.1
	C289.9,148.5,293.6,143.3,292.6,137.9z M292.6,137.9c-0.9-5.4-6-9-11.4-8.1c-5.4,0.9-9,6-8.1,11.4c0.9,5.4,6,9,11.4,8.1
	C289.9,148.5,293.6,143.3,292.6,137.9z M443,183.1c-23.3,23.5-56.2,49.8-99.5,59.9c0,0,0.2-0.4,0.6-1.1c0-0.1,0.1-0.2,0.1-0.2
	c2.4-4.1,4.5-8,6.3-11.8c4.5-9.5,7-17.4,8.2-21.7c0.6-2.2,0.9-3.5,0.9-3.5c0.4-1.2,0.7-2.4,1-3.6c0.1-0.3,0.2-0.7,0.2-1
	c0.1-0.3,0.2-0.7,0.2-1c3-13.4,2.2-28.7,0-46v0h0c-0.2-0.2-0.4-0.4-0.5-0.6c-0.1-0.1-0.2-0.2-0.3-0.4c-7.3-8.2-9.7-16.7-14.7-27.3
	c-35.3-42.3-107.3-42.4-159.8-20.7c-70.2,29.1-105.7,114.5-97.6,136.1c0.3,0.7,0.6,1.3,0.9,1.9c12.1,19.4,128.5,74.2,190.3,50.9
	c31.5-11.9,49.3-32,63.8-49.8c0.1-0.1,0.1-0.2,0.2-0.2c-6.3,16.3-32.3,69.7,6.5,82.8c6.5,2.2,19.6,4.2,37,4
	c-16.5,25.3-38.7,46.5-64.8,61.9c-29.1,17.1-63,27-99.2,27c-17.6,0-34.6-2.3-50.7-6.6c-52-13.9-95.5-48.7-120.9-94.9
	c26.6,11.6,47.8,17.7,56.8,10.7c9-7,10.3-25.9-17.3-65.3c-26.4-37.7-58.4-89.2,3.9-160.1C151.7,37.8,233,34.7,291,64.6
	c1.7-0.5,16.7-4.3,37.9-6.4c13.1-1.3,28.5-1.8,44.6-0.5c-39.6-36-92.2-57.9-150-57.9C100.2-0.2,0.3,99.6,0.3,222.9
	S100.2,446,223.4,446s223.1-99.9,223.1-223.1C446.6,209.3,445.3,196,443,183.1z M280.5,125.3c7.9-1.3,15.4,4,16.7,11.9
	c1.3,7.9-4,15.3-11.9,16.7c-4.4,0.7-8.7-0.6-11.9-3.3v0c-2.5-2.1-4.2-5.1-4.8-8.5c-0.1-0.8-0.2-1.6-0.2-2.4c0-0.2,0-0.4,0-0.7
	C268.7,132.2,273.6,126.5,280.5,125.3z M284.5,149.4c5.4-0.9,9.1-6,8.1-11.4c-0.9-5.4-6-9-11.4-8.1c-5.4,0.9-9,6-8.1,11.4
	C274,146.6,279.1,150.3,284.5,149.4z M362.5,153.2c0.1,0,0.2,0,0.4,0.1c0.1,0,0.2,0,0.3,0c0,0,0.1,0,0.1,0c0,0,0,0,0,0
	c0,0,0.1,0,0.1,0c0.2,0,0.3,0,0.5,0.1l0.2,0c0.3,0,0.6,0.1,0.9,0.1c0.1,0,0.2,0,0.3,0c0.1,0,0.1,0,0.2,0c0.2,0,0.4,0,0.5,0.1
	c0.2,0,0.4,0.1,0.5,0.1c0,0,0,0,0,0c0.2,0,0.4,0,0.6,0.1c0.2,0,0.4,0.1,0.6,0.1c0.1,0,0.1,0,0.2,0c0.4,0,0.7,0.1,1.1,0.1
	c0.1,0,0.3,0,0.4,0.1c0.1,0,0.3,0,0.4,0.1h0.1c0.1,0,0.1,0,0.2,0c0,0,0,0,0.1,0c0.2,0,0.5,0.1,0.7,0.1c0.4,0,0.7,0.1,1.1,0.1
	c0.6,0.1,1.2,0.1,1.9,0.2c0.2,0,0.4,0,0.6,0.1c0.1,0,0.2,0,0.4,0c0.2,0,0.4,0,0.7,0.1h0.1c0.4,0,0.9,0.1,1.3,0.1c1,0.1,2,0.1,3,0.2
	c0.9,0.1,1.8,0.1,2.8,0.1c0.2,0,0.4,0,0.6,0c0.8,0,1.5,0,2.3,0c3.1,0,6.3,0,9.6-0.2c0.1,0,0.2,0,0.2,0
	C381.1,155.8,367,153.8,362.5,153.2z M422.5,122c-8.6,2.9-17.8,5.5-26.8,8.8c-1.5,0.6-3.1,1.2-4.6,1.8c0,0-0.1,0-0.1,0
	c-2.3,0.9-4.6,1.9-6.8,3c-0.4,0.2-0.9,0.4-1.3,0.7c-0.5,0.2-1,0.5-1.4,0.7c-0.4,0.2-0.8,0.4-1.2,0.6c-0.4,0.2-0.7,0.4-1.1,0.6
	c-0.6,0.3-1.2,0.7-1.7,1c-0.3,0.2-0.7,0.4-1,0.6c-0.1,0.1-0.2,0.2-0.4,0.2c-0.3,0.2-0.6,0.4-0.9,0.6c-0.2,0.2-0.5,0.3-0.8,0.5
	c-0.2,0.1-0.3,0.2-0.5,0.3c-0.2,0.1-0.4,0.2-0.5,0.4c-0.2,0.1-0.4,0.2-0.5,0.4c0,0,0,0,0,0c-0.1,0.1-0.2,0.1-0.2,0.2
	c-0.1,0.1-0.3,0.2-0.5,0.3c-0.1,0.1-0.2,0.1-0.2,0.2c-0.1,0-0.1,0.1-0.2,0.1c0,0,0,0,0,0c0,0-0.1,0.1-0.1,0.1c0,0-0.1,0-0.1,0.1
	c-0.2,0.1-0.4,0.3-0.5,0.4c-0.2,0.2-0.5,0.4-0.7,0.5c0,0,0,0,0,0c-0.4,0.3-0.8,0.6-1.2,1c-0.9,0.8-1.9,1.6-2.8,2.4
	c-0.5,0.4-1,0.9-1.4,1.4c9.6,1.5,36,4.3,67.8-3.7C429.7,137.2,426.3,129.5,422.5,122z M291,64.6c-0.1,0-0.2,0-0.2,0
	c0.1,0,0.2,0,0.3,0C291.1,64.7,291,64.6,291,64.6z"/>
<path fill="#FF4E00" d="M297.1,137.2c-1.3-7.9-8.8-13.2-16.7-11.9c-6.8,1.1-11.7,6.9-12.1,13.6c0,0.2,0,0.5,0,0.7
	c0,0.8,0.1,1.6,0.2,2.4c0.6,3.5,2.3,6.4,4.8,8.5v0c3.2,2.7,7.4,4.1,11.9,3.3C293.1,152.5,298.4,145.1,297.1,137.2z M273.1,141.2
	c-0.9-5.4,2.8-10.5,8.1-11.4c5.4-0.9,10.5,2.8,11.4,8.1c0.9,5.4-2.7,10.5-8.1,11.4C279.1,150.3,274,146.6,273.1,141.2z"/>
<path fill="#072249" d="M387,329.8c-16.5,25.3-38.7,46.5-64.8,61.9c-29.1,17.1-63,27-99.2,27c-17.6,0-34.6-2.3-50.7-6.6
	c-52-13.9-95.5-48.7-120.9-94.9c26.6,11.6,47.8,17.7,56.8,10.7c9-7,10.3-25.9-17.3-65.3c-26.4-37.7-58.4-89.2,3.9-160.1
	C151.7,37.8,233,34.7,291,64.6c-0.1,0-0.2,0-0.2,0c9.9,7.4,17.9,14.2,24.6,20.4c0.7,0.6,1.3,1.2,2,1.8
	c16.2,15.6,23.4,27.7,28.2,37.9c-35.3-42.3-107.3-42.4-159.8-20.7c-70.2,29.1-105.7,114.5-97.6,136.1c0.3,0.7,0.6,1.3,0.9,1.9
	c12.1,19.4,128.5,74.2,190.3,50.9c31.5-11.9,49.3-32,63.8-49.8c0.1-0.1,0.1-0.2,0.2-0.2c-6.3,16.3-32.3,69.7,6.5,82.8
	C356.5,328,369.6,330,387,329.8z"/>
<path fill="#072249" d="M291.1,64.7c-0.1,0-0.2,0-0.3,0c0,0,0.1,0,0.2,0C291,64.6,291.1,64.7,291.1,64.7z"/>
<g>
	<path fill="#E6E8EC" d="M359.6,204.7C326,240.6,273.8,271,224,252.3c-23.9-9-44.6-22.3-70.5-25.4c-21.4-2.6-47.8-0.9-65.3,13.4
		c6,15.8,35.9,26.3,49.6,32.4c28.5,12.6,59.2,22.3,90.3,25.3C287.8,303.5,345.7,263.8,359.6,204.7L359.6,204.7z"/>
</g>
<path fill="#212121" d="M473.5,129c-3.8,2.7-7.5,5.3-11.5,7.7c-7.7,4.5-15.9,8.2-24.5,11c-8.7,2.8-17.8,4.8-26.9,6
	c-9,1.2-18.1,1.8-27.2,1.5c-4.5-0.2-9-0.5-13.5-1c-3-0.3-5.9-0.9-8.9-1.1c0.6-0.8,1.3-1.5,2-2.3c0.4-0.4,0.8-0.9,1.3-1.3
	c0.3-0.3,0.4-0.5,0.9-0.5c0.8,0,1.7,0.3,2.5,0.4c2.2,0.3,4.5,0.5,6.8,0.7c6.3,0.5,12.7,0.7,19,0.5c17.4-0.5,34.7-3.5,51.2-9
	C454.7,138.3,464.4,134.1,473.5,129z"/>
<path fill="#212121" d="M395.5,155.1c-0.1,0-0.2,0-0.2,0c-3.3,0.2-6.5,0.3-9.6,0.2c-0.8,0-1.6,0-2.3,0c-0.2,0-0.4,0-0.6,0
	c-0.9,0-1.9-0.1-2.8-0.1c-1-0.1-2-0.1-3-0.2c-0.4,0-0.9-0.1-1.3-0.1h-0.1c-0.2,0-0.5,0-0.7-0.1c-0.1,0-0.3,0-0.4,0
	c-0.2,0-0.4,0-0.6-0.1c-0.6-0.1-1.3-0.1-1.9-0.2c-0.4,0-0.8-0.1-1.1-0.1c-0.7-0.1-1.3-0.2-2-0.2c-0.4,0-0.7-0.1-1.1-0.1
	c-0.1,0-0.1,0-0.2,0c-0.2,0-0.4,0-0.6-0.1c-0.2,0-0.4,0-0.6-0.1c-0.2,0-0.4,0-0.5-0.1c-0.2,0-0.4,0-0.5-0.1c-0.1,0-0.1,0-0.2,0
	c-0.1,0-0.2,0-0.3,0c-0.3,0-0.6-0.1-0.9-0.1l-0.2,0c-0.2,0-0.4,0-0.5-0.1c-0.1,0-0.1,0-0.2,0c0,0-0.1,0-0.1,0c-0.1,0-0.2,0-0.3,0
	c-0.1,0-0.2,0-0.4-0.1C367,153.8,381.1,155.8,395.5,155.1z"/>
<g>
	<path fill="#FF4E00" d="M464.3,97c0,0-12.6,13.6-33.5,21.9c-2.7,1.1-5.5,2.1-8.3,3c-8.6,2.9-17.8,5.5-26.8,8.8
		c-1.5,0.6-3.1,1.2-4.6,1.8c-8.1-14.6-21.7-30.3-39-43.1c-17.3-12.7-38.3-22.4-61.1-24.8c-0.1,0-0.1,0-0.2-0.1
		c1.7-0.5,16.7-4.3,37.9-6.4c13.1-1.3,28.5-1.8,44.6-0.5C405.1,60.3,439.6,70.3,464.3,97z"/>
	<path fill="#FF4E00" d="M291.1,64.7c-0.1,0-0.2,0-0.3,0c0,0,0.1,0,0.2,0C291,64.6,291.1,64.7,291.1,64.7z"/>
</g>
<g>
	<path fill="#FF4E00" d="M460,164.9c-12.1,13.6-24.9,26.7-39,38.2c-14.1,11.5-29.5,21.6-46.1,29.1c-10.1,4.6-20.7,8.2-31.5,10.8
		c6.7-11.9,12.9-24.4,16-37.7c0.2-1,1.4-1.6,2.2-2.3c1.2-1,2.5-2.1,3.7-3.1c2.6-2.2,5.2-4.4,7.7-6.6c5.2-4.7,10.3-9.6,14.5-15.3
		c5.1-6.7,9-14.5,10-22.9c-0.6,0-1.2,0.1-1.7,0.1c21.5-1.4,42.8-5.8,62-16c5.5-3,10.8-6.3,15.8-10.1c0.4,2.3,0.3,4.7,0,7
		c-0.6,5.9-2.5,11.7-5.2,17C466.1,157.3,463.3,161.2,460,164.9z"/>
	<path fill="#FF4E00" d="M360.6,201.1c-0.3,1.2-0.6,2.4-1,3.6c0,0-0.3,1.2-0.9,3.5c-1.2,4.3-3.7,12.2-8.2,21.7
		c-1.8,3.7-3.8,7.7-6.3,11.8c2.3-4.3,9.5-18.4,15.3-36.8c0.1-0.3,0.2-0.5,0.2-0.8C360.1,203,360.3,202.1,360.6,201.1z"/>
</g>
<g>
	<path fill="#FFD701" d="M397.5,155c-2,17.4-15.5,30.5-28,41.3c-3.3,2.8-6.6,5.6-9.9,8.4c3.9-12.7,3.9-26,2.8-39.1
		c-0.3-4.2-0.8-8.4-1.3-12.5c2.3,0.2,4.6,0.7,6.9,1c3.1,0.4,6.1,0.7,9.2,0.9C384,155.5,390.7,155.5,397.5,155z"/>
	<path fill="#FFD701" d="M361.1,153.1c2.2,17.3,3,32.6,0,46C363.8,186.4,362.7,173.3,361.1,153.1z"/>
	<path fill="#FFD701" d="M395.5,155.1c-0.1,0-0.2,0-0.2,0c-3.3,0.2-6.5,0.3-9.6,0.2c-0.8,0-1.6,0-2.3,0c-0.2,0-0.4,0-0.6,0
		c-0.9,0-1.9-0.1-2.8-0.1c-1,0-2-0.1-3-0.2c-0.4,0-0.9-0.1-1.3-0.1h-0.1c-0.2,0-0.5,0-0.7-0.1c-0.1,0-0.2,0-0.4,0
		c-0.2,0-0.4,0-0.6-0.1c-0.6-0.1-1.3-0.1-1.9-0.2c-0.4,0-0.8-0.1-1.1-0.1c-0.2,0-0.5,0-0.7-0.1c-0.1,0-0.2,0-0.3,0
		c-0.7-0.1-1.3-0.2-2-0.2c-0.1,0-0.1,0-0.2,0c-0.4,0-0.8-0.1-1.2-0.2c0,0,0,0,0,0c-0.4,0-0.7-0.1-1.1-0.1c-0.1,0-0.1,0-0.2,0
		c-0.3,0-0.5-0.1-0.8-0.1c-0.2,0-0.5-0.1-0.7-0.1c-0.2,0-0.4,0-0.5-0.1c0,0-0.1,0-0.1,0s-0.1,0-0.1,0c-0.1,0-0.2,0-0.3,0
		c-0.3,0-0.5-0.1-0.7-0.1c0.1,0,0.2,0,0.3,0C367,153.8,381.1,155.8,395.5,155.1z"/>
</g>
<g>
	<path fill="#FFD701" d="M370.4,144.1c0.2-0.2,0.4-0.3,0.7-0.5C370.8,143.8,370.6,144,370.4,144.1c-0.4,0.4-0.8,0.7-1.2,1
		C369.5,144.8,369.9,144.5,370.4,144.1z"/>
	<path fill="#FFD701" d="M371.6,143.2c0.1-0.1,0.2-0.2,0.3-0.2C371.8,143,371.7,143.1,371.6,143.2
		C371.6,143.2,371.6,143.2,371.6,143.2z"/>
	<path fill="#FFD701" d="M391.1,132.5c-9.8,3.9-19.3,9.3-26.8,16.9c-1,1-1.9,2-2.8,3c-0.6,0.7-0.5,0.7-1,0c-0.5-0.5-0.9-1.1-1.4-1.6
		c-1.5-1.9-2.9-3.9-4.2-5.9c-2.5-4.2-4.4-8.7-6.4-13.2c-3.1-7.2-6.6-14.3-11-20.9c-5.4-8.2-12-15.6-19-22.5
		c-8.7-8.6-18.2-16.3-27.9-23.6c16.6,1.5,32.8,7.4,47.2,15.6c14.5,8.2,27.6,19,38.5,31.6C382,118.2,387,125.1,391.1,132.5z"/>
	<path fill="#FFD701" d="M369.1,145.1c0.4-0.3,0.8-0.7,1.2-1c0,0,0,0,0,0C369.9,144.5,369.5,144.8,369.1,145.1z"/>
	<path fill="#FFD701" d="M391.2,132.6c-6.3,2.6-12.6,5.7-18.2,9.7c-0.4,0.3-0.9,0.6-1.3,0.9c0,0-0.1,0-0.1,0.1c0,0,0.1,0,0.1-0.1
		c0.1-0.1,0.2-0.2,0.3-0.2c0.1-0.1,0.1-0.1,0.2-0.2c0,0,0,0,0,0c0.2-0.1,0.3-0.2,0.5-0.3c0.1-0.1,0.2-0.1,0.2-0.2
		c0.2-0.1,0.4-0.3,0.6-0.4c0.6-0.4,1.2-0.8,1.7-1.2c0.2-0.1,0.4-0.2,0.6-0.4c0.1-0.1,0.2-0.1,0.3-0.2c0.1-0.1,0.2-0.2,0.4-0.2
		c0.3-0.2,0.7-0.4,1-0.6c0.6-0.3,1.1-0.7,1.7-1c0.4-0.2,0.7-0.4,1.1-0.6c0.4-0.2,0.8-0.4,1.2-0.6c0.5-0.2,0.9-0.5,1.4-0.7
		c0.4-0.2,0.9-0.5,1.3-0.7c2.2-1.1,4.5-2.1,6.8-3C391.1,132.6,391.1,132.6,391.2,132.6C391.1,132.5,391.1,132.6,391.2,132.6z"/>
</g>
<path fill="#212121" d="M284.5,149.4c-5.4,0.9-10.5-2.7-11.4-8.1c-0.9-5.4,2.8-10.5,8.1-11.4c5.4-0.9,10.5,2.8,11.4,8.1
	C293.6,143.3,289.9,148.5,284.5,149.4z"/>
<path fill="#212121" d="M297.9,167c-23.5,4.6-33.1,3.7-60.9,3.6c-43.1-0.1-66.9,14.4-92.7,28.8c25.1-19.3,46.8-29.7,69.7-33.6
	c43.2-7.4,61.3-3.9,59.4-15.3c3.2,2.7,7.4,4.1,11.9,3.3c7.9-1.3,13.2-8.8,11.9-16.7c-1.3-7.9-8.8-13.2-16.7-11.9
	c-6.8,1.1-11.7,6.9-12.1,13.6c-0.1-0.3-0.3-0.5-0.5-0.8c-5.2-9-0.3-14.2-2.3-24.2C297.5,108.5,318.1,163.1,297.9,167z"/>
<path fill="#141313" d="M284.5,149.4c-5.4,0.9-10.5-2.7-11.4-8.1c-0.9-5.4,2.8-10.5,8.1-11.4c5.4-0.9,10.5,2.8,11.4,8.1
	C293.6,143.3,289.9,148.5,284.5,149.4z"/>
<ellipse transform="matrix(0.4191 -0.9079 0.9079 0.4191 39.0678 330.7694)" fill="#EFEAEA" cx="278" cy="134.9" rx="3.5" ry="3.1"/>
</svg>
