<?xml version="1.0" encoding="utf-8"?>
<!-- Generator: Adobe Illustrator 21.0.1, SVG Export Plug-In . SVG Version: 6.00 Build 0)  -->
<!DOCTYPE svg PUBLIC "-//W3C//DTD SVG 1.1//EN" "http://www.w3.org/Graphics/SVG/1.1/DTD/svg11.dtd">
<svg version="1.1" id="Calque_1" xmlns="http://www.w3.org/2000/svg" xmlns:xlink="http://www.w3.org/1999/xlink" x="0px" y="0px"
	 viewBox="0 0 1676 282" enable-background="new 0 0 1676 282" xml:space="preserve">
<rect x="-1" y="-0.1" fill="#072249" width="1677" height="282.1"/>
<path fill="#FFFFFF" d="M368.3,84c0.7,1.2,1.4,2.8,2,4.7c0.6,1.9,0.9,4.1,0.9,6.4c0,4-0.9,7-2.6,8.9c-1.8,1.9-4.2,2.9-7.4,2.9h-40.5
	v23.9h41.4c0.7,1.3,1.4,2.9,2.1,4.7c0.7,1.8,1,4,1,6.4c0,4-0.9,7-2.7,8.9c-1.8,1.9-4.3,2.8-7.3,2.8H321v40.7c-1.3,0.4-3.2,0.7-5.7,1
	c-2.4,0.3-5,0.5-7.7,0.5c-5.7,0-9.7-1-12-2.9c-2.3-1.9-3.4-5.5-3.4-10.6V99.1c0-4.6,1.4-8.3,4.1-11c2.7-2.7,6.4-4.1,11-4.1H368.3z"
	/>
<path fill="#FFFFFF" d="M410.6,194.4c-1.2,0.4-2.9,0.7-5.1,1c-2.2,0.3-4.6,0.5-7.3,0.5c-5.5,0-9.4-0.9-11.9-2.6
	c-2.4-1.8-3.7-5.2-3.7-10.3v-55.7c0-3.4,0.8-6.3,2.6-8.8c1.7-2.4,4.1-4.6,7.1-6.4c4-2.4,8.9-4.4,14.5-5.8c5.7-1.4,11.6-2.1,17.8-2.1
	c12.7,0,19,4.3,19,12.8c0,2.1-0.3,4-0.9,5.7c-0.6,1.7-1.3,3.2-2,4.4c-2.8-0.6-6.2-0.9-10.2-0.9c-3.5,0-7.1,0.4-10.6,1.3
	c-3.5,0.9-6.6,2-9.3,3.5V194.4z"/>
<path fill="#FFFFFF" d="M455.9,81.6c0-4.1,1.4-7.7,4.3-10.6c2.9-2.9,6.6-4.4,11.2-4.4c4.6,0,8.4,1.5,11.2,4.4
	c2.9,2.9,4.3,6.5,4.3,10.6c0,4.3-1.4,7.9-4.3,10.8c-2.9,2.9-6.6,4.4-11.2,4.4c-4.6,0-8.4-1.5-11.2-4.4
	C457.3,89.5,455.9,85.9,455.9,81.6z M485.3,194.4c-1.2,0.4-2.9,0.7-5.1,1c-2.2,0.3-4.6,0.5-7.3,0.5c-5.5,0-9.4-0.9-11.8-2.6
	c-2.4-1.8-3.6-5.2-3.6-10.3v-75c1.2-0.4,2.9-0.7,5.1-1.1c2.2-0.4,4.6-0.5,7.3-0.5c5.5,0,9.4,0.9,11.8,2.7s3.6,5.3,3.6,10.4V194.4z"
	/>
<path fill="#FFFFFF" d="M530.4,162.3c1.7,5.1,4.7,8.7,8.9,10.9c4.3,2.1,9.2,3.2,14.8,3.2c5.1,0,9.9-0.7,14.4-2.1
	c4.5-1.4,8.2-2.9,11-4.7c1.8,1.2,3.3,2.8,4.6,4.7c1.2,1.9,1.8,4.1,1.8,6.4c0,2.8-0.9,5.2-2.6,7.3c-1.7,2.1-4,3.8-7,5.2
	c-3,1.4-6.5,2.4-10.6,3.1c-4.1,0.7-8.6,1-13.4,1c-7.2,0-13.8-1-19.9-3c-6.1-2-11.3-5-15.7-8.9c-4.4-4-7.8-8.9-10.3-14.9
	c-2.5-6-3.7-13-3.7-21c0-7.8,1.2-14.5,3.7-20.3c2.5-5.7,5.8-10.5,10-14.2c4.2-3.8,9-6.5,14.4-8.3c5.4-1.8,11-2.6,16.7-2.6
	c6.2,0,11.9,0.9,17.1,2.8c5.2,1.9,9.6,4.5,13.3,7.9c3.7,3.4,6.6,7.5,8.7,12.2c2.1,4.7,3.1,9.9,3.1,15.5c0,3.9-1,6.8-3.1,8.8
	c-2.1,1.9-5,3.2-8.8,3.8L530.4,162.3z M547.7,124.7c-5.2,0-9.6,1.6-13.1,4.8c-3.5,3.2-5.5,7.9-6.1,14l34.9-5.7
	c-0.2-3.2-1.6-6.1-4.2-8.9C556.7,126.1,552.9,124.7,547.7,124.7z"/>
<path fill="#FFFFFF" d="M658.7,129.1c-2.6-2.1-6-3.1-10.2-3.1c-2.9,0-5.6,0.4-8,1.1c-2.4,0.7-4.7,1.6-6.8,2.7v64.6
	c-1.2,0.4-2.9,0.7-5.1,1c-2.2,0.3-4.6,0.5-7.3,0.5c-5.5,0-9.4-0.9-11.9-2.6c-2.4-1.8-3.7-5.2-3.7-10.3v-56.4c0-3.2,0.7-5.7,2-7.7
	c1.3-1.9,3.2-3.8,5.7-5.5c3.9-2.8,8.9-5,15.1-6.8c6.1-1.7,12.9-2.6,20.4-2.6c13.3,0,23.5,2.9,30.8,8.8c7.2,5.8,10.9,14.2,10.9,25
	v56.6c-1.3,0.4-3.1,0.7-5.3,1c-2.2,0.3-4.6,0.5-7.3,0.5c-5.5,0-9.4-0.9-11.8-2.6s-3.6-5.2-3.6-10.3v-44.4
	C662.6,134.3,661.3,131.2,658.7,129.1z"/>
<path fill="#FFFFFF" d="M753.1,104.1c2.8,0,5.4,0.2,7.9,0.6c2.5,0.4,4.8,1,6.8,1.7V75.8c1.3-0.4,3.1-0.7,5.3-1.1s4.6-0.5,7.3-0.5
	c5.5,0,9.4,0.9,11.8,2.7c2.4,1.8,3.6,5.3,3.6,10.4v88.9c0,2.9-0.6,5.4-1.8,7.4c-1.2,2-3.2,3.9-5.8,5.6c-3.4,2.1-7.8,4-13.1,5.7
	c-5.4,1.7-11.5,2.6-18.4,2.6c-15.3,0-27.4-3.9-36.2-11.6c-8.8-7.7-13.2-19.3-13.2-34.8c0-8,1.2-15,3.6-20.8
	c2.4-5.8,5.6-10.7,9.8-14.6c4.1-3.9,9-6.8,14.6-8.7C740.6,105,746.7,104.1,753.1,104.1z M768.1,128.7c-1.6-0.7-3.3-1.4-5.2-1.9
	c-1.9-0.5-3.9-0.8-5.9-0.8c-6.6,0-11.8,2-15.7,6c-3.9,4-5.8,10.4-5.8,19.2c0,8.4,1.9,14.5,5.6,18.3c3.7,3.8,8.9,5.8,15.4,5.8
	c2.6,0,4.8-0.3,6.8-0.8c2-0.5,3.6-1.2,4.8-1.9V128.7z"/>
<path fill="#FFFFFF" d="M888.8,168.9c0,9-3.3,16-10,21.1c-6.7,5-16.6,7.6-29.6,7.6c-5.1,0-9.8-0.4-14-1.1c-4.2-0.7-7.8-1.8-10.9-3.3
	c-3-1.5-5.4-3.3-7.1-5.5c-1.7-2.2-2.6-4.7-2.6-7.7c0-2.7,0.5-5,1.6-6.8c1.1-1.9,2.5-3.4,4.2-4.7c3.5,2.1,7.5,3.9,12,5.5
	c4.5,1.6,9.7,2.4,15.7,2.4c8.6,0,13-2.4,13-7.3c0-2.1-0.8-3.7-2.3-4.7c-1.5-1.1-4.1-2.1-7.8-2.9l-7.3-1.6c-10-2.1-17.4-5.3-22.3-9.6
	c-4.9-4.3-7.3-10.4-7.3-18.2c0-8.6,3.5-15.5,10.5-20.5c7-5,16.4-7.6,28.2-7.6c4.4,0,8.5,0.3,12.4,1c3.9,0.7,7.2,1.7,10,3
	c2.8,1.3,5,3,6.7,5c1.6,2,2.5,4.4,2.5,7c0,2.4-0.5,4.6-1.5,6.5c-1,1.9-2.3,3.4-3.8,4.7c-1-0.6-2.4-1.3-4.3-2c-1.9-0.7-3.9-1.4-6.1-2
	c-2.2-0.6-4.5-1.1-6.9-1.5c-2.4-0.4-4.7-0.5-6.8-0.5c-4.3,0-7.6,0.6-10,1.7c-2.4,1.2-3.6,2.9-3.6,5.2c0,1.7,0.7,3,2,4
	c1.3,1,3.8,1.9,7.3,2.7l6.9,1.6c11.1,2.4,19,6,23.7,10.6C886.4,155.6,888.8,161.6,888.8,168.9z"/>
<path fill="#FFFFFF" d="M996.6,133.6c0,4.8-0.7,9.1-2.1,13c-1.4,3.9-3.4,7.1-6,9.8c-2.6,2.7-5.7,4.8-9.4,6.2
	c-3.7,1.5-7.8,2.2-12.4,2.2s-8.7-0.7-12.4-2.2c-3.7-1.5-6.8-3.5-9.4-6.2c-2.6-2.7-4.6-6-6-9.8c-1.4-3.9-2.1-8.2-2.1-13
	s0.7-9.1,2.1-13c1.4-3.9,3.4-7.1,6-9.8c2.6-2.7,5.8-4.8,9.5-6.2c3.7-1.5,7.8-2.2,12.2-2.2c4.5,0,8.5,0.7,12.2,2.2
	c3.7,1.5,6.8,3.6,9.5,6.3c2.6,2.7,4.6,6,6,9.8C995.9,124.5,996.6,128.8,996.6,133.6z M966.7,113c-5,0-9,1.8-12,5.4
	c-2.9,3.6-4.4,8.7-4.4,15.2c0,6.6,1.4,11.6,4.3,15.2c2.9,3.6,6.9,5.4,12.1,5.4c5.2,0,9.2-1.8,12.1-5.4c2.9-3.6,4.3-8.6,4.3-15.2
	c0-6.5-1.4-11.5-4.3-15.2C975.9,114.8,971.8,113,966.7,113z"/>
<path fill="#FFFFFF" d="M1023.8,107.8h23.8c0.3,0.5,0.7,1.2,0.9,2.1c0.3,0.9,0.4,1.9,0.4,3.1c0,3.5-1.6,5.3-4.8,5.3h-20v44.6
	c-0.6,0.3-1.4,0.5-2.5,0.7c-1.1,0.2-2.2,0.3-3.5,0.3c-2.4,0-4.2-0.5-5.4-1.4c-1.2-0.9-1.8-2.5-1.8-4.7v-57.5c0-3.9,0.6-7.2,1.7-10
	c1.1-2.8,2.8-5,4.9-6.8c2.1-1.8,4.6-3.1,7.6-3.9c3-0.8,6.3-1.3,9.9-1.3c5.2,0,9.2,0.7,12,2c2.8,1.3,4.2,3.2,4.2,5.7
	c0,1.2-0.2,2.2-0.7,3.1c-0.5,0.9-1,1.7-1.7,2.3c-1.6-0.7-3.4-1.3-5.5-1.8c-2.1-0.5-4.2-0.8-6.4-0.8c-4.7,0-8.1,0.9-10.1,2.8
	c-2,1.8-3,4.9-3,9.1V107.8z"/>
<path fill="#FFFFFF" d="M1131.5,159.2v35.2c-1.3,0.4-3.2,0.7-5.7,1c-2.4,0.3-5,0.5-7.7,0.5c-5.7,0-9.7-1-12-2.9
	c-2.3-1.9-3.4-5.5-3.4-10.6V93.8c0-2.4,0.6-4.3,1.9-5.7c1.3-1.3,3.1-2.4,5.6-3.1c1.9-0.7,4.2-1.3,6.7-1.8c2.5-0.5,5-0.9,7.7-1.3
	c2.6-0.4,5.2-0.6,7.9-0.7c2.6-0.1,5.1-0.2,7.4-0.2c16.6,0,29.1,3.5,37.6,10.5c8.5,7,12.8,16.6,12.8,28.8c0,5.8-1.1,11.2-3.2,16
	c-2.1,4.8-5.2,8.9-9.2,12.3c-4,3.4-8.9,6-14.7,7.9c-5.8,1.8-12.3,2.7-19.6,2.7H1131.5z M1141.7,136.7c6,0,10.7-1.4,14.2-4.1
	c3.5-2.7,5.3-6.8,5.3-12.3c0-10.8-6.5-16.2-19.4-16.2c-2.2,0-4.1,0.1-5.8,0.2c-1.6,0.1-3.3,0.3-4.8,0.5v31.9H1141.7z"/>
<path fill="#FFFFFF" d="M1230.1,194.4c-1.2,0.4-2.9,0.7-5.1,1c-2.2,0.3-4.6,0.5-7.3,0.5c-5.5,0-9.4-0.9-11.9-2.6
	c-2.4-1.8-3.7-5.2-3.7-10.3v-55.7c0-3.4,0.8-6.3,2.6-8.8c1.7-2.4,4.1-4.6,7.1-6.4c4-2.4,8.9-4.4,14.5-5.8c5.7-1.4,11.6-2.1,17.8-2.1
	c12.7,0,19,4.3,19,12.8c0,2.1-0.3,4-0.9,5.7c-0.6,1.7-1.3,3.2-2,4.4c-2.8-0.6-6.2-0.9-10.2-0.9c-3.5,0-7.1,0.4-10.6,1.3
	c-3.5,0.9-6.6,2-9.3,3.5V194.4z"/>
<path fill="#FFFFFF" d="M1296.7,162.3c1.7,5.1,4.7,8.7,8.9,10.9c4.3,2.1,9.2,3.2,14.8,3.2c5.1,0,9.9-0.7,14.4-2.1
	c4.5-1.4,8.2-2.9,11-4.7c1.8,1.2,3.3,2.8,4.6,4.7c1.2,1.9,1.8,4.1,1.8,6.4c0,2.8-0.9,5.2-2.6,7.3c-1.7,2.1-4,3.8-7,5.2
	c-3,1.4-6.5,2.4-10.6,3.1c-4.1,0.7-8.6,1-13.4,1c-7.2,0-13.8-1-19.9-3c-6.1-2-11.3-5-15.7-8.9c-4.4-4-7.8-8.9-10.3-14.9
	c-2.5-6-3.7-13-3.7-21c0-7.8,1.2-14.5,3.7-20.3c2.5-5.7,5.8-10.5,10-14.2c4.2-3.8,9-6.5,14.4-8.3c5.4-1.8,11-2.6,16.7-2.6
	c6.2,0,11.9,0.9,17.1,2.8c5.2,1.9,9.6,4.5,13.3,7.9c3.7,3.4,6.6,7.5,8.7,12.2c2.1,4.7,3.1,9.9,3.1,15.5c0,3.9-1,6.8-3.1,8.8
	c-2.1,1.9-5,3.2-8.8,3.8L1296.7,162.3z M1314.1,124.7c-5.2,0-9.6,1.6-13.1,4.8c-3.5,3.2-5.5,7.9-6.1,14l34.9-5.7
	c-0.2-3.2-1.6-6.1-4.2-8.9C1323,126.1,1319.2,124.7,1314.1,124.7z"/>
<path fill="#FFFFFF" d="M1444.2,168.9c0,9-3.3,16-10,21.1c-6.7,5-16.6,7.6-29.6,7.6c-5.1,0-9.8-0.4-14-1.1
	c-4.2-0.7-7.8-1.8-10.9-3.3c-3-1.5-5.4-3.3-7.1-5.5c-1.7-2.2-2.6-4.7-2.6-7.7c0-2.7,0.5-5,1.6-6.8c1.1-1.9,2.5-3.4,4.2-4.7
	c3.5,2.1,7.5,3.9,12,5.5c4.5,1.6,9.7,2.4,15.7,2.4c8.6,0,13-2.4,13-7.3c0-2.1-0.8-3.7-2.3-4.7c-1.5-1.1-4.1-2.1-7.8-2.9l-7.3-1.6
	c-10-2.1-17.4-5.3-22.3-9.6c-4.9-4.3-7.3-10.4-7.3-18.2c0-8.6,3.5-15.5,10.5-20.5c7-5,16.4-7.6,28.2-7.6c4.4,0,8.5,0.3,12.4,1
	c3.9,0.7,7.2,1.7,10,3c2.8,1.3,5,3,6.7,5c1.6,2,2.5,4.4,2.5,7c0,2.4-0.5,4.6-1.5,6.5c-1,1.9-2.3,3.4-3.8,4.7c-1-0.6-2.4-1.3-4.3-2
	c-1.9-0.7-3.9-1.4-6.1-2c-2.2-0.6-4.5-1.1-6.9-1.5c-2.4-0.4-4.7-0.5-6.8-0.5c-4.3,0-7.6,0.6-10,1.7c-2.4,1.2-3.6,2.9-3.6,5.2
	c0,1.7,0.7,3,2,4c1.3,1,3.8,1.9,7.3,2.7l6.9,1.6c11.1,2.4,19,6,23.7,10.6C1441.9,155.6,1444.2,161.6,1444.2,168.9z"/>
<path fill="#FFFFFF" d="M1491.7,173c2.2,1.5,5.2,2.3,9.1,2.3c1.8,0,3.8-0.2,5.8-0.6c2.1-0.4,3.8-0.9,5.3-1.6c1.1,1.2,2,2.6,2.7,4.2
	c0.7,1.6,1.1,3.4,1.1,5.5c0,4.3-1.7,7.8-5,10.5c-3.3,2.7-9.2,4.1-17.4,4.1c-10.2,0-18.2-2.3-23.9-7c-5.7-4.7-8.6-12.3-8.6-22.9v-82
	c1.3-0.4,3.1-0.8,5.3-1.2c2.2-0.4,4.6-0.6,7.1-0.6c5.4,0,9.2,0.9,11.6,2.8c2.4,1.9,3.6,5.3,3.6,10.3v11.9h25.2
	c0.6,1.2,1.2,2.8,1.8,4.7c0.6,1.9,0.9,3.9,0.9,5.9c0,3.9-0.9,6.7-2.6,8.4c-1.8,1.7-4,2.6-6.8,2.6h-18.4v35.4
	C1488.4,169,1489.5,171.5,1491.7,173z"/>
<path fill="#FFFFFF" d="M1567.6,104.1c6.3,0,12.1,0.6,17.3,1.9c5.2,1.3,9.6,3.3,13.2,5.9c3.7,2.7,6.5,6.1,8.5,10.2c2,4.1,3,9,3,14.6
	V178c0,3.2-0.8,5.7-2.5,7.6c-1.6,1.9-3.6,3.5-5.9,4.8c-3.8,2.3-8.4,4.1-13.9,5.3c-5.5,1.2-11.7,1.8-18.6,1.8
	c-12.5,0-22.5-2.4-29.9-7.2c-7.4-4.8-11.1-12.1-11.1-22c0-8.4,2.5-14.8,7.5-19.2c5-4.4,12.7-7.1,23-8.2l24.3-2.6v-2
	c0-3.9-1.6-6.8-4.7-8.6c-3.2-1.8-7.7-2.7-13.7-2.7c-4.6,0-9.2,0.5-13.6,1.6c-4.4,1.1-8.4,2.4-12,3.8c-1.5-1-2.7-2.5-3.7-4.5
	c-1-2-1.6-4.2-1.6-6.5c0-5.4,2.8-9.2,8.4-11.5c3.5-1.3,7.6-2.3,12.3-3C1558.5,104.4,1563.1,104.1,1567.6,104.1z M1568.7,176.9
	c2.7,0,5.3-0.3,7.9-0.8c2.6-0.5,4.6-1.2,5.9-2.1v-16.8l-15,1.3c-3.9,0.4-7,1.2-9.4,2.6c-2.4,1.4-3.6,3.5-3.6,6.3
	c0,2.9,1.1,5.2,3.3,6.9C1560.2,176.1,1563.7,176.9,1568.7,176.9z"/>
<path fill="#FF5E17" d="M993.5,219.4c-21.1,0-42.2-6.9-56.1-20.6c-1.2-1.2-1.2-3.1,0-4.3c1.2-1.2,3.1-1.2,4.3,0
	c25.2,24.8,78.4,24.8,103.6,0c1.2-1.2,3.1-1.2,4.3,0c1.2,1.2,1.2,3.1,0,4.3C1035.7,212.6,1014.6,219.4,993.5,219.4z"/>
<path fill="#FFFFFF" d="M209.4,108.6c-2.9,1-6.1,1.9-9.1,3c-0.5,0.2-1,0.4-1.6,0.6c0,0,0,0,0,0c-2.3,0.9-4.5,2.1-6.5,3.6
	c0,0,0,0,0,0c-0.3,0.2-0.6,0.5-0.9,0.7c-0.2,0.1-0.3,0.2-0.4,0.4c-0.3,0.3-0.7,0.6-1,0.9c3.3,0.5,12.3,1.5,23.1-1.3
	C211.8,113.8,210.7,111.2,209.4,108.6z M216.4,129.4c-8,8-19.1,17-33.9,20.4c-2.2,5.6-11,23.7,2.2,28.2c2.2,0.7,6.7,1.4,12.6,1.4
	c-5.6,8.6-13.2,15.8-22.1,21.1c-9.9,5.8-21.5,9.2-33.8,9.2c-6,0-11.8-0.8-17.3-2.3c-17.7-4.7-32.5-16.6-41.2-32.3
	c9.1,4,16.3,6,19.4,3.6c3.1-2.4,3.5-8.8-5.9-22.2c-9-12.8-19.9-30.4,1.3-54.5c19.4-22,47.1-23.1,66.8-12.9c0.6-0.2,5.7-1.5,12.9-2.2
	c4.4-0.4,9.7-0.6,15.2-0.2C179.2,74.5,161.3,67,141.6,67c-42,0-76,34-76,76c0,42,34,76,76,76c42,0,76-34,76-76
	C217.6,138.4,217.2,133.8,216.4,129.4z M165.2,114.1c-0.3-1.8-2.1-3.1-3.9-2.8c-0.7,0.1-1.3,0.4-1.7,0.8c-0.8,0.7-1.2,1.9-1.1,3
	c0.3,1.8,2.1,3.1,3.9,2.8C164.2,117.7,165.5,115.9,165.2,114.1z M165.2,114.1c-0.3-1.8-2.1-3.1-3.9-2.8c-0.7,0.1-1.3,0.4-1.7,0.8
	c-0.8,0.7-1.2,1.9-1.1,3c0.3,1.8,2.1,3.1,3.9,2.8C164.2,117.7,165.5,115.9,165.2,114.1z M200.2,119.9
	C200.2,119.9,200.1,119.9,200.2,119.9c-5.2,0.2-10.2-0.5-11.5-0.7c-0.1,0-0.2,0-0.2,0v0h0c-0.1-0.1-0.1-0.1-0.2-0.2
	c0,0-0.1-0.1-0.1-0.1c-2.5-2.8-3.3-5.7-5-9.3c-12-14.4-36.5-14.5-54.4-7.1c-23.9,9.9-36,39-33.2,46.4c0.1,0.2,0.2,0.4,0.3,0.6
	c4.1,6.6,43.8,25.3,64.8,17.3c10.7-4,16.8-10.9,21.7-17v0c0,0,0-0.1,0.1-0.1c0,0,0.1-0.1,0.2-0.4c0-0.1,0.1-0.1,0.1-0.2
	c0.8-1.6,3.2-6.3,5.2-12.4l0,0c0,0,0,0,0,0c3.9-3.3,9.4-7.5,11.8-12.9c0.6-1.3,1-2.6,1.1-4.1C200.7,119.9,200.4,119.9,200.2,119.9z
	 M161,109.8c2.7-0.5,5.2,1.4,5.7,4c0.4,2.7-1.4,5.2-4,5.7c-1.5,0.2-3-0.2-4-1.1v0c-0.8-0.7-1.4-1.7-1.6-2.9c-0.1-0.4-0.1-0.7-0.1-1
	v0C157,112.1,158.7,110.2,161,109.8z M162.4,118c1.8-0.3,3.1-2.1,2.8-3.9c-0.3-1.8-2.1-3.1-3.9-2.8c-0.7,0.1-1.3,0.4-1.7,0.8
	c-0.8,0.7-1.2,1.9-1.1,3C158.8,117,160.6,118.3,162.4,118z M164.6,89.1C164.6,89.1,164.5,89.1,164.6,89.1
	C164.6,89.1,164.6,89.1,164.6,89.1C164.6,89.1,164.6,89.1,164.6,89.1z"/>
<path fill="#072249" d="M164.6,89.1c0,0-0.1,0-0.1,0C164.5,89.1,164.6,89.1,164.6,89.1C164.6,89.1,164.6,89.1,164.6,89.1z"/>
<path fill="#072249" d="M197.3,179.4c-5.6,8.6-13.2,15.8-22.1,21.1c-9.9,5.8-21.5,9.2-33.8,9.2c-6,0-11.8-0.8-17.3-2.3
	c-17.7-4.7-32.5-16.6-41.2-32.3c9.1,4,16.3,6,19.4,3.6c3.1-2.4,3.5-8.8-5.9-22.2c-9-12.8-19.9-30.4,1.3-54.5
	c19.4-22,47.1-23.1,66.8-12.9c0,0-0.1,0-0.1,0c3.4,2.5,6.1,4.8,8.4,7c0.2,0.2,0.4,0.4,0.7,0.6c5.5,5.3,8,9.4,9.6,12.9
	c-12-14.4-36.5-14.5-54.4-7.1c-23.9,9.9-36,39-33.2,46.4c0.1,0.2,0.2,0.4,0.3,0.6c4.1,6.6,43.8,25.3,64.8,17.3
	c10.7-4,16.8-10.9,21.7-17v0c0,0,0-0.1,0.1-0.1c-2.2,5.6-11,23.7,2.2,28.2C186.9,178.8,191.4,179.5,197.3,179.4z"/>
<g>
	<path fill="#E6E8EC" d="M187.9,136.8c-11,13-30.4,22.5-47,15.8c-13.7-5.5-31.6-15-45.4-3.8c1.6,4.3,9.1,7.3,12.8,9.1
		c8,3.9,16.4,7,25.1,8.9c9.5,2.1,19.8,3.1,29-0.8c8.2-3.5,14.4-9.5,19.9-16.2v0C184.8,145.9,186.5,141.3,187.9,136.8L187.9,136.8z"
		/>
</g>
<path fill="#212121" d="M226.8,111c-4.4,3.2-9.1,5.6-14.3,7c0,0,0,0,0,0c-8,2.2-15.7,2-23.9,1.2v0c0.4-0.5,0.9-1,1.3-1.4
	C202.3,119.8,215.7,117.1,226.8,111z"/>
<g>
	<path fill="#FF4E00" d="M223.6,100.1c0,0-4.3,4.6-11.4,7.5c-0.9,0.4-1.9,0.7-2.8,1c-2.9,1-6.1,1.9-9.1,3c-0.5,0.2-1,0.4-1.6,0.6
		c-2.7-5-7.4-10.3-13.3-14.7c-5.9-4.3-13-7.6-20.8-8.4c0,0,0,0-0.1,0c0.6-0.2,5.7-1.5,12.9-2.2c4.4-0.4,9.7-0.6,15.2-0.2
		C203.5,87.6,215.2,91,223.6,100.1z"/>
	<path fill="#FF4E00" d="M164.6,89.1c0,0-0.1,0-0.1,0C164.5,89.1,164.6,89.1,164.6,89.1C164.6,89.1,164.6,89.1,164.6,89.1z"/>
</g>
<g>
	<path fill="#FF4E00" d="M222.2,123.2c-1.7,1.9-3.6,4-5.8,6.2v0c-8,8-19.1,17-33.9,20.4c2.3-4.1,4.1-8.5,5.5-13
		c5.3-4.5,12.1-9.5,12.9-17c-0.2,0-0.5,0-0.7,0c4.1-0.3,8.3-0.8,12.2-1.9c0,0,0,0,0,0c5.2-1.3,10.1-3.8,14.3-7
		C226.8,111,227.8,116.9,222.2,123.2z"/>
	<path fill="#FF4E00" d="M188.4,135.1c-0.1,0.6-0.3,1.1-0.5,1.7c0,0,0,0,0,0C188.1,136.3,188.3,135.7,188.4,135.1z"/>
</g>
<g>
	<path fill="#FFD701" d="M200.9,119.9c-0.2,1.4-0.6,2.8-1.1,4.1c-2.4,5.4-7.9,9.5-11.8,12.9c0.2-0.6,0.3-1.1,0.5-1.7
		c0-0.1,0-0.2,0.1-0.2c0.9-4.3,0.6-8.8,0-15.7c0,0,0.1,0,0.2,0c1.2,0.2,6.2,0.9,11.4,0.7c0,0,0.1,0,0.1,0
		C200.4,119.9,200.7,119.9,200.9,119.9z"/>
</g>
<g>
	<path fill="#FFD701" d="M198.7,112.2C198.7,112.2,198.7,112.2,198.7,112.2c-2.3,1-4.6,2.1-6.6,3.6c0,0,0,0,0,0
		c-0.3,0.2-0.6,0.5-0.9,0.7c-0.2,0.1-0.3,0.2-0.4,0.4c-0.3,0.3-0.7,0.6-1,0.9l0,0c-0.4,0.3-0.7,0.7-1,1.1c-0.1,0.1-0.2,0.2-0.3,0.3
		h0c-0.1-0.1-0.1-0.1-0.2-0.2c0,0-0.1-0.1-0.1-0.1c-2.5-2.8-3.3-5.7-5-9.3c-1.6-3.5-4.1-7.6-9.6-12.9c-0.2-0.2-0.4-0.4-0.7-0.6
		c-2.3-2.1-5-4.4-8.4-7c0,0,0.1,0,0.1,0c7.8,0.8,14.9,4.1,20.8,8.4C191.3,101.9,196,107.3,198.7,112.2z"/>
	<path fill="#FFD701" d="M198.7,112.2c-2.3,0.9-4.6,2.1-6.6,3.6C194.1,114.3,196.4,113.2,198.7,112.2
		C198.7,112.2,198.7,112.2,198.7,112.2C198.7,112.2,198.7,112.2,198.7,112.2z"/>
</g>
<path fill="#212121" d="M162.4,118c-1.8,0.3-3.6-0.9-3.9-2.8c-0.2-1.2,0.2-2.3,1.1-3c0.5-0.4,1.1-0.7,1.7-0.8
	c1.8-0.3,3.6,0.9,3.9,2.8C165.5,115.9,164.2,117.7,162.4,118z"/>
<path fill="#212121" d="M166.9,124c-8,1.6-11.3,1.3-20.7,1.2c-14.7,0-22.8,4.9-31.6,9.8c8.5-6.6,15.9-10.1,23.7-11.4
	c14.7-2.5,20.9-1.3,20.2-5.2c1.1,0.9,2.5,1.4,4,1.1c2.7-0.5,4.5-3,4-5.7c-0.5-2.7-3-4.5-5.7-4c-2.3,0.4-4,2.4-4.1,4.6
	c-0.1-0.1-0.1-0.2-0.2-0.3c-1.8-3.1-0.1-4.8-0.8-8.2C166.8,104.1,173.8,122.6,166.9,124z"/>
<path fill="#141313" d="M162.4,118c-1.8,0.3-3.6-0.9-3.9-2.8c-0.2-1.2,0.2-2.3,1.1-3c0.5-0.4,1.1-0.7,1.7-0.8
	c1.8-0.3,3.6,0.9,3.9,2.8C165.5,115.9,164.2,117.7,162.4,118z"/>
<ellipse transform="matrix(0.4191 -0.9079 0.9079 0.4191 -9.5621 211.0881)" fill="#EFEAEA" cx="160.2" cy="113" rx="1.2" ry="1"/>
<g>
	<path fill="#FF4E00" d="M166.7,113.8c-0.5-2.7-3-4.5-5.7-4c-2.3,0.4-4,2.4-4.1,4.6v0c0,0.3,0,0.7,0.1,1c0.2,1.2,0.8,2.2,1.6,2.9v0
		c1.1,0.9,2.5,1.4,4,1.1C165.3,119,167.1,116.5,166.7,113.8z M158.5,115.2c-0.2-1.2,0.2-2.3,1.1-3c0.5-0.4,1.1-0.7,1.7-0.8
		c1.8-0.3,3.6,0.9,3.9,2.8c0.3,1.8-0.9,3.6-2.8,3.9C160.6,118.3,158.8,117,158.5,115.2z"/>
</g>
</svg>
