<?xml version="1.0" encoding="utf-8"?>
<!-- Generator: Adobe Illustrator 21.0.1, SVG Export Plug-In . SVG Version: 6.00 Build 0)  -->
<!DOCTYPE svg PUBLIC "-//W3C//DTD SVG 1.1//EN" "http://www.w3.org/Graphics/SVG/1.1/DTD/svg11.dtd">
<svg version="1.1" id="Calque_1" xmlns="http://www.w3.org/2000/svg" xmlns:xlink="http://www.w3.org/1999/xlink" x="0px" y="0px"
	 viewBox="0 0 708 667" enable-background="new 0 0 708 667" xml:space="preserve">
<path fill="#FFFFFF" d="M631.1,182.8c-12.8,4.3-26.6,8.2-40,13.1c-2.3,0.9-4.6,1.7-6.9,2.7c-0.1,0-0.1,0-0.2,0.1
	c-10.1,4.1-19.9,9.1-28.7,15.6c0,0,0,0,0,0c-1.4,1-2.7,2-4,3.1c-0.7,0.5-1.3,1.1-2,1.6c-1.5,1.3-2.9,2.6-4.3,4
	c14.4,2.3,53.8,6.5,101.2-5.6C641.9,205.6,636.9,194,631.1,182.8z M661.8,274.1c-34.9,35.1-83.9,74.4-148.8,89.5
	c-9.5,24.4-48.3,104.1,9.7,123.8c9.7,3.3,29.3,6.2,55.3,5.9c-24.7,37.8-57.8,69.5-96.8,92.4c-43.5,25.6-94.2,40.3-148.3,40.3
	c-26.2,0-51.6-3.5-75.8-9.9c-77.7-20.8-142.7-72.8-180.6-141.8c39.8,17.3,71.4,26.5,84.9,15.9c13.4-10.5,15.3-38.6-25.9-97.5
	c-39.4-56.3-87.3-133.4,5.8-239.2C226.4,57,348,52.4,434.6,97.1c2.5-0.7,24.9-6.5,56.7-9.6c19.5-1.9,42.5-2.8,66.6-0.8
	C498.7,33,420,0.2,333.7,0.2C149.6,0.2,0.3,149.4,0.3,333.6C0.3,517.7,149.6,667,333.7,667c184.2,0,333.4-149.3,333.4-333.4
	C667.1,313.3,665.3,293.4,661.8,274.1z M437.1,206.7c-1.4-8.1-9-13.5-17.1-12.2c-2.9,0.5-5.5,1.8-7.6,3.7c-3.6,3.3-5.5,8.2-4.6,13.3
	c1.4,8.1,9,13.5,17.1,12.2C433,222.4,438.5,214.7,437.1,206.7z M437.1,206.7c-1.4-8.1-9-13.5-17.1-12.2c-2.9,0.5-5.5,1.8-7.6,3.7
	c-3.6,3.3-5.5,8.2-4.6,13.3c1.4,8.1,9,13.5,17.1,12.2C433,222.4,438.5,214.7,437.1,206.7z M590.8,232.3c-0.1,0-0.3,0-0.4,0
	c-22.5,1-44.5-2.3-49.9-3c-0.5-0.1-0.9-0.1-1.1-0.1v0h0c-0.3-0.3-0.5-0.6-0.8-0.8c-0.2-0.2-0.3-0.4-0.5-0.5
	c-10.8-12.2-14.5-25-22-40.8c-52.7-63.2-160.3-63.4-238.7-30.9c-104.9,43.4-157.9,171-145.8,203.4c0.4,1,0.8,2,1.4,2.8
	c18,28.9,192.1,110.9,284.4,76.1c47.1-17.8,73.7-47.8,95.4-74.4v0c0.1-0.1,0.2-0.2,0.3-0.4c0,0,0.3-0.6,0.9-1.7
	c0.1-0.2,0.3-0.5,0.4-0.7c3.7-6.9,14.2-27.6,22.6-54.6l0,0c0.1-0.1,0.1-0.1,0.1-0.1c17.2-14.7,41.1-32.8,51.7-56.4
	c2.5-5.6,4.3-11.6,5-17.8C592.9,232.2,591.8,232.3,590.8,232.3z M418.9,187.8c11.8-2,22.9,6,24.9,17.7c2,11.7-6,22.9-17.7,24.9
	c-6.6,1.1-13-0.9-17.7-5v0c-3.7-3.1-6.3-7.6-7.2-12.7c-0.3-1.5-0.4-3.1-0.3-4.6v0C401.4,198.1,408.7,189.5,418.9,187.8z M425,223.7
	c8.1-1.4,13.5-9,12.2-17.1c-1.4-8.1-9-13.5-17.1-12.2c-2.9,0.5-5.5,1.8-7.6,3.7c-3.6,3.3-5.5,8.2-4.6,13.3
	C409.2,219.6,416.9,225.1,425,223.7z M434.6,97.1c-0.1,0.1-0.2,0.1-0.2,0.1c0.2,0,0.3,0,0.5,0C434.8,97.2,434.7,97.1,434.6,97.1z"/>
<path fill="#072249" d="M434.9,97.2c-0.2,0-0.3,0-0.5,0c0,0,0.1,0,0.2-0.1C434.7,97.1,434.8,97.2,434.9,97.2z"/>
<path fill="#072249" d="M578.1,493.3c-24.7,37.8-57.8,69.5-96.8,92.4c-43.5,25.6-94.2,40.3-148.3,40.3c-26.2,0-51.6-3.5-75.8-9.9
	c-77.7-20.8-142.7-72.8-180.6-141.8c39.8,17.3,71.4,26.5,84.9,15.9c13.4-10.5,15.3-38.6-25.9-97.5c-39.4-56.3-87.3-133.4,5.8-239.2
	C226.4,57,348,52.4,434.6,97.1c-0.1,0.1-0.2,0.1-0.2,0.1c14.8,11.1,26.8,21.2,36.7,30.5c1,0.9,2,1.9,2.9,2.8
	c24.2,23.3,35,41.4,42.2,56.6c-52.7-63.2-160.3-63.4-238.7-30.9c-104.9,43.4-157.9,171-145.8,203.4c0.4,1,0.8,2,1.4,2.8
	c18,28.9,192.1,110.9,284.4,76.1c47.1-17.8,73.7-47.8,95.4-74.4v0c0.1-0.1,0.2-0.2,0.3-0.4c-9.5,24.4-48.3,104.1,9.7,123.8
	C532.5,490.7,552.1,493.6,578.1,493.3z"/>
<g>
	<path fill="#E6E8EC" d="M537.1,306.6c-48.4,57-133.3,98.5-206.3,69.4c-60.2-24-138.6-65.6-199.1-16.5c7.1,19,40,32,56.3,40.1
		c34.9,17.3,72.1,30.7,110.1,39.2c41.8,9.3,87,13.5,127.4-3.6c35.8-15.2,63-41.5,87.3-71.1v0C523.4,346.4,530.9,326.1,537.1,306.6
		L537.1,306.6z"/>
</g>
<path fill="#212121" d="M707.5,193.3c-19.1,13.9-40,24.4-62.9,30.6c0,0-0.1,0-0.1,0c-35.3,9.8-69,8.6-105.1,5.3v0
	c1.8-2.1,3.7-4.2,5.7-6.2C600.1,231.8,659,220.1,707.5,193.3z"/>
<g>
	<path fill="#FF4E00" d="M693.7,145.5c0,0-18.9,20.3-50.1,32.7c-4,1.6-8.2,3.1-12.4,4.5c-12.8,4.3-26.6,8.2-40,13.1
		c-2.3,0.9-4.6,1.7-6.9,2.7c-12.1-21.8-32.4-45.4-58.2-64.4c-25.8-19-57.2-33.5-91.2-37c-0.1,0-0.2-0.1-0.2-0.1
		c2.5-0.7,24.9-6.5,56.7-9.6c19.5-1.9,42.5-2.8,66.6-0.8C605.3,90.7,656.7,105.6,693.7,145.5z"/>
	<path fill="#FF4E00" d="M434.9,97.2c-0.2,0-0.3,0-0.5,0c0,0,0.1,0,0.2-0.1C434.7,97.1,434.8,97.2,434.9,97.2z"/>
</g>
<g>
	<path fill="#FF4E00" d="M687.3,246.9c-7.4,8.4-15.9,17.6-25.5,27.2v0c-34.9,35.1-83.9,74.4-148.8,89.5c9.9-18.1,17.8-37.4,24-57.1
		c23.1-19.9,53.1-41.5,56.8-74.4c-1,0.1-2,0.1-3,0.2c18.1-1.1,36.2-3.6,53.7-8.4c0,0,0,0,0.1,0c22.6-5.8,44.2-16.7,62.9-30.6
		C707.5,193.3,711.9,219.2,687.3,246.9z"/>
	<path fill="#FF4E00" d="M539.2,299c-0.6,2.5-1.2,4.9-2,7.4c0,0,0,0-0.1,0.1C537.9,304,538.6,301.5,539.2,299z"/>
</g>
<g>
	<path fill="#FFD701" d="M593.9,232.2c-0.7,6.3-2.5,12.2-5,17.8c-10.6,23.6-34.5,41.7-51.7,56.4c0.8-2.5,1.4-4.9,2-7.4
		c0.1-0.3,0.1-0.7,0.2-1c4.1-19,2.5-38.5,0.1-68.8c0.2,0,0.6,0.1,1.1,0.1c5.4,0.7,27.4,4,49.9,3c0.1,0,0.3,0,0.4,0
		C591.8,232.3,592.9,232.2,593.9,232.2z"/>
</g>
<g>
	<path fill="#FFD701" d="M584.3,198.6c-0.1,0-0.1,0-0.2,0.1c-10.1,4.1-19.9,9.1-28.7,15.6c0,0,0,0,0,0c-1.4,1-2.7,2-4,3.1
		c-0.7,0.5-1.3,1.1-2,1.6c-1.5,1.3-2.9,2.6-4.3,4l0,0c-1.6,1.5-3.1,3.1-4.5,4.8c-0.4,0.4-0.8,0.9-1.1,1.4h0
		c-0.3-0.3-0.5-0.6-0.8-0.8c-0.2-0.2-0.3-0.4-0.5-0.5c-10.8-12.2-14.5-25-22-40.8c-7.2-15.2-18-33.3-42.2-56.6
		c-0.9-0.9-1.9-1.8-2.9-2.8c-9.9-9.3-21.9-19.4-36.7-30.5c0.2,0,0.3,0,0.5,0c34.1,3.6,65.4,18,91.2,37
		C551.9,153.2,572.3,176.8,584.3,198.6z"/>
	<path fill="#FFD701" d="M584.4,198.6c-10.1,4.1-20,9.2-28.9,15.7c8.8-6.5,18.6-11.5,28.7-15.6C584.2,198.6,584.3,198.6,584.4,198.6
		C584.4,198.6,584.4,198.6,584.4,198.6z"/>
</g>
<path fill="#212121" d="M425,223.7c-8.1,1.4-15.7-4.1-17.1-12.2c-0.9-5.1,1-10.1,4.6-13.3c2-1.9,4.6-3.2,7.6-3.7
	c8.1-1.4,15.7,4.1,17.1,12.2C438.5,214.7,433,222.4,425,223.7z"/>
<path fill="#212121" d="M444.9,250.1c-35.1,6.9-49.5,5.5-91,5.4c-64.3-0.2-100.1,21.5-138.5,43c37.5-28.9,69.9-44.3,104.2-50.2
	c64.6-11.1,91.5-5.9,88.8-22.9c4.7,4.1,11.1,6.1,17.7,5c11.7-2,19.7-13.2,17.7-24.9c-2-11.8-13.2-19.7-24.9-17.7
	c-10.2,1.7-17.6,10.4-18,20.3c-0.2-0.4-0.5-0.8-0.7-1.2c-7.7-13.5-0.4-21.2-3.5-36.1C444.4,162.7,475.2,244.2,444.9,250.1z"/>
<path fill="#141313" d="M425,223.7c-8.1,1.4-15.7-4.1-17.1-12.2c-0.9-5.1,1-10.1,4.6-13.3c2-1.9,4.6-3.2,7.6-3.7
	c8.1-1.4,15.7,4.1,17.1,12.2C438.5,214.7,433,222.4,425,223.7z"/>
<ellipse transform="matrix(0.4191 -0.9079 0.9079 0.4191 57.8029 494.4276)" fill="#EFEAEA" cx="415.3" cy="202" rx="5.2" ry="4.6"/>
<g>
	<path fill="#FF4E00" d="M443.8,205.5c-2-11.8-13.2-19.7-24.9-17.7c-10.2,1.7-17.6,10.4-18,20.3v0c-0.1,1.5,0,3,0.3,4.6
		c0.9,5.2,3.5,9.6,7.2,12.7v0c4.7,4.1,11.1,6.1,17.7,5C437.8,228.5,445.8,217.3,443.8,205.5z M407.9,211.6c-0.9-5.1,1-10.1,4.6-13.3
		c2-1.9,4.6-3.2,7.6-3.7c8.1-1.4,15.7,4.1,17.1,12.2c1.4,8.1-4.1,15.7-12.2,17.1C416.9,225.1,409.2,219.6,407.9,211.6z"/>
</g>
</svg>
