<?xml version="1.0" encoding="utf-8"?>
<!-- Generator: Adobe Illustrator 21.0.1, SVG Export Plug-In . SVG Version: 6.00 Build 0)  -->
<!DOCTYPE svg PUBLIC "-//W3C//DTD SVG 1.1//EN" "http://www.w3.org/Graphics/SVG/1.1/DTD/svg11.dtd">
<svg version="1.1" id="Calque_1" xmlns="http://www.w3.org/2000/svg" xmlns:xlink="http://www.w3.org/1999/xlink" x="0px" y="0px"
	 viewBox="0 0 733 837" enable-background="new 0 0 733 837" xml:space="preserve">
<path fill="#072249" d="M430.4,29.4c-0.2,0-0.3,0-0.5-0.1c0,0,0.1,0,0.3-0.1C430.2,29.3,430.3,29.4,430.4,29.4z"/>
<g>
	<path fill="#E6E8EC" d="M539.1,251.6c0,0.2-0.5,2.2-1.4,5.4c0,0,0,0,0,0c-1.9,6.8-5.9,19.3-13,34.4l0,0
		c-3.4,7.3-7.2,14.5-11.5,21.3v0c-32.3,39.5-72.5,76-124.6,85.3c-28.6,5.1-58.1,2.5-86.5-2.5c0,0,0,0,0,0
		c-18.4-3.3-36.5-7.9-54.4-13.4c0,0,0,0,0,0c-31.8-9.8-63-22.4-92.3-38.1c-14.4-7.7-40.8-19.3-47.1-36
		c47.5-38.6,122.9-23.6,173.3-0.2c26.2,12.2,51.4,25.9,80.7,28.3c38.3,3.1,75.6-9.9,108.1-29.4C495.5,291.7,519,273,539.1,251.6z"/>
</g>
<path fill="#212121" d="M719.9,131.5l-9.8,6.9c0,0,0,0-0.1,0c-32.6,21.5-66.3,29.6-96.8,33c-6,0.7-11.8,1.2-17.5,1.5
	c0,0-0.1,0-0.1,0c-24.3,1.6-46.1-2.1-52.5-3.1c-0.2,0-0.4,0-0.5-0.1c-0.5-0.1-0.8-0.1-1.1-0.1c0,0,0,0,0,0l-0.1,0
	c0.4-0.5,0.8-1,1.2-1.4l1.2-1.3c1.2-1.3,2.4-2.6,3.6-3.8h0C569,166.5,643.2,174,719.9,131.5z"/>
<path fill="#FF4E00" d="M705.2,80.7c0,0-20,21.6-53.2,34.8c-17.1,6.8-36.7,11.7-55.6,18.8c-2.4,0.9-4.9,1.9-7.3,2.8
	C563.5,90.8,502.7,37,430.4,29.4h0c-0.2,0-0.3,0-0.5-0.1c0,0,0.1,0,0.3-0.1c2.7-0.7,26.5-6.9,60.2-10.1
	C551.7,13.2,646.1,16.8,705.2,80.7z"/>
<path fill="#FF4E00" d="M698.5,188.4c-17.1,19.2-39.2,42.8-66.8,64.6c-31.9,25.3-71.2,48.3-118.2,59.3c0,0,0.4-0.6,1-1.8
	c0-0.1,0.1-0.1,0.1-0.2c0,0,0,0,0,0c3.9-6.6,7.2-12.9,10-18.9l0,0c7.1-15.1,11.1-27.6,13-34.4c0,0,0,0,0,0c0.9-3.3,1.3-5.2,1.4-5.4
	c0,0-0.1,0-0.1,0.1c0.1-0.4,0.3-0.8,0.4-1.3c0.6-2.1,1.2-4.2,1.7-6.3c-0.6,2.5-1.2,5-2,7.4c18.2-15.6,43.7-34.8,54.9-59.9
	c2.7-6,4.5-12.3,5.3-18.9c-1.2,0.1-2.3,0.1-3.5,0.2c5.7-0.4,11.5-0.8,17.5-1.5c30.5-3.4,64.2-11.5,96.8-33c0,0,0,0,0.1,0
	c3.3-2.2,6.6-4.5,9.8-6.9C719.9,131.5,724.6,159,698.5,188.4z"/>
<path fill="#FF4E00" d="M539,251.6c0,0.2-0.5,2.2-1.4,5.4c0,0,0,0,0,0c-1.9,6.8-5.9,19.3-13,34.4l0,0c-2.8,6-6.2,12.3-10,18.9
	c3.6-6.7,15.1-29.1,24.3-58.6C539,251.7,539,251.6,539,251.6z"/>
<path fill="#FFD701" d="M599.2,172.8c-0.8,6.7-2.6,13-5.3,18.9c-11.2,25.1-36.7,44.3-54.9,59.9c0.8-2.5,1.4-5,2-7.4
	c0.1-0.5,0.2-1,0.3-1.5c4.8-21.3,3.5-45.5,0.1-73h0c0,0,0,0,0,0c0.2,0,0.6,0.1,1.1,0.1c0.2,0,0.3,0,0.5,0.1c6.4,1,28.2,4.6,52.5,3.1
	c0,0,0.1,0,0.1,0C596.9,172.9,598.1,172.8,599.2,172.8z"/>
<path fill="#FFD701" d="M589.1,137.1c-0.1,0-0.1,0.1-0.2,0.1c-1.6,0.6-3.1,1.3-4.6,2c-0.8,0.3-1.5,0.7-2.3,1c-0.7,0.3-1.3,0.6-2,0.9
	c-0.9,0.4-1.7,0.8-2.6,1.2c-0.8,0.4-1.5,0.8-2.2,1.1c-0.7,0.3-1.3,0.7-2,1c-0.1,0.1-0.3,0.1-0.4,0.2c-0.7,0.4-1.4,0.8-2,1.1
	c-0.6,0.3-1.2,0.7-1.9,1.1c-0.3,0.2-0.6,0.4-0.9,0.5c-0.4,0.2-0.8,0.5-1.2,0.8c-0.2,0.1-0.5,0.3-0.7,0.4c-0.6,0.4-1.2,0.7-1.8,1.1
	c-0.7,0.4-1.4,0.9-2.1,1.4c-0.9,0.6-1.8,1.2-2.7,1.9c-0.5,0.3-0.9,0.7-1.4,1c-0.6,0.5-1.2,0.9-1.9,1.4c0,0,0,0,0,0
	c-0.7,0.6-1.4,1.1-2.1,1.7c-0.2,0.1-0.3,0.3-0.5,0.4c-0.5,0.4-1.1,0.9-1.6,1.4c-0.7,0.6-1.5,1.3-2.2,1.9c-0.8,0.7-1.5,1.4-2.3,2.2h0
	c-1.2,1.2-2.4,2.5-3.6,3.8l-1.2,1.3c-0.4,0.5-0.8,1-1.2,1.4l0,0c-0.3-0.3-0.6-0.6-0.8-0.9l0,0c-0.2-0.2-0.3-0.4-0.5-0.6
	c-11.5-13-15.4-26.5-23.4-43.4c-7.7-16.2-19.1-35.4-44.8-60.2c0,0,0,0-0.1-0.1c-0.1,0-0.1-0.1-0.2-0.2c-0.1,0-0.1-0.1-0.2-0.1
	c-0.9-0.8-1.7-1.7-2.6-2.5c-10.2-9.6-22.5-19.9-37.5-31.2c-0.5-0.4-1-0.8-1.5-1.1c0.2,0,0.3,0,0.5,0h0
	C502.7,37,563.5,90.8,589.1,137.1z"/>
<path fill="#FFD701" d="M547.5,163.1l-4.8,5.1l1.2-1.3C545,165.6,546.2,164.3,547.5,163.1z"/>
<path fill="#FFD701" d="M589.1,137.1c-13.3,5.5-26.2,12.3-37.2,21.9c11-9.6,23.7-16.4,37-21.8C589,137.2,589.1,137.1,589.1,137.1
	C589.1,137.1,589.1,137.1,589.1,137.1z"/>
<path fill="#212121" d="M401.7,150.9c-1.4-8.6,4.4-16.7,12.9-18.1c8.6-1.4,16.7,4.4,18.1,12.9c1.4,8.6-4.3,16.7-12.9,18.1
	C411.3,165.3,403.2,159.5,401.7,150.9z"/>
<path fill="#212121" d="M441.1,191.8c-37.3,7.3-52.6,5.9-96.6,5.7c-68.3-0.2-106.3,22.8-147.1,45.7c39.8-30.7,74.3-47.1,110.6-53.3
	c68.6-11.7,97.3-6.2,94.3-24.3c5,4.3,11.8,6.5,18.8,5.3c12.5-2.1,20.9-13.9,18.8-26.4c-2.1-12.5-14-20.9-26.4-18.8
	c-10.8,1.8-18.6,11-19.1,21.6c-0.2-0.4-0.5-0.9-0.8-1.3c-8.2-14.3-0.4-22.5-3.7-38.3C440.5,99,473.2,185.6,441.1,191.8z"/>
<path fill="#141313" d="M419.9,163.8c-8.6,1.4-16.7-4.4-18.1-12.9c-1.4-8.6,4.4-16.7,12.9-18.1c8.6-1.4,16.7,4.4,18.1,12.9
	C434.2,154.2,428.4,162.4,419.9,163.8z"/>
<ellipse transform="matrix(0.4191 -0.9079 0.9079 0.4191 110.1155 453.6606)" fill="#EFEAEA" cx="409.6" cy="140.8" rx="5.6" ry="4.9"/>
<path fill="#FF4E00" d="M439.9,144.5c-2.1-12.5-14-20.9-26.4-18.8c-10.8,1.8-18.6,11-19.1,21.6c0,0,0,0,0,0c-0.1,1.6,0,3.2,0.3,4.9
	c0.9,5.5,3.7,10.2,7.6,13.5l0,0c5,4.3,11.8,6.5,18.8,5.3C433.6,168.8,442,157,439.9,144.5z M419.9,163.8
	c-8.6,1.4-16.7-4.4-18.1-12.9c-1.4-8.6,4.4-16.7,12.9-18.1c8.6-1.4,16.7,4.4,18.1,12.9C434.2,154.2,428.4,162.4,419.9,163.8z"/>
<path fill="#FFFFFF" d="M541.5,169.7L541.5,169.7L541.5,169.7L541.5,169.7c-0.3-0.3-0.6-0.6-0.8-0.9l0,0c-0.2-0.2-0.3-0.4-0.5-0.6
	c-11.5-13-15.4-26.5-23.4-43.4c-56-67.1-170.2-67.4-253.6-32.9C151.8,138.1,95.5,273.6,108.3,308c5.1-4.1,30.7-22.8,78.6-22.8
	c3.4,0,6.8,0.1,10.4,0.3c83.9,4.6,109.8,51.1,176.1,51.1c8.6,0,17.9-0.8,28.1-2.5c56.9-9.8,107.8-53.5,128.1-73l0,0
	c4.4-4.2,7.4-7.3,8.7-8.7l0,0c0.3-0.3,0.5-0.5,0.6-0.7c0.1-0.4,0.3-0.8,0.4-1.3c0.6-2.1,1.2-4.2,1.7-6.3c0.1-0.5,0.2-1,0.3-1.5
	C546.2,221.4,544.9,197.2,541.5,169.7z M441.1,191.8c-37.3,7.3-52.6,5.9-96.6,5.7c-68.3-0.2-106.3,22.8-147.1,45.7
	c39.8-30.7,74.3-47.1,110.6-53.3c68.6-11.7,97.3-6.2,94.3-24.3l0,0c-3.9-3.3-6.7-8-7.6-13.5c-0.3-1.7-0.4-3.3-0.3-4.9c0,0,0,0,0,0
	c-0.2-0.4-0.5-0.9-0.8-1.3c-8.2-14.3-0.4-22.5-3.7-38.3C440.5,99,473.2,185.6,441.1,191.8z"/>
<path fill="#072249" d="M733,473.8v342.7c0,11.4-9.2,20.6-20.6,20.6h-692c-11.4,0-20.6-9.2-20.6-20.6V473.8
	c0-11.4,9.2-20.6,20.6-20.6h119.9c9.8-2.3,13.7-16.8,7.6-39.9c-4.6-17.6-15-40.2-32.8-66.3c0,0,0,0,0-0.1c-0.8-1.2-1.6-2.4-2.5-3.6
	c-41.8-59.8-92.7-141.7,6.2-254.1C209-13.3,338.1-18.2,430.1,29.3c-0.2,0-0.3,0.1-0.3,0.1c0.5,0.4,1,0.7,1.5,1.1
	c14.7,11.2,36.6,30.6,40.1,33.8c0.1,0.1,0.1,0.1,0.2,0.1c0.1,0.1,0.2,0.2,0.2,0.2c0,0,0,0,0.1,0.1c25.7,24.7,37.1,44,44.8,60.2
	c-56-67.1-170.2-67.4-253.6-32.9C151.8,138.1,95.5,273.6,108.3,308c0.4,1.1,0.9,2.1,1.4,3c10.2,16.3,67.2,48.6,133.1,69.7
	c1.6,0.5,3.2,1,4.8,1.5c0,0,0,0,0,0c1.6,0.5,3.2,1,4.9,1.5c0.8,0.2,1.6,0.5,2.5,0.7c2.4,0.7,4.9,1.4,7.4,2.1s4.9,1.4,7.4,2
	c1.7,0.4,3.3,0.9,4.9,1.3c0.8,0.2,1.7,0.4,2.5,0.6c4.1,1,8.3,2,12.4,2.8c0.8,0.2,1.7,0.4,2.5,0.5c3.3,0.7,6.6,1.3,9.9,1.9
	c0,0,0,0,0,0c1.6,0.3,3.3,0.6,4.9,0.9h0c2.1,0.4,4.3,0.7,6.4,1c0.3,0,0.5,0.1,0.8,0.1c1.9,0.3,3.7,0.5,5.6,0.8
	c0.3,0,0.6,0.1,0.9,0.1c1.8,0.2,3.6,0.4,5.4,0.7c0.3,0,0.6,0.1,0.9,0.1c1.8,0.2,3.6,0.4,5.4,0.5c0.3,0,0.6,0.1,0.9,0.1
	c1.8,0.1,3.6,0.3,5.3,0.4c0.3,0,0.6,0,0.9,0.1c1.8,0.1,3.6,0.2,5.3,0.3c0.3,0,0.6,0,0.8,0c1.8,0.1,3.5,0.1,5.3,0.2
	c0.3,0,0.5,0,0.8,0c0.6,0,1.3,0,2,0c0.9,0,1.7,0,2.6,0c0.3,0,0.7,0,1,0c1.2,0,2.5,0,3.8-0.1h0.1c1.2,0,2.4-0.1,3.7-0.1h0.2
	c1.2-0.1,2.4-0.1,3.7-0.2c1.2-0.1,2.4-0.2,3.6-0.2c0.1,0,0.1,0,0.1,0c1-0.1,2-0.2,3-0.3c0.4,0,0.9-0.1,1.3-0.1
	c0.9-0.1,1.9-0.2,2.8-0.3c0.1,0,0.3,0,0.4,0c0.9-0.1,1.7-0.2,2.6-0.3c0.5-0.1,1-0.1,1.6-0.2c1.5-0.2,3.1-0.5,4.6-0.7
	c2.9-0.5,5.8-1.1,8.6-1.8c1.1-0.3,2.2-0.6,3.4-0.9c3.9-1,7.7-2.2,11.3-3.6c32.8-12.4,56.3-30.4,75-49.3c2.7-2.7,5.3-5.4,7.8-8.1
	c6.7-7.3,12.8-14.5,18.5-21.6c0,0,0,0,0,0c0.1-0.1,0.2-0.3,0.3-0.4c-0.3,0.8-12.9,33-13.6,35.3c-12,35.6-20.1,82.9,23.5,97.6
	c7.1,2.4,20.4,7,36.4,8h152.7C723.8,453.3,733,462.5,733,473.8z"/>
<path fill="#FFFFFF" d="M149.9,514.1c0.7,1.2,1.4,2.7,2,4.6c0.6,1.9,0.9,4,0.9,6.2c0,3.9-0.9,6.8-2.6,8.7c-1.7,1.9-4.1,2.8-7.2,2.8
	h-39.5v23.3h40.4c0.7,1.3,1.4,2.8,2,4.6c0.7,1.8,1,3.9,1,6.2c0,3.9-0.9,6.8-2.7,8.6c-1.8,1.8-4.2,2.8-7.1,2.8h-33.3v39.7
	c-1.3,0.4-3.1,0.7-5.5,1c-2.4,0.3-4.9,0.4-7.5,0.4c-5.6,0-9.5-1-11.7-2.8c-2.2-1.9-3.3-5.3-3.3-10.3v-81.1c0-4.5,1.3-8.1,4-10.8
	c2.7-2.7,6.3-4,10.8-4H149.9z"/>
<path fill="#FFFFFF" d="M191.2,621.8c-1.2,0.4-2.8,0.7-5,1c-2.1,0.3-4.5,0.4-7.1,0.4c-5.3,0-9.2-0.9-11.6-2.6
	c-2.4-1.7-3.6-5.1-3.6-10.1v-54.3c0-3.3,0.8-6.2,2.5-8.5c1.7-2.4,4-4.4,6.9-6.2c3.9-2.4,8.6-4.2,14.1-5.6c5.5-1.4,11.3-2,17.4-2
	c12.3,0,18.5,4.2,18.5,12.5c0,2-0.3,3.9-0.9,5.5c-0.6,1.7-1.2,3.1-2,4.3c-2.7-0.6-6.1-0.9-10-0.9c-3.4,0-6.9,0.4-10.3,1.2
	c-3.4,0.8-6.5,2-9.1,3.4V621.8z"/>
<path fill="#FFFFFF" d="M235.3,511.8c0-4,1.4-7.5,4.2-10.3c2.8-2.8,6.4-4.3,10.9-4.3c4.5,0,8.2,1.4,10.9,4.3
	c2.8,2.8,4.2,6.3,4.2,10.3c0,4.2-1.4,7.7-4.2,10.5c-2.8,2.8-6.4,4.3-10.9,4.3c-4.5,0-8.2-1.4-10.9-4.3
	C236.7,519.5,235.3,516,235.3,511.8z M263.9,621.8c-1.2,0.4-2.8,0.7-5,1c-2.1,0.3-4.5,0.4-7.1,0.4c-5.3,0-9.2-0.9-11.5-2.6
	c-2.3-1.7-3.5-5.1-3.5-10.1v-73.1c1.2-0.4,2.8-0.7,5-1.1c2.1-0.4,4.5-0.5,7.1-0.5c5.3,0,9.2,0.9,11.5,2.7c2.3,1.8,3.5,5.2,3.5,10.1
	V621.8z"/>
<path fill="#FFFFFF" d="M307.9,590.5c1.7,5,4.6,8.5,8.7,10.6c4.2,2.1,9,3.1,14.4,3.1c5,0,9.7-0.7,14.1-2c4.4-1.4,7.9-2.9,10.7-4.5
	c1.8,1.2,3.3,2.7,4.4,4.6c1.2,1.9,1.8,4,1.8,6.2c0,2.7-0.8,5.1-2.5,7.1c-1.7,2-3.9,3.7-6.9,5.1c-2.9,1.4-6.3,2.4-10.3,3
	c-4,0.7-8.3,1-13.1,1c-7,0-13.5-1-19.4-2.9c-5.9-2-11-4.9-15.3-8.7c-4.3-3.9-7.6-8.7-10.1-14.5c-2.4-5.8-3.6-12.6-3.6-20.5
	c0-7.6,1.2-14.2,3.6-19.8c2.4-5.6,5.7-10.2,9.8-13.9c4.1-3.7,8.8-6.4,14.1-8.1c5.3-1.7,10.7-2.6,16.3-2.6c6.1,0,11.6,0.9,16.6,2.8
	c5,1.8,9.4,4.4,13,7.7c3.6,3.3,6.4,7.3,8.5,11.9c2,4.6,3,9.7,3,15.1c0,3.8-1,6.6-3,8.5c-2,1.9-4.9,3.1-8.5,3.7L307.9,590.5z
	 M324.8,553.8c-5.1,0-9.3,1.6-12.7,4.7c-3.4,3.1-5.4,7.7-6,13.6l34-5.5c-0.2-3.1-1.6-6-4.1-8.7C333.5,555.2,329.8,553.8,324.8,553.8
	z"/>
<path fill="#FFFFFF" d="M433,558.1c-2.5-2-5.8-3-10-3c-2.8,0-5.5,0.4-7.8,1.1c-2.4,0.7-4.6,1.6-6.6,2.7v63c-1.2,0.4-2.8,0.7-5,1
	c-2.1,0.3-4.5,0.4-7.1,0.4c-5.3,0-9.2-0.9-11.6-2.6c-2.4-1.7-3.6-5.1-3.6-10.1v-55c0-3.1,0.7-5.6,2-7.5c1.3-1.9,3.1-3.7,5.5-5.3
	c3.8-2.7,8.7-4.9,14.7-6.6c6-1.7,12.6-2.5,19.8-2.5c12.9,0,22.9,2.8,30,8.5c7.1,5.7,10.6,13.8,10.6,24.4v55.2c-1.3,0.4-3,0.7-5.2,1
	c-2.1,0.3-4.5,0.4-7.1,0.4c-5.3,0-9.2-0.9-11.5-2.6c-2.3-1.7-3.5-5.1-3.5-10.1v-43.2C436.7,563.2,435.5,560.1,433,558.1z"/>
<path fill="#FFFFFF" d="M525,533.7c2.7,0,5.3,0.2,7.7,0.6c2.4,0.4,4.7,1,6.7,1.7v-29.9c1.3-0.4,3-0.7,5.2-1.1
	c2.1-0.4,4.5-0.5,7.1-0.5c5.3,0,9.2,0.9,11.5,2.7s3.5,5.2,3.5,10.1V604c0,2.8-0.6,5.2-1.8,7.2c-1.2,2-3.1,3.8-5.7,5.4
	c-3.3,2-7.6,3.9-12.8,5.5c-5.2,1.7-11.2,2.5-18,2.5c-14.9,0-26.7-3.8-35.3-11.3c-8.6-7.5-12.9-18.8-12.9-33.9
	c0-7.8,1.2-14.6,3.5-20.3c2.3-5.7,5.5-10.4,9.5-14.2c4-3.8,8.8-6.6,14.2-8.5C512.8,534.6,518.7,533.7,525,533.7z M539.6,557.7
	c-1.5-0.7-3.2-1.3-5.1-1.9c-1.8-0.5-3.8-0.8-5.8-0.8c-6.4,0-11.5,2-15.3,5.9c-3.8,3.9-5.7,10.1-5.7,18.7c0,8.2,1.8,14.1,5.4,17.9
	c3.6,3.7,8.6,5.6,15,5.6c2.5,0,4.7-0.3,6.7-0.8c2-0.5,3.5-1.2,4.7-1.9V557.7z"/>
<path fill="#FFFFFF" d="M657.2,596.9c0,8.8-3.3,15.6-9.8,20.6c-6.5,4.9-16.1,7.4-28.8,7.4c-5,0-9.5-0.4-13.6-1.1
	c-4.1-0.7-7.6-1.8-10.6-3.2c-3-1.4-5.3-3.2-6.9-5.3c-1.7-2.1-2.5-4.6-2.5-7.5c0-2.6,0.5-4.8,1.6-6.7c1.1-1.8,2.4-3.4,4.1-4.5
	c3.4,2,7.4,3.8,11.7,5.3c4.4,1.5,9.5,2.3,15.3,2.3c8.4,0,12.6-2.4,12.6-7.1c0-2-0.7-3.6-2.2-4.6c-1.5-1.1-4-2-7.6-2.8l-7.1-1.6
	c-9.7-2-17-5.1-21.7-9.3c-4.7-4.2-7.1-10.1-7.1-17.7c0-8.4,3.4-15.1,10.2-20c6.8-4.9,16-7.4,27.5-7.4c4.3,0,8.3,0.3,12.1,1
	c3.8,0.7,7.1,1.6,9.8,2.9c2.7,1.3,4.9,2.9,6.5,4.9c1.6,2,2.4,4.2,2.4,6.9c0,2.4-0.5,4.5-1.4,6.3c-1,1.8-2.2,3.4-3.7,4.5
	c-1-0.6-2.3-1.2-4.2-2c-1.8-0.7-3.8-1.4-6-2c-2.1-0.6-4.4-1.1-6.8-1.4c-2.4-0.4-4.6-0.5-6.6-0.5c-4.2,0-7.4,0.6-9.7,1.7
	c-2.3,1.1-3.5,2.8-3.5,5.1c0,1.7,0.7,3,2,3.9c1.3,1,3.7,1.8,7.1,2.7l6.8,1.6c10.8,2.4,18.5,5.8,23.1,10.3
	C654.9,584,657.2,589.8,657.2,596.9z"/>
<path fill="#FFFFFF" d="M122,730.1c0,3.7-0.6,7.1-1.7,10c-1.1,3-2.6,5.5-4.6,7.6c-2,2.1-4.4,3.7-7.3,4.8c-2.9,1.1-6,1.7-9.6,1.7
	c-3.5,0-6.7-0.6-9.6-1.7c-2.9-1.1-5.3-2.7-7.3-4.8c-2-2.1-3.5-4.6-4.6-7.6c-1.1-3-1.7-6.3-1.7-10c0-3.7,0.6-7.1,1.7-10
	c1.1-3,2.7-5.5,4.7-7.6c2-2.1,4.5-3.7,7.3-4.8c2.9-1.1,6-1.7,9.5-1.7c3.4,0,6.6,0.6,9.5,1.7c2.9,1.1,5.3,2.8,7.3,4.9
	c2,2.1,3.6,4.6,4.7,7.6C121.5,723,122,726.4,122,730.1z M98.9,714.1c-3.9,0-7,1.4-9.3,4.2c-2.3,2.8-3.4,6.7-3.4,11.8
	c0,5.1,1.1,9,3.3,11.8c2.2,2.8,5.3,4.1,9.4,4.1c4,0,7.2-1.4,9.4-4.1c2.2-2.8,3.3-6.7,3.3-11.8c0-5-1.1-8.9-3.4-11.8
	C106,715.5,102.9,714.1,98.9,714.1z"/>
<path fill="#FFFFFF" d="M143.1,710.1h18.4c0.3,0.4,0.5,0.9,0.7,1.6c0.2,0.7,0.3,1.5,0.3,2.4c0,2.7-1.2,4.1-3.7,4.1h-15.5v34.5
	c-0.5,0.2-1.1,0.4-1.9,0.5c-0.8,0.2-1.7,0.2-2.7,0.2c-1.9,0-3.3-0.4-4.2-1.1c-0.9-0.7-1.4-1.9-1.4-3.6v-44.5c0-3,0.4-5.6,1.3-7.7
	c0.9-2.1,2.1-3.9,3.8-5.3c1.6-1.4,3.6-2.4,5.9-3c2.3-0.6,4.9-1,7.7-1c4,0,7.1,0.5,9.3,1.6c2.1,1,3.2,2.5,3.2,4.4
	c0,0.9-0.2,1.7-0.5,2.4c-0.4,0.7-0.8,1.3-1.3,1.8c-1.2-0.5-2.7-1-4.3-1.4c-1.6-0.4-3.3-0.6-5-0.6c-3.6,0-6.2,0.7-7.8,2.1
	c-1.6,1.4-2.3,3.8-2.3,7V710.1z"/>
<path fill="#FFFFFF" d="M228.8,746.7v31.5c-1.2,0.3-2.9,0.6-5.1,0.9c-2.2,0.3-4.5,0.4-6.8,0.4c-5.1,0-8.7-0.9-10.7-2.6
	c-2-1.7-3-4.9-3-9.5v-79.1c0-2.2,0.6-3.9,1.7-5.1c1.1-1.2,2.8-2.1,5-2.8c1.7-0.7,3.7-1.2,6-1.6c2.2-0.4,4.5-0.8,6.8-1.1
	c2.3-0.3,4.7-0.5,7-0.7c2.3-0.1,4.5-0.2,6.6-0.2c14.8,0,26,3.1,33.6,9.4c7.6,6.3,11.4,14.8,11.4,25.7c0,5.2-1,10-2.9,14.3
	c-1.9,4.3-4.6,8-8.2,11c-3.6,3-8,5.4-13.1,7c-5.2,1.6-11,2.4-17.5,2.4H228.8z M238,726.6c5.3,0,9.6-1.2,12.7-3.7
	c3.2-2.4,4.7-6.1,4.7-11c0-9.7-5.8-14.5-17.3-14.5c-2,0-3.7,0.1-5.1,0.2c-1.5,0.1-2.9,0.3-4.3,0.5v28.5H238z"/>
<path fill="#FFFFFF" d="M316.9,778.1c-1.1,0.3-2.6,0.6-4.6,0.9c-2,0.3-4.1,0.4-6.5,0.4c-4.9,0-8.4-0.8-10.6-2.4
	c-2.2-1.6-3.3-4.6-3.3-9.2v-49.7c0-3,0.8-5.7,2.3-7.8c1.5-2.2,3.6-4.1,6.4-5.7c3.6-2.2,7.9-3.9,13-5.1c5.1-1.2,10.4-1.9,15.9-1.9
	c11.3,0,17,3.8,17,11.4c0,1.8-0.3,3.5-0.8,5.1c-0.5,1.5-1.1,2.8-1.8,3.9c-2.5-0.5-5.5-0.8-9.1-0.8c-3.2,0-6.3,0.4-9.5,1.1
	c-3.2,0.8-5.9,1.8-8.3,3.1V778.1z"/>
<path fill="#FFFFFF" d="M376.4,749.4c1.5,4.6,4.2,7.8,8,9.7c3.8,1.9,8.2,2.9,13.2,2.9c4.6,0,8.9-0.6,12.9-1.9c4-1.2,7.3-2.6,9.8-4.2
	c1.6,1.1,3,2.5,4.1,4.2c1.1,1.7,1.6,3.6,1.6,5.7c0,2.5-0.8,4.7-2.3,6.5c-1.5,1.8-3.6,3.4-6.3,4.6c-2.7,1.2-5.8,2.2-9.5,2.8
	c-3.6,0.6-7.6,0.9-12,0.9c-6.4,0-12.3-0.9-17.8-2.7c-5.4-1.8-10.1-4.5-14-8c-3.9-3.5-7-8-9.2-13.3c-2.2-5.3-3.3-11.6-3.3-18.8
	c0-7,1.1-13,3.3-18.1c2.2-5.1,5.2-9.3,9-12.7c3.8-3.4,8-5.8,12.9-7.4c4.8-1.6,9.8-2.4,14.9-2.4c5.5,0,10.6,0.8,15.2,2.5
	c4.6,1.7,8.6,4.1,11.9,7.1c3.3,3,5.9,6.7,7.7,10.9c1.8,4.2,2.8,8.9,2.8,13.9c0,3.5-0.9,6.1-2.8,7.8c-1.8,1.7-4.5,2.9-7.8,3.4
	L376.4,749.4z M391.9,715.8c-4.7,0-8.6,1.4-11.7,4.3c-3.1,2.9-4.9,7-5.5,12.5l31.1-5.1c-0.2-2.8-1.5-5.5-3.8-8
	C399.9,717.1,396.5,715.8,391.9,715.8z"/>
<path fill="#FFFFFF" d="M508.2,755.3c0,8-3,14.3-9,18.8c-6,4.5-14.8,6.8-26.4,6.8c-4.6,0-8.7-0.3-12.5-1c-3.8-0.7-7-1.6-9.7-2.9
	c-2.7-1.3-4.8-2.9-6.4-4.9c-1.5-2-2.3-4.2-2.3-6.8c0-2.4,0.5-4.4,1.5-6.1c1-1.7,2.2-3.1,3.8-4.2c3.2,1.8,6.7,3.5,10.8,4.9
	c4,1.4,8.7,2.1,14,2.1c7.7,0,11.6-2.2,11.6-6.5c0-1.8-0.7-3.3-2-4.2c-1.4-1-3.7-1.8-6.9-2.6l-6.5-1.5c-8.9-1.8-15.5-4.7-19.9-8.6
	c-4.3-3.9-6.5-9.3-6.5-16.2c0-7.7,3.1-13.8,9.4-18.3c6.2-4.5,14.6-6.8,25.2-6.8c3.9,0,7.6,0.3,11.1,0.9c3.5,0.6,6.5,1.5,9,2.7
	c2.5,1.2,4.5,2.7,6,4.5c1.5,1.8,2.2,3.9,2.2,6.3c0,2.2-0.4,4.1-1.3,5.8c-0.9,1.7-2,3.1-3.4,4.2c-0.9-0.5-2.1-1.1-3.8-1.8
	c-1.7-0.7-3.5-1.2-5.5-1.8c-2-0.5-4-1-6.2-1.3c-2.2-0.3-4.2-0.5-6-0.5c-3.8,0-6.8,0.5-8.9,1.5c-2.1,1-3.2,2.6-3.2,4.6
	c0,1.5,0.6,2.7,1.8,3.6c1.2,0.9,3.4,1.7,6.5,2.4l6.2,1.5c9.9,2.2,17,5.3,21.2,9.5C506.1,743.5,508.2,748.8,508.2,755.3z"/>
<path fill="#FFFFFF" d="M550.6,759c2,1.4,4.7,2,8.2,2c1.6,0,3.4-0.2,5.2-0.6c1.8-0.4,3.4-0.8,4.7-1.4c1,1.1,1.8,2.3,2.4,3.8
	c0.7,1.4,1,3,1,4.9c0,3.8-1.5,6.9-4.5,9.4c-3,2.4-8.2,3.7-15.6,3.7c-9.1,0-16.3-2.1-21.4-6.3c-5.1-4.2-7.7-11-7.7-20.5v-73.2
	c1.2-0.3,2.8-0.7,4.7-1.1c2-0.4,4.1-0.6,6.4-0.6c4.8,0,8.2,0.8,10.4,2.5c2.1,1.7,3.2,4.8,3.2,9.2v10.6h22.5c0.5,1.1,1.1,2.5,1.6,4.2
	c0.5,1.7,0.8,3.5,0.8,5.3c0,3.5-0.8,6-2.4,7.5c-1.6,1.5-3.6,2.3-6.1,2.3h-16.5v31.6C547.6,755.4,548.6,757.6,550.6,759z"/>
<path fill="#FFFFFF" d="M618.4,697.4c5.7,0,10.8,0.6,15.4,1.7c4.6,1.1,8.6,2.9,11.8,5.3c3.3,2.4,5.8,5.4,7.6,9.1
	c1.8,3.7,2.7,8,2.7,13v36.9c0,2.8-0.7,5.1-2.2,6.8c-1.5,1.7-3.2,3.1-5.3,4.3c-3.4,2.1-7.5,3.6-12.4,4.7c-4.9,1.1-10.4,1.6-16.6,1.6
	c-11.2,0-20.1-2.1-26.7-6.4c-6.6-4.3-9.9-10.8-9.9-19.6c0-7.5,2.2-13.2,6.7-17.1c4.5-3.9,11.3-6.4,20.5-7.3l21.7-2.3v-1.8
	c0-3.5-1.4-6-4.2-7.7c-2.8-1.6-6.9-2.4-12.2-2.4c-4.1,0-8.2,0.5-12.1,1.5c-4,1-7.5,2.1-10.7,3.4c-1.3-0.9-2.4-2.2-3.3-4
	c-0.9-1.8-1.4-3.7-1.4-5.8c0-4.8,2.5-8.2,7.5-10.3c3.2-1.2,6.8-2.1,11-2.7C610.3,697.7,614.4,697.4,618.4,697.4z M619.4,762.5
	c2.4,0,4.8-0.2,7.1-0.7c2.3-0.5,4.1-1.1,5.3-1.9v-15l-13.4,1.1c-3.5,0.3-6.3,1.1-8.4,2.4c-2.1,1.3-3.2,3.1-3.2,5.6
	c0,2.6,1,4.7,2.9,6.2C611.7,761.7,614.9,762.5,619.4,762.5z"/>
<path fill="#FF5E17" d="M164.2,781c-26.9,18.2-62.3,18.2-89.2,0c-1.3-0.9-1.6-2.4-0.9-3.5c0.8-1,2.3-1.2,3.5-0.4
	c25.3,17.1,58.6,17.1,83.9,0c1.2-0.8,2.7-0.6,3.5,0.4C165.9,778.6,165.5,780.2,164.2,781z"/>
</svg>
