<?xml version="1.0" encoding="utf-8"?>
<!-- Generator: Adobe Illustrator 21.0.1, SVG Export Plug-In . SVG Version: 6.00 Build 0)  -->
<!DOCTYPE svg PUBLIC "-//W3C//DTD SVG 1.1//EN" "http://www.w3.org/Graphics/SVG/1.1/DTD/svg11.dtd">
<svg version="1.1" id="Calque_1" xmlns="http://www.w3.org/2000/svg" xmlns:xlink="http://www.w3.org/1999/xlink" x="0px" y="0px"
	 viewBox="0 0 883 905" enable-background="new 0 0 883 905" xml:space="preserve">
<path fill="#072249" d="M315.6,817.3c0.1,0.8,0.1,1.8,0,3c-0.1,1.2-0.4,2.4-1,3.6c-0.9,2.1-2,3.5-3.4,4.1c-1.4,0.6-2.9,0.6-4.6-0.1
	l-21.4-9.1l-5.4,12.6l21.9,9.3c0.1,0.9,0.1,1.9,0,3c-0.1,1.1-0.4,2.3-0.9,3.6c-0.9,2.1-2.1,3.5-3.4,4.1c-1.4,0.6-2.9,0.5-4.5-0.2
	l-18-7.7l-9.2,21.5c-0.8-0.1-1.9-0.4-3.2-0.7c-1.4-0.4-2.7-0.9-4.1-1.5c-3-1.3-4.9-2.7-5.7-4.2s-0.5-3.7,0.6-6.3l18.8-43.9
	c1-2.4,2.6-4.1,4.7-4.9c2.1-0.8,4.3-0.7,6.8,0.3L315.6,817.3z"/>
<path fill="#072249" d="M316.3,883.5c-0.7,0-1.7-0.1-3-0.3c-1.3-0.2-2.6-0.5-4.1-1c-3-0.9-5-2.1-6.1-3.4c-1-1.4-1.1-3.5-0.3-6.3
	l9.3-30.6c0.6-1.9,1.5-3.3,2.9-4.4c1.3-1.1,3-1.8,5-2.3c2.6-0.7,5.6-0.9,8.9-0.7c3.3,0.2,6.7,0.8,10.1,1.8c6.9,2.1,9.7,5.5,8.3,10.2
	c-0.3,1.1-0.8,2.1-1.4,3c-0.6,0.8-1.2,1.5-1.8,2.1c-1.4-0.8-3.3-1.5-5.5-2.2c-1.9-0.6-3.9-0.9-6-1.1c-2.1-0.1-4,0-5.7,0.3
	L316.3,883.5z"/>
<path fill="#072249" d="M359.2,894.3c-0.7,0.1-1.7,0-3-0.1s-2.6-0.3-4.2-0.6c-3.1-0.7-5.2-1.6-6.3-2.9s-1.4-3.4-0.7-6.2l9.2-42.1
	c0.7-0.1,1.7-0.1,3,0c1.3,0.1,2.7,0.3,4.2,0.6c3.1,0.7,5.2,1.7,6.3,3s1.3,3.4,0.7,6.3L359.2,894.3z M356.5,827.5
	c0.5-2.3,1.7-4.1,3.7-5.4c2-1.3,4.2-1.7,6.8-1.1c2.6,0.6,4.5,1.8,5.8,3.8c1.2,2,1.6,4.1,1.1,6.5c-0.5,2.4-1.8,4.2-3.7,5.5
	c-2,1.3-4.2,1.7-6.8,1.1c-2.6-0.6-4.5-1.8-5.8-3.8C356.3,832.1,355.9,829.9,356.5,827.5z"/>
<path fill="#072249" d="M388.9,880.7c0.6,3,2.1,5.3,4.4,6.8c2.3,1.5,5,2.4,8.2,2.8c2.9,0.3,5.7,0.3,8.4-0.2s4.8-1.1,6.6-1.9
	c1,0.8,1.7,1.8,2.3,3c0.6,1.2,0.8,2.4,0.6,3.8c-0.2,1.6-0.8,2.9-1.9,4c-1.1,1.1-2.6,1.9-4.4,2.5s-3.9,1-6.2,1.1
	c-2.4,0.1-4.9,0-7.7-0.3c-4.1-0.5-7.8-1.5-11.1-3c-3.3-1.5-6.1-3.6-8.4-6.1c-2.2-2.5-3.9-5.6-4.9-9.2c-1-3.6-1.3-7.6-0.7-12.2
	c0.5-4.4,1.7-8.2,3.5-11.3c1.8-3.1,4-5.6,6.7-7.5c2.6-1.9,5.6-3.1,8.8-3.8c3.2-0.6,6.4-0.8,9.7-0.4c3.5,0.4,6.7,1.3,9.5,2.7
	c2.8,1.4,5.2,3.2,7.1,5.4c1.9,2.2,3.3,4.7,4.1,7.5c0.9,2.8,1.1,5.9,0.7,9c-0.3,2.2-1,3.8-2.3,4.8c-1.3,1-3.1,1.5-5.3,1.6
	L388.9,880.7z M401.3,860.4c-3-0.3-5.6,0.3-7.8,1.9c-2.2,1.6-3.7,4.1-4.4,7.6l20.2-0.9c0.1-1.8-0.5-3.6-1.8-5.4
	C406.3,861.8,404.2,860.7,401.3,860.4z"/>
<path fill="#072249" d="M463.2,865.4c-1.5-1.2-3.5-1.7-5.9-1.7c-1.7,0-3.2,0.3-4.6,0.7c-1.4,0.4-2.7,1-3.8,1.7l0.8,37.1
	c-0.7,0.2-1.7,0.4-2.9,0.6c-1.3,0.2-2.6,0.3-4.2,0.4c-3.1,0.1-5.4-0.4-6.8-1.4c-1.4-1-2.2-2.9-2.2-5.9l-0.7-32.4
	c0-1.8,0.3-3.3,1.1-4.4c0.7-1.1,1.8-2.2,3.2-3.2c2.2-1.7,5.1-3,8.6-4.1c3.5-1.1,7.4-1.6,11.6-1.7c7.6-0.2,13.5,1.4,17.8,4.6
	c4.2,3.3,6.4,8,6.5,14.2l0.7,32.5c-0.8,0.2-1.8,0.4-3,0.6s-2.6,0.3-4.2,0.4c-3.1,0.1-5.4-0.4-6.8-1.4c-1.4-1-2.1-2.9-2.2-5.9
	l-0.5-25.5C465.5,868.3,464.7,866.5,463.2,865.4z"/>
<path fill="#072249" d="M513.3,845.9c1.6-0.3,3.1-0.4,4.6-0.4c1.5,0,2.8,0.1,4,0.3l-2.9-17.4c0.7-0.3,1.7-0.7,2.9-1.1
	c1.2-0.4,2.6-0.7,4.1-1c3.1-0.5,5.4-0.4,6.9,0.4c1.5,0.8,2.5,2.7,3,5.6l8.3,50.3c0.3,1.7,0.2,3.1-0.3,4.4c-0.5,1.3-1.4,2.5-2.8,3.7
	c-1.7,1.5-4,3-6.9,4.4c-2.9,1.5-6.3,2.5-10.2,3.2c-8.7,1.4-15.9,0.4-21.6-3.2c-5.7-3.5-9.3-9.7-10.8-18.4c-0.8-4.5-0.7-8.6,0.1-12.1
	c0.8-3.5,2.2-6.6,4.2-9.2c2-2.6,4.5-4.7,7.5-6.3C506.3,847.6,509.7,846.5,513.3,845.9z M524.1,858.5c-1-0.3-2-0.5-3.1-0.6
	c-1.1-0.1-2.3-0.1-3.4,0.1c-3.7,0.6-6.5,2.2-8.3,4.9s-2.3,6.4-1.5,11.4c0.8,4.8,2.4,8,4.9,9.9c2.5,1.8,5.6,2.4,9.3,1.8
	c1.4-0.2,2.7-0.6,3.8-1.1c1.1-0.5,1.9-1,2.6-1.5L524.1,858.5z"/>
<path fill="#072249" d="M596.3,863.2c1.5,4.9,0.8,9.4-2,13.3c-2.8,3.9-7.8,6.9-15,9.1c-2.8,0.9-5.4,1.4-7.9,1.7
	c-2.4,0.3-4.6,0.3-6.5,0c-1.9-0.3-3.5-0.9-4.8-1.8s-2.2-2.2-2.7-3.8c-0.4-1.5-0.5-2.8-0.2-4c0.3-1.2,0.8-2.3,1.5-3.3
	c2.3,0.5,4.8,0.9,7.5,1c2.7,0.1,5.7-0.3,9-1.3c4.7-1.4,6.7-3.5,5.9-6.2c-0.3-1.1-1-1.9-2-2.2c-1-0.3-2.6-0.4-4.7-0.3l-4.3,0.3
	c-5.8,0.5-10.4,0-13.8-1.5c-3.4-1.6-5.7-4.5-7-8.8c-1.4-4.7-0.7-9.1,2.3-13c3-3.9,7.7-6.9,14.2-8.9c2.4-0.7,4.7-1.2,7-1.5
	c2.2-0.3,4.3-0.3,6,0c1.8,0.3,3.3,0.8,4.5,1.6c1.2,0.8,2.1,2,2.5,3.4c0.4,1.3,0.5,2.6,0.3,3.8c-0.2,1.2-0.7,2.3-1.3,3.2
	c-0.6-0.2-1.5-0.3-2.7-0.4c-1.2-0.1-2.4-0.1-3.7-0.1c-1.3,0-2.7,0.2-4.1,0.4c-1.4,0.2-2.7,0.5-3.8,0.8c-2.3,0.7-4.1,1.6-5.2,2.6
	c-1.1,1-1.5,2.2-1.1,3.5c0.3,0.9,0.9,1.6,1.8,1.9c0.9,0.3,2.4,0.4,4.5,0.3l4.1-0.3c6.5-0.5,11.4,0.1,14.8,1.8
	S595.1,859.2,596.3,863.2z"/>
<path fill="#072249" d="M645.4,823.2c1.2,2.5,1.9,4.8,2.1,7.2c0.2,2.3,0,4.5-0.7,6.5c-0.7,2-1.7,3.8-3.3,5.5c-1.5,1.7-3.5,3-5.8,4.2
	c-2.3,1.1-4.6,1.7-6.9,1.9c-2.3,0.2-4.4-0.1-6.3-0.9c-2-0.7-3.8-1.9-5.5-3.6c-1.7-1.6-3.1-3.7-4.3-6.1c-1.2-2.5-1.9-4.8-2.1-7.2
	c-0.2-2.3,0-4.5,0.7-6.5c0.7-2,1.8-3.9,3.3-5.5s3.4-3,5.7-4.1c2.3-1.1,4.5-1.7,6.8-1.9c2.3-0.2,4.4,0.1,6.4,0.9
	c2,0.8,3.8,1.9,5.5,3.6C642.8,818.7,644.2,820.7,645.4,823.2z M625,819.9c-2.6,1.2-4.2,3.1-4.8,5.7c-0.6,2.6-0.1,5.5,1.5,8.9
	c1.6,3.4,3.6,5.6,5.9,6.7c2.3,1.1,4.8,1.1,7.5-0.2c2.7-1.3,4.3-3.2,4.9-5.7c0.6-2.5,0.1-5.5-1.5-8.8c-1.6-3.3-3.6-5.6-6-6.7
	C630.2,818.6,627.6,818.7,625,819.9z"/>
<path fill="#072249" d="M651,803l11.7-6.8c0.3,0.2,0.7,0.4,1.1,0.7c0.4,0.3,0.8,0.8,1.1,1.4c1,1.7,0.7,3.1-0.8,4l-9.8,5.7l12.8,21.9
	c-0.2,0.3-0.6,0.6-1,1c-0.5,0.4-1,0.8-1.6,1.1c-1.2,0.7-2.2,1-3.1,0.9c-0.8-0.1-1.6-0.7-2.2-1.8L642.6,803c-1.1-1.9-1.8-3.7-2-5.4
	c-0.2-1.7-0.1-3.3,0.4-4.7c0.5-1.5,1.4-2.8,2.6-4.1c1.2-1.3,2.7-2.4,4.5-3.5c2.6-1.5,4.7-2.3,6.4-2.4c1.7-0.1,3,0.4,3.7,1.6
	c0.3,0.6,0.5,1.1,0.5,1.7c0,0.6,0,1.1-0.2,1.6c-1,0.1-2.1,0.4-3.2,0.7c-1.2,0.4-2.3,0.8-3.4,1.5c-2.3,1.3-3.7,2.8-4.1,4.2
	c-0.5,1.5-0.1,3.3,1.1,5.3L651,803z"/>
<path fill="#072249" d="M714.9,791l12.7,15.8c-0.5,0.6-1.2,1.5-2.2,2.5c-1,1-2.1,2-3.3,3c-2.6,2.1-4.7,3.1-6.4,3
	c-1.7-0.1-3.5-1.2-5.3-3.5l-31.8-39.6c-0.9-1.1-1.3-2.2-1.2-3.2c0.1-1.1,0.5-2.2,1.4-3.4c0.6-1,1.4-2.1,2.3-3.2
	c0.9-1.1,1.9-2.2,3-3.3c1-1.1,2.1-2.2,3.3-3.1c1.1-1,2.2-1.9,3.2-2.7c7.4-5.9,14.3-8.9,20.6-8.8c6.3,0.1,11.7,2.8,16,8.3
	c2.1,2.6,3.5,5.4,4.3,8.3s0.9,5.9,0.3,8.8c-0.6,3-1.8,5.9-3.8,8.8c-1.9,2.9-4.5,5.7-7.8,8.3L714.9,791z M711.4,777.3
	c2.7-2.1,4.3-4.5,4.9-7c0.6-2.5-0.1-5-2.1-7.4c-3.9-4.8-8.7-5-14.5-0.3c-1,0.8-1.8,1.5-2.5,2.1c-0.7,0.6-1.3,1.3-2,2l11.5,14.3
	L711.4,777.3z"/>
<path fill="#072249" d="M771.8,767.3c-0.3,0.6-0.9,1.5-1.6,2.5c-0.8,1-1.7,2.1-2.8,3.2c-2.2,2.2-4.2,3.5-5.9,3.8
	c-1.7,0.3-3.6-0.6-5.7-2.7l-22.7-22.4c-1.4-1.4-2.2-2.9-2.5-4.6c-0.3-1.7-0.2-3.5,0.3-5.5c0.6-2.6,1.8-5.4,3.5-8.2
	c1.7-2.9,3.8-5.6,6.3-8.1c5.1-5.2,9.4-6,12.9-2.6c0.8,0.8,1.5,1.7,1.9,2.7c0.5,0.9,0.8,1.8,1,2.6c-1.4,0.9-2.9,2.2-4.5,3.8
	c-1.4,1.4-2.7,3.1-3.7,4.8c-1.1,1.8-1.9,3.5-2.3,5.2L771.8,767.3z"/>
<path fill="#072249" d="M784.7,725.5c2.9,1,5.6,1,8.1-0.2c2.5-1.2,4.7-3,6.7-5.5c1.8-2.3,3.2-4.7,4.2-7.3c1-2.5,1.6-4.7,1.8-6.6
	c1.2-0.4,2.5-0.5,3.8-0.4c1.3,0.1,2.5,0.6,3.5,1.4c1.3,1,2.1,2.2,2.4,3.7c0.3,1.5,0.3,3.2-0.1,5c-0.4,1.8-1.2,3.8-2.4,5.9
	c-1.1,2.1-2.6,4.2-4.3,6.4c-2.5,3.2-5.4,5.9-8.4,7.9c-3.1,2-6.3,3.3-9.6,3.9c-3.3,0.6-6.8,0.4-10.4-0.6c-3.6-1-7.2-2.9-10.8-5.8
	c-3.5-2.8-6.1-5.7-7.8-8.9c-1.7-3.2-2.6-6.3-2.9-9.6s0.2-6.4,1.4-9.5s2.7-5.9,4.7-8.5c2.2-2.8,4.6-5,7.3-6.7
	c2.7-1.7,5.5-2.7,8.3-3.2c2.9-0.5,5.7-0.3,8.6,0.4c2.9,0.8,5.6,2.1,8.1,4.1c1.8,1.4,2.7,2.9,2.9,4.5c0.1,1.6-0.3,3.4-1.4,5.3
	L784.7,725.5z M773.9,704.3c-1.9,2.4-2.7,4.9-2.4,7.6c0.2,2.7,1.6,5.3,4.1,7.7l9.8-17.7c-1.5-1-3.4-1.4-5.5-1.3
	C777.7,700.8,775.7,702,773.9,704.3z"/>
<path fill="#072249" d="M835.8,656.5c4.4,2.7,6.9,6.4,7.4,11.2c0.5,4.8-1.2,10.4-5,16.8c-1.5,2.5-3.1,4.7-4.7,6.6
	c-1.6,1.9-3.2,3.3-4.8,4.4c-1.6,1.1-3.2,1.7-4.8,1.9c-1.6,0.2-3.1-0.1-4.5-1c-1.3-0.8-2.3-1.7-2.9-2.8c-0.6-1.1-1-2.2-1.1-3.4
	c2.1-1.1,4.1-2.6,6.2-4.3c2.1-1.7,4-4.1,5.8-7c2.5-4.3,2.6-7.1,0.2-8.5c-1-0.6-2-0.7-3-0.3c-1,0.4-2.2,1.4-3.7,3l-3,3.1
	c-4,4.3-7.7,7-11.3,8.1c-3.6,1.1-7.3,0.5-11.1-1.8c-4.3-2.5-6.6-6.3-7-11.2c-0.4-4.9,1.1-10.3,4.6-16.1c1.3-2.2,2.7-4.1,4.2-5.8
	c1.5-1.7,3-3.1,4.4-4.1c1.5-1,3-1.6,4.4-1.8c1.5-0.2,2.9,0.1,4.2,0.9c1.2,0.7,2.1,1.6,2.8,2.6c0.6,1,1,2.1,1.2,3.3
	c-0.6,0.3-1.3,0.8-2.3,1.5c-0.9,0.7-1.8,1.5-2.8,2.4c-0.9,0.9-1.9,1.9-2.8,3c-0.9,1.1-1.7,2.1-2.3,3.2c-1.3,2.1-1.9,3.9-2.1,5.4
	c-0.1,1.5,0.4,2.6,1.5,3.3c0.8,0.5,1.7,0.6,2.6,0.2c0.9-0.4,2-1.3,3.5-2.8l2.9-2.9c4.5-4.7,8.5-7.6,12.2-8.6
	S832.2,654.4,835.8,656.5z"/>
<path fill="#072249" d="M849.9,632.1c1.3-0.8,2.4-2.2,3.4-4.2c0.4-1,0.8-2,1.1-3.2c0.3-1.2,0.4-2.2,0.5-3.1c0.9-0.3,1.8-0.4,2.8-0.4
	c1,0,2,0.3,3.1,0.8c2.2,1,3.6,2.7,4.3,5.1c0.6,2.4-0.1,5.8-2.1,10.1c-2.5,5.3-5.6,8.9-9.4,10.8c-3.8,1.8-8.5,1.5-14-1.1L796.8,627
	c0.1-0.8,0.4-1.8,0.7-3c0.3-1.2,0.8-2.5,1.4-3.9c1.3-2.8,2.7-4.6,4.3-5.4c1.6-0.8,3.6-0.6,6.2,0.6l6.2,2.9l6.1-13.1
	c0.8,0,1.7,0,2.9,0.2c1.1,0.1,2.2,0.5,3.3,1c2,0.9,3.3,2.1,3.7,3.4c0.5,1.3,0.4,2.7-0.3,4.2l-4.4,9.6l18.4,8.5
	C847,632.8,848.5,632.8,849.9,632.1z"/>
<path fill="#072249" d="M828.8,577.8c1.1-3.4,2.5-6.5,4.2-9s3.5-4.6,5.6-6.1s4.5-2.4,7.1-2.8c2.6-0.3,5.5,0,8.5,1l22.5,7.5
	c1.7,0.6,3,1.5,3.7,2.7c0.7,1.2,1.2,2.6,1.6,4.1c0.6,2.5,0.7,5.3,0.4,8.5c-0.3,3.2-1.1,6.7-2.4,10.5c-2.3,6.8-5.4,11.8-9.3,15
	c-4,3.2-8.6,3.9-14,2.1c-4.6-1.5-7.6-4-9.1-7.5c-1.5-3.5-1.6-8.2-0.3-14l3-13.7l-1.1-0.4c-2.1-0.7-4-0.4-5.5,1c-1.6,1.4-2.9,3.7-4,7
	c-0.8,2.5-1.4,5.1-1.6,7.7c-0.2,2.6-0.2,5-0.1,7.2c-0.8,0.6-1.8,1-3.1,1.2c-1.3,0.2-2.6,0.1-3.8-0.3c-2.9-1-4.5-3.2-4.7-6.7
	c-0.1-2.2,0.1-4.6,0.6-7.3C827.3,582.8,828,580.3,828.8,577.8z M868.7,590.4c0.5-1.5,0.8-2.9,1-4.5c0.2-1.5,0.2-2.7-0.1-3.6l-9.1-3
	l-2,8.4c-0.5,2.2-0.6,4.1-0.3,5.6c0.3,1.5,1.3,2.6,2.8,3.1c1.6,0.5,3,0.4,4.4-0.5C866.7,594.9,867.8,593.1,868.7,590.4z"/>
<path fill="#072249" d="M7.4,332.6c0.8-0.3,1.7-0.5,2.9-0.6c1.2-0.1,2.4,0,3.7,0.2c2.3,0.5,3.8,1.3,4.7,2.5c0.9,1.2,1.1,2.7,0.8,4.5
	l-4.8,22.8l13.4,2.8l4.9-23.3c0.8-0.3,1.8-0.5,2.9-0.6c1.1-0.2,2.3-0.1,3.7,0.2c2.3,0.5,3.8,1.3,4.6,2.6c0.8,1.2,1.1,2.7,0.7,4.4
	l-4,19.2l22.9,4.8c0,0.8,0,1.9-0.1,3.3c-0.1,1.4-0.3,2.9-0.7,4.4c-0.7,3.2-1.7,5.3-3.1,6.4c-1.4,1-3.5,1.2-6.3,0.6L6.9,377
	c-2.6-0.5-4.5-1.8-5.7-3.6c-1.2-1.9-1.5-4.1-1-6.7L7.4,332.6z"/>
<path fill="#072249" d="M76,326.3c0,0.7-0.1,1.7-0.4,3c-0.2,1.2-0.6,2.6-1.1,4.1c-1,3-2.2,5-3.6,6c-1.4,1-3.5,1.1-6.3,0.1l-30.4-10
	c-1.9-0.6-3.3-1.6-4.3-3c-1-1.4-1.8-3-2.2-5c-0.6-2.6-0.8-5.6-0.5-8.9c0.2-3.3,0.9-6.7,2-10.1c2.3-6.9,5.7-9.6,10.4-8.1
	c1.1,0.4,2.1,0.9,2.9,1.5c0.8,0.6,1.5,1.3,2,1.9c-0.8,1.4-1.6,3.2-2.3,5.4c-0.6,1.9-1,3.9-1.2,6c-0.2,2.1-0.1,4,0.2,5.7L76,326.3z"
	/>
<path fill="#072249" d="M23.9,280c-2.2-0.9-3.7-2.5-4.6-4.6c-0.9-2.2-0.8-4.5,0.2-6.9c1-2.4,2.6-4.1,4.8-5c2.2-0.9,4.4-0.8,6.6,0.1
	c2.3,0.9,3.8,2.5,4.7,4.7c0.9,2.2,0.8,4.5-0.2,6.9c-1,2.4-2.6,4.1-4.8,5C28.4,281,26.1,280.9,23.9,280z M90.1,289.5
	c-0.1,0.7-0.3,1.7-0.6,2.9c-0.3,1.2-0.8,2.5-1.4,4c-1.2,2.9-2.6,4.8-4,5.6s-3.5,0.7-6.2-0.4l-39.7-16.7c0.1-0.7,0.3-1.7,0.6-2.9
	c0.3-1.2,0.7-2.6,1.3-4c1.2-2.9,2.6-4.8,4.1-5.6c1.5-0.8,3.6-0.7,6.3,0.4L90.1,289.5z"/>
<path fill="#072249" d="M83.4,260.8c3,0.5,5.7,0,7.9-1.5c2.2-1.6,4.1-3.8,5.7-6.6c1.4-2.6,2.4-5.2,2.9-7.8c0.5-2.7,0.7-4.9,0.7-6.8
	c1.1-0.6,2.3-0.9,3.6-1c1.3-0.1,2.6,0.2,3.7,0.8c1.4,0.8,2.4,1.9,3,3.3c0.6,1.4,0.8,3.1,0.7,5c-0.1,1.9-0.6,4-1.3,6.2
	c-0.8,2.2-1.8,4.6-3.2,7c-2,3.6-4.3,6.7-7,9.2c-2.7,2.5-5.6,4.3-8.8,5.5c-3.2,1.1-6.6,1.5-10.3,1.1c-3.7-0.4-7.6-1.7-11.6-3.9
	c-3.9-2.1-7-4.6-9.2-7.4c-2.2-2.8-3.7-5.8-4.4-9c-0.8-3.2-0.8-6.3-0.2-9.5c0.6-3.2,1.7-6.3,3.2-9.1c1.7-3.1,3.7-5.7,6.1-7.8
	s4.9-3.6,7.7-4.5c2.7-0.9,5.6-1.3,8.5-1c3,0.3,5.9,1.2,8.7,2.7c2,1.1,3.2,2.4,3.6,4c0.4,1.6,0.3,3.4-0.5,5.5L83.4,260.8z
	 M69.2,241.7c-1.4,2.6-1.8,5.3-1.1,7.9c0.7,2.6,2.5,4.9,5.4,6.9l6.7-19.1c-1.7-0.7-3.5-0.9-5.7-0.3
	C72.4,237.6,70.6,239.1,69.2,241.7z"/>
<path fill="#072249" d="M106.5,188.9c-1.8,0.5-3.5,1.7-4.9,3.7c-1,1.3-1.7,2.7-2.2,4.1c-0.5,1.4-0.8,2.7-1,4.1l29.8,22.1
	c-0.2,0.7-0.7,1.6-1.3,2.7c-0.6,1.1-1.4,2.3-2.3,3.5c-1.9,2.5-3.6,4-5.3,4.6c-1.6,0.5-3.6-0.1-6-1.8l-26-19.3
	c-1.5-1.1-2.4-2.3-2.9-3.5c-0.4-1.3-0.6-2.8-0.6-4.5c0-2.8,0.7-5.8,2-9.3c1.3-3.4,3.2-6.8,5.8-10.3c4.5-6.1,9.4-9.8,14.5-11.2
	c5.2-1.3,10.2-0.2,15.2,3.5l26.1,19.3c-0.3,0.7-0.7,1.7-1.3,2.8c-0.6,1.1-1.4,2.3-2.3,3.5c-1.9,2.5-3.6,4-5.2,4.5s-3.6-0.1-6-1.9
	l-20.5-15.1C110.2,188.9,108.3,188.4,106.5,188.9z"/>
<path fill="#072249" d="M132.5,137.3c1.1-1.1,2.3-2.1,3.5-3c1.2-0.8,2.3-1.5,3.5-2.1l-12.5-12.4c0.4-0.7,1-1.6,1.7-2.6
	c0.7-1,1.6-2.1,2.7-3.2c2.2-2.2,4.2-3.5,5.9-3.7c1.7-0.2,3.6,0.7,5.7,2.8l36.2,35.9c1.2,1.2,1.9,2.4,2.3,3.7
	c0.3,1.3,0.3,2.9-0.1,4.6c-0.5,2.2-1.5,4.8-3,7.6c-1.5,2.9-3.6,5.7-6.4,8.5c-6.2,6.2-12.7,9.6-19.4,10.1c-6.7,0.5-13.2-2.4-19.5-8.7
	c-3.3-3.2-5.6-6.5-7-9.9c-1.4-3.3-2.1-6.6-2-9.9c0.1-3.3,0.9-6.4,2.4-9.5C127.8,142.8,129.8,139.9,132.5,137.3z M148.5,141.1
	c-0.9,0.3-1.9,0.8-2.9,1.3c-1,0.5-1.9,1.2-2.7,2.1c-2.7,2.7-4,5.6-3.9,8.8c0.1,3.2,1.9,6.6,5.4,10.1c3.4,3.4,6.7,5.1,9.7,5.1
	c3.1,0,5.9-1.3,8.6-4c1-1,1.8-2.1,2.4-3.1c0.6-1,1-2,1.2-2.7L148.5,141.1z"/>
<path fill="#072249" d="M216.3,114.6c3.2,4.1,4.1,8.5,2.8,13.1c-1.3,4.6-4.9,9.2-10.8,13.8c-2.3,1.8-4.6,3.3-6.7,4.4
	c-2.2,1.1-4.2,1.9-6.1,2.3c-1.9,0.4-3.6,0.4-5.2,0c-1.5-0.4-2.8-1.3-3.9-2.6c-0.9-1.2-1.5-2.4-1.7-3.7c-0.2-1.2-0.1-2.4,0.3-3.6
	c2.3-0.3,4.8-0.9,7.4-1.7c2.6-0.9,5.3-2.3,8-4.4c3.9-3,5-5.7,3.3-7.9c-0.7-0.9-1.6-1.4-2.7-1.4c-1.1,0-2.6,0.5-4.5,1.4l-3.9,1.8
	c-5.3,2.6-9.7,3.7-13.5,3.5c-3.7-0.3-7-2.1-9.7-5.7c-3-3.9-3.8-8.3-2.4-13c1.4-4.7,4.8-9.2,10.1-13.3c2-1.5,4-2.8,6-3.9
	c2-1.1,3.9-1.8,5.6-2.2c1.7-0.4,3.3-0.4,4.8-0.1s2.6,1.1,3.6,2.3c0.9,1.1,1.4,2.3,1.6,3.5c0.2,1.2,0.2,2.4-0.1,3.5
	c-0.7,0.1-1.5,0.3-2.7,0.6c-1.1,0.3-2.3,0.7-3.5,1.2c-1.2,0.5-2.4,1.1-3.7,1.8c-1.2,0.7-2.3,1.4-3.3,2.1c-1.9,1.5-3.2,2.9-3.9,4.3
	c-0.7,1.4-0.6,2.6,0.2,3.6c0.6,0.8,1.4,1.1,2.3,1.1c1,0,2.4-0.5,4.3-1.3l3.7-1.7c5.9-2.8,10.7-4,14.5-3.5
	C210.6,109.4,213.7,111.3,216.3,114.6z"/>
<path fill="#072249" d="M257.4,71.2c1.3,2.4,2.2,4.7,2.5,7c0.4,2.3,0.3,4.5-0.3,6.5c-0.5,2-1.5,3.9-2.9,5.7
	c-1.4,1.7-3.3,3.3-5.5,4.5c-2.2,1.3-4.5,2-6.7,2.3c-2.2,0.3-4.4,0.1-6.4-0.5c-2-0.6-3.9-1.7-5.7-3.2c-1.8-1.5-3.3-3.5-4.6-5.9
	c-1.3-2.4-2.2-4.7-2.5-7c-0.4-2.3-0.3-4.5,0.3-6.5c0.5-2.1,1.5-4,3-5.7c1.4-1.7,3.2-3.2,5.5-4.5c2.2-1.2,4.4-2,6.7-2.3
	c2.2-0.3,4.4-0.1,6.4,0.5c2,0.6,4,1.7,5.7,3.2C254.5,66.9,256.1,68.9,257.4,71.2z M236.9,69.2c-2.5,1.4-4,3.4-4.4,6
	c-0.5,2.6,0.2,5.5,2,8.8c1.8,3.3,3.9,5.4,6.3,6.4c2.4,1,4.9,0.8,7.5-0.7c2.6-1.4,4.1-3.4,4.5-6c0.4-2.6-0.3-5.5-2.1-8.7
	c-1.8-3.2-3.9-5.3-6.3-6.3C241.9,67.6,239.4,67.8,236.9,69.2z"/>
<path fill="#072249" d="M265.2,51.6l12.3-5.6c0.3,0.2,0.6,0.5,1,0.9c0.4,0.4,0.7,0.9,1,1.5c0.8,1.8,0.4,3.1-1.2,3.9l-10.4,4.7
	L278.3,80c-0.2,0.3-0.6,0.6-1.1,0.9s-1.1,0.7-1.7,1c-1.3,0.6-2.3,0.8-3.1,0.6c-0.8-0.2-1.5-0.9-2-2l-13.5-29.7
	c-0.9-2-1.4-3.8-1.5-5.5c-0.1-1.7,0.2-3.3,0.9-4.7c0.7-1.4,1.7-2.7,3-3.8c1.3-1.1,3-2.1,4.8-3c2.7-1.2,4.9-1.8,6.7-1.8
	c1.8,0,2.9,0.7,3.5,2c0.3,0.6,0.4,1.2,0.4,1.8c0,0.6-0.1,1.1-0.3,1.6c-1,0-2.1,0.2-3.3,0.4c-1.2,0.2-2.4,0.6-3.5,1.1
	c-2.4,1.1-4,2.4-4.6,3.8c-0.6,1.4-0.4,3.2,0.6,5.4L265.2,51.6z"/>
<path fill="#072249" d="M330.6,54.2l5.5,19.5c-0.7,0.4-1.7,0.9-3,1.4c-1.3,0.5-2.7,1-4.2,1.4c-3.2,0.9-5.5,1-7.1,0.2
	c-1.5-0.7-2.7-2.5-3.5-5.3l-13.7-48.9c-0.4-1.3-0.3-2.5,0.2-3.4c0.5-0.9,1.4-1.8,2.6-2.6c1-0.7,2.1-1.4,3.4-2c1.3-0.7,2.6-1.3,4-1.9
	c1.4-0.6,2.8-1.1,4.2-1.6c1.4-0.5,2.8-0.9,4.1-1.2c9.1-2.6,16.6-2.6,22.4,0c5.8,2.5,9.6,7.2,11.5,13.9c0.9,3.2,1.1,6.3,0.7,9.3
	c-0.4,3-1.5,5.7-3.2,8.2c-1.7,2.5-4,4.7-6.9,6.6c-2.9,1.9-6.4,3.4-10.4,4.6L330.6,54.2z M332.8,40.2c3.3-0.9,5.7-2.4,7.2-4.5
	c1.5-2.1,1.9-4.6,1-7.6c-1.7-6-6.1-8-13.2-6c-1.2,0.3-2.3,0.7-3.1,1c-0.9,0.3-1.8,0.7-2.6,1.1l4.9,17.7L332.8,40.2z"/>
<path fill="#072249" d="M387.2,62.2c-0.7,0.3-1.6,0.7-2.8,1c-1.2,0.4-2.6,0.7-4.1,0.9c-3.1,0.5-5.4,0.3-7-0.4
	c-1.5-0.8-2.5-2.6-3-5.5l-5-31.6c-0.3-1.9-0.1-3.7,0.7-5.2c0.7-1.5,1.9-3,3.5-4.3c2.1-1.7,4.6-3.3,7.7-4.6s6.4-2.2,9.9-2.8
	c7.2-1.1,11.1,0.7,11.9,5.5c0.2,1.2,0.2,2.3,0,3.3c-0.2,1-0.4,1.9-0.7,2.7c-1.6-0.1-3.6,0-5.9,0.4c-2,0.3-4,0.9-5.9,1.7
	c-1.9,0.8-3.6,1.7-5,2.8L387.2,62.2z"/>
<path fill="#072249" d="M420.5,39.9c1.1,2.9,2.9,4.9,5.4,6c2.5,1.1,5.3,1.6,8.6,1.5c2.9-0.1,5.7-0.7,8.2-1.6
	c2.5-0.9,4.6-1.9,6.2-2.9c1.1,0.7,2,1.5,2.7,2.6c0.7,1.1,1.1,2.3,1.2,3.6c0.1,1.6-0.4,3-1.3,4.3c-0.9,1.2-2.2,2.3-3.9,3.2
	c-1.7,0.9-3.7,1.6-6,2c-2.3,0.5-4.9,0.8-7.7,0.9c-4.1,0.2-7.9-0.2-11.5-1.2c-3.5-1-6.6-2.6-9.2-4.7c-2.6-2.2-4.7-4.9-6.3-8.3
	c-1.6-3.4-2.5-7.3-2.7-11.9c-0.2-4.5,0.3-8.4,1.6-11.7c1.3-3.3,3.1-6.1,5.4-8.4c2.3-2.3,5-4,8.1-5.1c3.1-1.1,6.2-1.8,9.5-1.9
	c3.6-0.2,6.8,0.2,9.9,1.2c3,1,5.6,2.4,7.8,4.2c2.2,1.9,4,4.1,5.3,6.8c1.3,2.7,2,5.6,2.2,8.8c0.1,2.2-0.4,3.9-1.6,5.1
	c-1.1,1.2-2.8,2-4.9,2.4L420.5,39.9z M429.5,17.9c-3,0.1-5.5,1.2-7.4,3.1c-1.9,1.9-3,4.7-3.2,8.2l19.8-4.1c-0.2-1.8-1.1-3.5-2.6-5
	C434.7,18.5,432.4,17.8,429.5,17.9z"/>
<path fill="#072249" d="M502.8,46.1c-0.4,5.2-2.7,9-6.7,11.6c-4.1,2.6-9.8,3.5-17.3,2.9c-2.9-0.2-5.6-0.7-7.9-1.3s-4.4-1.4-6.1-2.4
	c-1.7-1-2.9-2.1-3.8-3.5c-0.9-1.3-1.2-2.8-1.1-4.5c0.1-1.5,0.5-2.8,1.3-3.8c0.7-1,1.6-1.8,2.6-2.5c1.9,1.4,4.1,2.6,6.6,3.7
	c2.5,1.1,5.5,1.8,8.9,2.1c4.9,0.4,7.5-0.8,7.8-3.6c0.1-1.2-0.3-2.1-1.1-2.8s-2.2-1.4-4.3-2l-4.1-1.3c-5.6-1.7-9.7-3.8-12.3-6.5
	c-2.6-2.7-3.7-6.3-3.3-10.7c0.4-4.9,2.7-8.7,7-11.2c4.2-2.6,9.7-3.6,16.5-3c2.5,0.2,4.9,0.6,7.1,1.2c2.2,0.6,4.1,1.3,5.6,2.2
	c1.5,0.9,2.7,2,3.6,3.2c0.8,1.2,1.2,2.6,1.1,4.1c-0.1,1.4-0.5,2.6-1.1,3.6c-0.6,1-1.5,1.9-2.4,2.5c-0.5-0.4-1.3-0.8-2.4-1.4
	c-1-0.5-2.2-1-3.4-1.4c-1.2-0.5-2.5-0.8-3.9-1.2c-1.4-0.3-2.7-0.5-3.8-0.6c-2.4-0.2-4.4,0-5.8,0.5c-1.4,0.5-2.2,1.5-2.3,2.8
	c-0.1,1,0.2,1.8,1,2.4c0.7,0.6,2.1,1.3,4,1.9l3.9,1.3c6.2,1.9,10.6,4.3,13.1,7.2C502.1,38.4,503.2,41.9,502.8,46.1z"/>
<path fill="#072249" d="M526.9,53.1c1.1,1.1,2.7,1.9,4.9,2.3c1,0.2,2.1,0.3,3.4,0.3c1.2,0,2.3-0.1,3.2-0.3c0.5,0.8,0.8,1.7,1.1,2.7
	c0.2,1,0.2,2,0,3.2c-0.5,2.4-1.8,4.2-4,5.4c-2.2,1.2-5.6,1.3-10.3,0.4c-5.8-1.1-10-3.3-12.7-6.5c-2.7-3.3-3.5-7.9-2.4-13.8L519,0.4
	c0.8-0.1,1.8-0.1,3.1-0.1c1.3,0,2.6,0.1,4.1,0.4c3,0.6,5.1,1.5,6.2,2.8c1.1,1.3,1.4,3.4,0.9,6.2l-1.3,6.7l14.2,2.7
	c0.2,0.8,0.4,1.7,0.5,2.8c0.1,1.1,0.1,2.3-0.1,3.4c-0.4,2.2-1.2,3.7-2.4,4.4c-1.2,0.8-2.6,1-4.1,0.7l-10.4-2l-3.8,20
	C525.5,50.5,525.8,52,526.9,53.1z"/>
<path fill="#072249" d="M578.4,25.4c3.5,1.1,6.5,2.4,9.1,4c2.6,1.6,4.7,3.4,6.2,5.5c1.5,2.1,2.5,4.4,2.9,7.1
	c0.4,2.6,0.1,5.4-0.8,8.5l-7.1,22.6c-0.5,1.7-1.4,3-2.6,3.7c-1.2,0.8-2.6,1.3-4.1,1.6c-2.5,0.6-5.3,0.8-8.5,0.5
	c-3.2-0.3-6.7-1-10.5-2.2c-6.9-2.1-11.9-5.2-15.2-9.1c-3.2-3.9-4-8.6-2.3-14c1.4-4.6,3.9-7.7,7.4-9.2c3.5-1.5,8.2-1.7,14-0.6
	l13.7,2.8l0.3-1.1c0.7-2.1,0.3-4-1.1-5.5c-1.4-1.5-3.8-2.8-7-3.8c-2.5-0.8-5.1-1.3-7.7-1.4c-2.6-0.2-5-0.1-7.2,0.1
	c-0.6-0.8-1.1-1.8-1.3-3.1c-0.2-1.3-0.1-2.5,0.3-3.8c0.9-2.9,3.1-4.6,6.6-4.9c2.2-0.1,4.6,0,7.3,0.5C573.4,24,575.9,24.6,578.4,25.4
	z M566.5,65.5c1.5,0.5,3,0.8,4.5,0.9c1.5,0.1,2.7,0.1,3.6-0.1l2.9-9.2l-8.4-1.9c-2.2-0.5-4.1-0.5-5.6-0.2s-2.5,1.3-3,2.8
	c-0.5,1.6-0.3,3.1,0.6,4.4S563.8,64.6,566.5,65.5z"/>
<path fill="#072249" d="M704.4,648.8c-25.4,33-57,60.9-93,82.2c-48.5,28.6-104.9,44.9-165.3,44.9c-29.2,0-57.5-3.8-84.5-11.1
	c-75.3-20.1-139.8-66.6-183.2-128.8c-6.2-8.9,2.7-20.4,12.8-16.7c29.5,10.6,52.3,14.2,63.7,5.3c15-11.7,17.1-43.1-28.9-108.7
	c-43.9-62.7-97.2-148.6,6.5-266.6c94.7-107.6,230.2-112.8,326.7-62.9c-0.2,0-0.3,0.1-0.3,0.1c16.4,12.3,29.8,23.6,40.9,34
	c1.1,1,2.2,2.1,3.2,3.1c27,26,39,46.1,47,63.1c-58.8-70.4-178.6-70.7-266.1-34.5c-116.9,48.4-176,190.6-162.5,226.7
	c0.4,1.2,0.9,2.2,1.5,3.1c16.7,26.8,153,94.2,257.8,94.2c2.7,0,5.4,0,8-0.1c1.3,0,2.6-0.1,3.9-0.2c0,0,0,0,0,0
	c1.3-0.1,2.6-0.1,3.9-0.2c0,0,0,0,0,0c1.3-0.1,2.6-0.2,3.9-0.3c1.3-0.1,2.6-0.2,3.8-0.4c1.3-0.1,2.5-0.3,3.8-0.5
	c1.2-0.2,2.5-0.3,3.7-0.5c1.1-0.2,2.3-0.4,3.4-0.6c3.3-0.6,6.5-1.2,9.6-2c2.8-0.7,5.6-1.5,8.3-2.3c2.3-0.7,4.5-1.5,6.7-2.3
	c52.5-19.8,82.1-53.3,106.3-82.9v0c0.1-0.1,0.2-0.3,0.3-0.4c-10.5,27.2-53.9,116.1,10.9,137.9c7.5,2.5,20.3,4.9,37.1,6
	C705.4,628,710.9,640.3,704.4,648.8z"/>
<path fill="#072249" d="M559.6,186.5c-0.2,0-0.4,0-0.5,0c0,0,0.1,0,0.3-0.1C559.4,186.4,559.5,186.4,559.6,186.5z"/>
<g>
	<path fill="#E6E8EC" d="M673.6,419.6c-4.3,21.5-14.5,42.7-25.6,61.4c-0.2,0.7-2.2,3.7-1.6,2.7v0c-38.3,46.8-86.7,87.4-149.6,91.8
		c-1.3,0-2.6,0.1-3.9,0.2c-57.2,3.1-115.7-13.6-168.4-34.6c-23.2-9.2-46-19.8-67.5-32.6c-11.4-6.8-30.3-16.4-35.3-29.9
		c48.9-39.7,127-25.3,179.2-1.4c27.4,12.5,53.7,27.4,84.2,30.6c40,4.2,79.2-8.7,113.4-28.7C625.9,463.3,651.9,442.9,673.6,419.6z"/>
</g>
<path fill="#212121" d="M863.4,293.5l-10.2,7.2c-0.1,0-0.1,0.1-0.2,0.1c-40.9,27-83.3,33.8-119.9,36.2c-0.1,0-0.1,0-0.2,0
	c-26.7,1.7-50.4-2.6-55.9-3.3c-0.1,0-0.2,0-0.2,0c-0.1,0-0.3,0-0.4,0c-0.1,0-0.2,0-0.3,0c0,0,0,0,0,0l0,0v0c0.4-0.5,0.8-1,1.3-1.5
	c0.4-0.5,0.8-0.9,1.2-1.4c1.2-1.4,2.5-2.7,3.8-4c0,0,0,0,0,0C705.1,330.3,782.9,338.1,863.4,293.5z"/>
<g>
	<path fill="#FF4E00" d="M848,240.3c0,0-21,22.6-55.8,36.5c-17.9,7.1-38.5,12.3-58.4,19.7c-2.6,1-5.1,1.9-7.6,3
		c-26.9-48.6-90.6-105-166.6-113h0c-0.2,0-0.4,0-0.5,0c0,0,0.1,0,0.3-0.1c2.8-0.8,27.8-7.2,63.1-10.6
		C686.9,169.4,785.9,173.3,848,240.3z"/>
</g>
<g>
	<path fill="#FF4E00" d="M840.9,353.3c-38.7,43.4-102.1,108.6-194.1,130.1c0,0,0.4-0.7,1.1-1.9c0.1-0.1,0.1-0.2,0.2-0.3
		c0,0,0-0.1,0.1-0.1c4-6.8,7.5-13.4,10.4-19.6c7.5-15.8,11.7-29,13.7-36.1c1-3.4,1.4-5.5,1.4-5.7c0,0,0,0,0,0
		c19.1-16.4,45.8-36.5,57.6-62.9c2.8-6.3,4.8-12.9,5.6-19.9c-1.2,0.1-2.4,0.1-3.6,0.2c36.6-2.4,79-9.2,119.9-36.2
		c0.1,0,0.1-0.1,0.2-0.1c3.4-2.2,6.8-4.6,10.2-7.2C863.4,293.5,868.3,322.5,840.9,353.3z"/>
	<path fill="#FF4E00" d="M675.8,411.3c-0.6,2.8-1.4,5.5-2.2,8.3c0,0,0,0,0,0c0,0.2-0.5,2.3-1.4,5.7c-2,7.1-6.2,20.3-13.7,36.1
		c-2.9,6.2-6.4,12.8-10.4,19.6c3.9-7.2,15.8-30.6,25.5-61.3c0.1-0.4,0.3-0.9,0.4-1.3C674.6,416.1,675.3,413.7,675.8,411.3z"/>
</g>
<g>
	<path fill="#FFD701" d="M736.8,336.9c-0.8,7-2.8,13.6-5.6,19.9c-11.8,26.3-38.5,46.5-57.6,62.9c0.9-2.8,1.6-5.5,2.2-8.3
		c0.1-0.4,0.2-0.8,0.3-1.3c5-22.3,3.6-47.6,0-76.4c0,0,0,0,0,0c0.1,0,0.2,0,0.3,0c0.1,0,0.2,0,0.4,0c0.1,0,0.2,0,0.2,0
		c5.5,0.8,29.2,5,55.9,3.3c0.1,0,0.1,0,0.2,0C734.3,337,735.6,336.9,736.8,336.9z"/>
	<path fill="#FFD701" d="M676.1,410.1c4.5-21.1,2.7-42.8,0-76.4C679.7,362.4,681.1,387.7,676.1,410.1z"/>
	<path fill="#FFD701" d="M732.9,337.1c-26.7,1.7-50.4-2.6-55.9-3.3C682.6,334.4,707.5,338.2,732.9,337.1z"/>
</g>
<g>
	<path fill="#FFD701" d="M726.2,299.5c-0.1,0-0.1,0.1-0.2,0.1c-15.9,6.5-31,14.9-43.5,27.2c-1.3,1.3-2.6,2.6-3.8,4
		c-0.4,0.5-0.8,0.9-1.2,1.4c-0.4,0.5-0.8,1-1.3,1.5h0c-0.3-0.3-0.6-0.6-0.9-0.9c-0.2-0.2-0.4-0.4-0.5-0.6
		c-12.1-13.6-16.1-27.8-24.5-45.5c-8-17-20.1-37.1-47-63.1c-1-1-2.1-2-3.2-3.1c-11-10.4-24.4-21.6-40.9-34c0.2,0,0.3,0,0.5,0h0
		C635.5,194.4,699.3,250.9,726.2,299.5z"/>
	<path fill="#FFD701" d="M726.2,299.5c-15.9,6.5-31.2,14.9-43.7,27.2c-1.3,1.3-2.6,2.6-3.8,4c1.2-1.4,2.5-2.7,3.8-4
		c12.5-12.4,27.6-20.7,43.5-27.2C726,299.5,726.1,299.5,726.2,299.5C726.2,299.5,726.2,299.5,726.2,299.5z"/>
</g>
<path fill="#212121" d="M548.6,327.5c-9,1.5-17.5-4.6-19-13.6c-1.5-9,4.6-17.5,13.6-19c9-1.5,17.5,4.6,19,13.6
	C563.6,317.4,557.6,326,548.6,327.5z"/>
<path fill="#212121" d="M570.8,356.9c-39.1,7.6-55.2,6.2-101.4,6c-71.7-0.2-111.5,24-154.4,47.9c41.7-32.2,77.9-49.4,116.1-56
	c72-12.3,102.1-6.5,98.9-25.5c5.2,4.5,12.4,6.8,19.7,5.5c13.1-2.2,22-14.6,19.8-27.7c-2.2-13.1-14.7-22-27.8-19.8
	c-11.4,1.9-19.6,11.5-20.1,22.6c-0.2-0.5-0.5-0.9-0.8-1.4c-8.6-15-0.5-23.6-3.9-40.2C570.2,259.5,604.5,350.3,570.8,356.9z"/>
<path fill="#141313" d="M548.6,327.5c-9,1.5-17.5-4.6-19-13.6c-1.5-9,4.6-17.5,13.6-19c9-1.5,17.5,4.6,19,13.6
	C563.6,317.4,557.6,326,548.6,327.5z"/>
<ellipse transform="matrix(0.4191 -0.9079 0.9079 0.4191 37.0125 664.4647)" fill="#EFEAEA" cx="537.8" cy="303.3" rx="5.8" ry="5.1"/>
<g>
	<path fill="#FF4E00" d="M569.6,307.2c-2.2-13.1-14.7-22-27.8-19.8c-11.4,1.9-19.6,11.5-20.1,22.6v0c0,0,0,0,0,0
		c-0.1,1.7,0,3.4,0.3,5.1c1,5.8,3.9,10.7,8,14.2l0,0c5.2,4.5,12.4,6.8,19.7,5.5C562.9,332.7,571.8,320.3,569.6,307.2z M548.6,327.5
		c-9,1.5-17.5-4.6-19-13.6c-1.5-9,4.6-17.5,13.6-19c9-1.5,17.5,4.6,19,13.6C563.6,317.4,557.6,326,548.6,327.5z"/>
	<path fill="#FFFFFF" d="M676.2,333.6L676.2,333.6L676.2,333.6L676.2,333.6c-0.3-0.3-0.6-0.6-0.9-1c-0.2-0.2-0.4-0.4-0.5-0.6
		c-12.1-13.6-16.1-27.8-24.5-45.5c-58.8-70.4-178.6-70.7-266.1-34.5c-116.9,48.4-176,190.6-162.5,226.7c5.3-4.3,32.2-23.9,82.5-23.9
		c3.5,0,7.2,0.1,10.9,0.3c88,4.8,115.2,53.6,184.8,53.6c9,0,18.8-0.8,29.4-2.7c59.7-10.3,113.1-56.1,134.4-76.6
		c4.6-4.4,7.8-7.7,9.1-9.1c0.3-0.3,0.5-0.6,0.6-0.7l0,0c0.1-0.4,0.3-0.9,0.4-1.3c0.7-2.3,1.4-4.7,1.9-7.1c0.1-0.4,0.2-0.8,0.3-1.3
		C680.6,389,678.8,367.3,676.2,333.6z M570.8,356.9c-39.1,7.6-55.2,6.2-101.4,6c-71.7-0.2-111.5,24-154.4,47.9
		c41.7-32.2,77.9-49.4,116.1-56c72-12.3,102.1-6.5,98.9-25.5l0,0c-4.1-3.5-7-8.5-8-14.2c-0.3-1.7-0.4-3.4-0.3-5.1c0,0,0,0,0,0v0
		c-0.2-0.5-0.5-0.9-0.8-1.4c-8.6-15-0.5-23.6-3.9-40.2C570.2,259.5,604.5,350.3,570.8,356.9z"/>
</g>
<path fill="#FF5E17" d="M253.2,118.2c-4.1,0-8.1-0.6-11.9-1.7c-1-0.3-1.5-1.4-1.2-2.4s1.4-1.5,2.4-1.2c21,6.6,50.4-8.6,57.2-29.5
	c0.3-1,1.4-1.5,2.4-1.2c1,0.3,1.5,1.4,1.2,2.4C296.9,103.8,274.1,118.2,253.2,118.2z"/>
<path fill="#FF5E17" d="M639,869.8c-4.1,0-8.1-0.6-11.9-1.7c-1-0.3-1.5-1.4-1.2-2.4c0.3-1,1.4-1.5,2.4-1.2
	c21,6.6,50.4-8.6,57.2-29.5c0.3-1,1.4-1.5,2.4-1.2c1,0.3,1.5,1.4,1.2,2.4C682.7,855.4,659.8,869.8,639,869.8z"/>
</svg>
