<?xml version="1.0" encoding="utf-8"?>
<!-- Generator: Adobe Illustrator 21.0.1, SVG Export Plug-In . SVG Version: 6.00 Build 0)  -->
<!DOCTYPE svg PUBLIC "-//W3C//DTD SVG 1.1//EN" "http://www.w3.org/Graphics/SVG/1.1/DTD/svg11.dtd">
<svg version="1.1" id="Calque_1" xmlns="http://www.w3.org/2000/svg" xmlns:xlink="http://www.w3.org/1999/xlink" x="0px" y="0px"
	 viewBox="0 0 1385 543" enable-background="new 0 0 1385 543" xml:space="preserve">
<rect x="0.1" y="0.1" fill="#072249" width="1385.2" height="543"/>
<path fill="#FFFFFF" d="M666.3,385.6c0,4.9-0.7,9.3-2.2,13.2c-1.5,3.9-3.5,7.3-6.1,10c-2.6,2.7-5.8,4.9-9.6,6.4
	c-3.8,1.5-8,2.2-12.6,2.2c-4.6,0-8.8-0.8-12.6-2.2c-3.8-1.5-7-3.6-9.6-6.4c-2.6-2.7-4.6-6.1-6.1-10c-1.5-3.9-2.2-8.3-2.2-13.2
	s0.7-9.3,2.2-13.2c1.5-3.9,3.5-7.3,6.2-10c2.7-2.7,5.9-4.9,9.6-6.4c3.8-1.5,7.9-2.2,12.5-2.2c4.5,0,8.7,0.8,12.5,2.2
	c3.8,1.5,7,3.6,9.6,6.4c2.7,2.8,4.7,6.1,6.2,10C665.6,376.4,666.3,380.8,666.3,385.6z M635.9,364.6c-5.1,0-9.2,1.8-12.2,5.5
	c-3,3.7-4.5,8.9-4.5,15.5c0,6.7,1.5,11.8,4.4,15.5c2.9,3.6,7,5.5,12.3,5.5c5.3,0,9.4-1.8,12.3-5.5c2.9-3.6,4.4-8.8,4.4-15.5
	c0-6.6-1.5-11.7-4.4-15.5C645.2,366.4,641.1,364.6,635.9,364.6z"/>
<path fill="#FFFFFF" d="M694,359.3h24.3c0.3,0.5,0.7,1.2,1,2.1c0.3,0.9,0.4,1.9,0.4,3.1c0,3.6-1.6,5.4-4.9,5.4h-20.4v45.5
	c-0.6,0.3-1.4,0.5-2.5,0.7c-1.1,0.2-2.2,0.3-3.5,0.3c-2.5,0-4.3-0.5-5.5-1.4c-1.2-0.9-1.8-2.5-1.8-4.8v-58.5c0-3.9,0.6-7.3,1.7-10.1
	s2.8-5.1,4.9-6.9c2.1-1.8,4.7-3.1,7.8-4c3-0.9,6.4-1.3,10.1-1.3c5.3,0,9.4,0.7,12.2,2.1c2.8,1.4,4.2,3.3,4.2,5.8
	c0,1.2-0.2,2.2-0.7,3.1c-0.5,0.9-1,1.7-1.7,2.4c-1.6-0.7-3.5-1.3-5.6-1.8c-2.1-0.5-4.3-0.8-6.5-0.8c-4.8,0-8.2,0.9-10.3,2.8
	c-2.1,1.9-3.1,5-3.1,9.2V359.3z"/>
<path fill="#FFFFFF" d="M803.8,411.7v35.9c-1.4,0.4-3.3,0.7-5.8,1c-2.5,0.3-5.1,0.5-7.8,0.5c-5.8,0-9.9-1-12.2-3
	c-2.3-2-3.4-5.6-3.4-10.8v-90.2c0-2.5,0.7-4.4,2-5.8c1.3-1.4,3.2-2.4,5.7-3.2c2-0.7,4.2-1.4,6.8-1.9c2.5-0.5,5.1-0.9,7.8-1.3
	c2.7-0.4,5.3-0.6,8-0.7c2.7-0.1,5.2-0.2,7.5-0.2c16.9,0,29.6,3.6,38.3,10.7c8.7,7.1,13,16.9,13,29.3c0,6-1.1,11.4-3.3,16.3
	c-2.2,4.9-5.3,9.1-9.4,12.6c-4.1,3.5-9.1,6.1-15,8c-5.9,1.9-12.6,2.8-20,2.8H803.8z M814.2,388.8c6.1,0,10.9-1.4,14.5-4.2
	c3.6-2.8,5.4-7,5.4-12.6c0-11-6.6-16.6-19.7-16.6c-2.2,0-4.2,0.1-5.9,0.2c-1.7,0.1-3.3,0.3-4.9,0.6v32.5H814.2z"/>
<path fill="#FFFFFF" d="M904.2,447.6c-1.2,0.4-3,0.7-5.2,1c-2.2,0.3-4.7,0.5-7.4,0.5c-5.6,0-9.6-0.9-12.1-2.7
	c-2.5-1.8-3.7-5.3-3.7-10.5v-56.7c0-3.5,0.9-6.4,2.6-8.9c1.7-2.5,4.2-4.7,7.3-6.5c4.1-2.5,9-4.4,14.8-5.9c5.8-1.4,11.8-2.1,18.1-2.1
	c12.9,0,19.3,4.3,19.3,13c0,2.1-0.3,4-0.9,5.8c-0.6,1.7-1.3,3.2-2,4.5c-2.9-0.6-6.3-0.9-10.4-0.9c-3.6,0-7.2,0.4-10.8,1.3
	c-3.6,0.9-6.8,2-9.5,3.5V447.6z"/>
<path fill="#FFFFFF" d="M972.1,414.9c1.7,5.2,4.8,8.9,9.1,11.1c4.3,2.2,9.4,3.3,15.1,3.3c5.2,0,10.1-0.7,14.7-2.1
	c4.6-1.4,8.3-3,11.2-4.7c1.9,1.2,3.4,2.9,4.7,4.8c1.2,2,1.9,4.2,1.9,6.5c0,2.9-0.9,5.3-2.6,7.4c-1.7,2.1-4.1,3.9-7.2,5.3
	c-3,1.4-6.6,2.5-10.8,3.2c-4.2,0.7-8.7,1-13.7,1c-7.3,0-14.1-1-20.3-3.1c-6.2-2-11.5-5.1-16-9.1c-4.5-4-8-9.1-10.5-15.2
	c-2.5-6.1-3.8-13.2-3.8-21.4c0-7.9,1.3-14.8,3.8-20.6c2.5-5.8,6-10.7,10.2-14.5s9.2-6.7,14.7-8.5c5.5-1.8,11.2-2.7,17-2.7
	c6.3,0,12.1,1,17.4,2.9c5.3,1.9,9.8,4.6,13.6,8.1c3.8,3.5,6.7,7.6,8.8,12.5c2.1,4.8,3.2,10.1,3.2,15.8c0,4-1.1,6.9-3.2,8.9
	c-2.1,2-5.1,3.3-8.9,3.9L972.1,414.9z M989.8,376.5c-5.3,0-9.8,1.6-13.3,4.9s-5.6,8-6.2,14.2l35.5-5.8c-0.2-3.2-1.7-6.3-4.3-9.1
	C998.9,378,995,376.5,989.8,376.5z"/>
<path fill="#FFFFFF" d="M1122.4,421.6c0,9.2-3.4,16.3-10.2,21.5c-6.8,5.1-16.9,7.7-30.1,7.7c-5.2,0-10-0.4-14.2-1.1
	c-4.3-0.7-8-1.9-11.1-3.3c-3.1-1.5-5.5-3.3-7.3-5.6c-1.7-2.2-2.6-4.8-2.6-7.8c0-2.7,0.6-5.1,1.7-7c1.1-1.9,2.5-3.5,4.3-4.7
	c3.6,2.1,7.7,4,12.3,5.6c4.6,1.6,9.9,2.4,16,2.4c8.8,0,13.2-2.5,13.2-7.4c0-2.1-0.8-3.7-2.3-4.8c-1.6-1.1-4.2-2.1-7.9-3l-7.4-1.7
	c-10.2-2.1-17.7-5.4-22.7-9.8c-5-4.4-7.4-10.6-7.4-18.5c0-8.8,3.6-15.8,10.7-20.9c7.1-5.1,16.7-7.7,28.7-7.7c4.5,0,8.7,0.3,12.6,1
	c4,0.7,7.4,1.7,10.2,3.1c2.9,1.4,5.1,3.1,6.8,5.1c1.7,2,2.5,4.4,2.5,7.2c0,2.5-0.5,4.7-1.5,6.6c-1,1.9-2.3,3.5-3.9,4.7
	c-1-0.6-2.5-1.3-4.4-2c-1.9-0.7-4-1.4-6.2-2c-2.2-0.6-4.6-1.1-7.1-1.5c-2.5-0.4-4.8-0.6-6.9-0.6c-4.3,0-7.7,0.6-10.1,1.8
	c-2.4,1.2-3.6,2.9-3.6,5.3c0,1.7,0.7,3.1,2,4.1c1.4,1,3.8,1.9,7.4,2.8l7.1,1.7c11.3,2.5,19.3,6.1,24.2,10.8
	C1120,408,1122.4,414.1,1122.4,421.6z"/>
<path fill="#FFFFFF" d="M1170.7,425.7c2.2,1.6,5.3,2.3,9.3,2.3c1.9,0,3.8-0.2,6-0.7c2.1-0.4,3.9-1,5.4-1.6c1.1,1.2,2,2.7,2.8,4.3
	c0.7,1.6,1.1,3.5,1.1,5.6c0,4.3-1.7,7.9-5.1,10.7c-3.4,2.8-9.3,4.2-17.8,4.2c-10.4,0-18.5-2.4-24.4-7.2c-5.8-4.8-8.7-12.6-8.7-23.3
	v-83.5c1.4-0.4,3.2-0.8,5.4-1.2c2.2-0.4,4.7-0.7,7.3-0.7c5.5,0,9.4,1,11.8,2.9c2.4,1.9,3.6,5.4,3.6,10.5v12.1h25.7
	c0.6,1.2,1.2,2.8,1.9,4.7c0.6,1.9,0.9,3.9,0.9,6c0,4-0.9,6.8-2.7,8.6c-1.8,1.7-4.1,2.6-7,2.6h-18.8v36.1
	C1167.4,421.7,1168.5,424.2,1170.7,425.7z"/>
<path fill="#FFFFFF" d="M1248.1,355.5c6.4,0,12.3,0.7,17.6,2c5.3,1.3,9.8,3.3,13.5,6c3.7,2.7,6.6,6.2,8.6,10.4
	c2,4.2,3.1,9.2,3.1,14.9v42c0,3.2-0.8,5.8-2.5,7.7c-1.7,1.9-3.7,3.6-6,4.9c-3.8,2.4-8.6,4.2-14.1,5.4s-11.9,1.9-19,1.9
	c-12.8,0-22.9-2.4-30.5-7.3c-7.6-4.9-11.3-12.4-11.3-22.4c0-8.6,2.5-15.1,7.6-19.5c5.1-4.5,12.9-7.3,23.4-8.4l24.7-2.6v-2
	c0-4-1.6-6.9-4.8-8.7c-3.2-1.9-7.9-2.8-14-2.8c-4.7,0-9.3,0.6-13.9,1.7c-4.5,1.1-8.6,2.4-12.2,3.9c-1.5-1-2.8-2.5-3.8-4.6
	c-1.1-2-1.6-4.2-1.6-6.6c0-5.5,2.9-9.4,8.6-11.7c3.6-1.4,7.8-2.4,12.6-3.1C1238.8,355.9,1243.5,355.5,1248.1,355.5z M1249.2,429.7
	c2.7,0,5.4-0.3,8.1-0.8c2.7-0.6,4.7-1.3,6-2.1v-17.1l-15.3,1.3c-4,0.4-7.2,1.3-9.6,2.7c-2.4,1.4-3.6,3.6-3.6,6.4
	c0,3,1.1,5.3,3.3,7.1C1240.5,428.9,1244.1,429.7,1249.2,429.7z"/>
<path fill="#FFFFFF" d="M693.2,90.7c0.8,1.4,1.6,3.2,2.3,5.5c0.7,2.2,1.1,4.7,1.1,7.4c0,4.6-1,8.1-3,10.3c-2,2.2-4.9,3.4-8.5,3.4
	h-46.6v27.5h47.7c0.8,1.5,1.6,3.4,2.4,5.5c0.8,2.1,1.2,4.6,1.2,7.4c0,4.6-1.1,8-3.2,10.2c-2.1,2.2-4.9,3.3-8.4,3.3h-39.3v46.8
	c-1.5,0.4-3.7,0.8-6.5,1.2c-2.8,0.3-5.7,0.5-8.8,0.5c-6.6,0-11.2-1.1-13.8-3.4c-2.6-2.2-3.9-6.3-3.9-12.2v-95.8
	c0-5.3,1.6-9.6,4.7-12.7c3.2-3.2,7.4-4.7,12.7-4.7H693.2z"/>
<path fill="#FFFFFF" d="M741.9,217.8c-1.4,0.4-3.4,0.8-5.9,1.2c-2.5,0.3-5.3,0.5-8.4,0.5c-6.3,0-10.9-1-13.7-3
	c-2.8-2-4.2-6-4.2-11.9v-64.1c0-3.9,1-7.3,2.9-10.1c2-2.8,4.7-5.3,8.2-7.4c4.6-2.8,10.2-5,16.7-6.6c6.5-1.6,13.3-2.4,20.5-2.4
	c14.6,0,21.8,4.9,21.8,14.7c0,2.4-0.4,4.6-1,6.5c-0.7,2-1.5,3.6-2.3,5c-3.2-0.7-7.1-1.1-11.8-1.1c-4.1,0-8.1,0.5-12.2,1.5
	c-4.1,1-7.6,2.3-10.7,4V217.8z"/>
<path fill="#FFFFFF" d="M794,87.9c0-4.8,1.6-8.8,4.9-12.2c3.3-3.4,7.6-5,12.9-5c5.3,0,9.6,1.7,12.9,5c3.3,3.4,4.9,7.4,4.9,12.2
	c0,4.9-1.6,9-4.9,12.4c-3.3,3.4-7.6,5-12.9,5c-5.3,0-9.6-1.7-12.9-5C795.7,97,794,92.8,794,87.9z M827.8,217.8
	c-1.4,0.4-3.4,0.8-5.9,1.2c-2.5,0.3-5.3,0.5-8.4,0.5c-6.3,0-10.8-1-13.5-3c-2.7-2-4.1-6-4.1-11.9v-86.3c1.4-0.4,3.4-0.8,5.9-1.3
	c2.5-0.4,5.3-0.6,8.4-0.6c6.3,0,10.8,1,13.5,3.2s4.1,6.1,4.1,12V217.8z"/>
<path fill="#FFFFFF" d="M879.7,180.8c2,5.9,5.4,10.1,10.3,12.5c4.9,2.5,10.6,3.7,17,3.7c5.9,0,11.4-0.8,16.6-2.4
	c5.2-1.6,9.4-3.4,12.6-5.4c2.1,1.4,3.9,3.2,5.3,5.5c1.4,2.2,2.1,4.7,2.1,7.4c0,3.2-1,6-2.9,8.4c-2,2.4-4.7,4.4-8.1,6
	c-3.4,1.6-7.5,2.8-12.2,3.6c-4.7,0.8-9.8,1.2-15.4,1.2c-8.3,0-15.9-1.2-22.9-3.5c-7-2.3-13-5.7-18.1-10.3c-5-4.5-9-10.3-11.9-17.1
	c-2.9-6.9-4.3-14.9-4.3-24.2c0-9,1.4-16.7,4.3-23.3c2.9-6.6,6.7-12,11.6-16.4c4.8-4.3,10.4-7.5,16.6-9.6c6.2-2,12.6-3,19.2-3
	c7.1,0,13.7,1.1,19.6,3.3c6,2.2,11.1,5.2,15.3,9.1c4.3,3.9,7.6,8.6,10,14.1c2.4,5.5,3.6,11.4,3.6,17.9c0,4.5-1.2,7.8-3.6,10.1
	c-2.4,2.2-5.7,3.7-10.1,4.4L879.7,180.8z M899.7,137.5c-6,0-11,1.9-15,5.6c-4,3.7-6.3,9.1-7,16.1l40.1-6.5
	c-0.3-3.6-1.9-7.1-4.8-10.3C910,139.1,905.6,137.5,899.7,137.5z"/>
<path fill="#FFFFFF" d="M1027.4,142.6c-2.9-2.4-6.9-3.6-11.8-3.6c-3.4,0-6.4,0.4-9.2,1.3c-2.8,0.8-5.4,1.9-7.8,3.2v74.4
	c-1.4,0.4-3.4,0.8-5.9,1.2c-2.5,0.3-5.3,0.5-8.4,0.5c-6.3,0-10.9-1-13.7-3c-2.8-2-4.2-6-4.2-11.9v-64.9c0-3.6,0.8-6.6,2.3-8.8
	c1.5-2.2,3.7-4.3,6.5-6.3c4.5-3.2,10.3-5.8,17.3-7.8c7.1-2,14.9-2.9,23.4-2.9c15.3,0,27.1,3.4,35.4,10.1
	c8.3,6.7,12.5,16.3,12.5,28.8v65.1c-1.5,0.4-3.6,0.8-6.1,1.2c-2.5,0.3-5.3,0.5-8.4,0.5c-6.3,0-10.8-1-13.5-3c-2.7-2-4.1-6-4.1-11.9
	v-51C1031.8,148.6,1030.3,144.9,1027.4,142.6z"/>
<path fill="#FFFFFF" d="M1136,113.8c3.2,0,6.3,0.2,9.1,0.7c2.9,0.5,5.5,1.2,7.9,2V81.2c1.5-0.4,3.6-0.8,6.1-1.3s5.3-0.6,8.4-0.6
	c6.3,0,10.8,1.1,13.5,3.2c2.7,2.1,4.1,6.1,4.1,12v102.3c0,3.4-0.7,6.2-2.1,8.5c-1.4,2.3-3.6,4.4-6.7,6.4c-3.9,2.4-9,4.6-15.1,6.5
	c-6.2,2-13.2,2.9-21.2,2.9c-17.6,0-31.5-4.4-41.7-13.3c-10.2-8.9-15.2-22.2-15.2-40c0-9.2,1.4-17.2,4.1-23.9
	c2.7-6.7,6.5-12.3,11.2-16.8c4.8-4.5,10.4-7.8,16.8-10C1121.7,114.9,1128.6,113.8,1136,113.8z M1153.2,142.1c-1.8-0.8-3.8-1.6-6-2.2
	c-2.2-0.6-4.4-0.9-6.8-0.9c-7.6,0-13.6,2.3-18.1,6.9c-4.5,4.6-6.7,12-6.7,22.1c0,9.7,2.1,16.7,6.4,21.1c4.3,4.4,10.2,6.6,17.8,6.6
	c2.9,0,5.6-0.3,7.9-0.9c2.3-0.6,4.2-1.4,5.6-2.2V142.1z"/>
<path fill="#FFFFFF" d="M1292.1,188.4c0,10.4-3.9,18.5-11.6,24.3c-7.7,5.8-19,8.7-34,8.7c-5.9,0-11.2-0.4-16.1-1.3s-9-2.1-12.5-3.8
	c-3.5-1.7-6.2-3.8-8.2-6.3c-2-2.5-2.9-5.5-2.9-8.8c0-3.1,0.6-5.7,1.9-7.9c1.3-2.2,2.9-4,4.8-5.4c4.1,2.4,8.7,4.5,13.9,6.3
	c5.2,1.8,11.2,2.7,18.1,2.7c9.9,0,14.9-2.8,14.9-8.4c0-2.4-0.9-4.2-2.6-5.5c-1.8-1.3-4.7-2.4-8.9-3.4l-8.4-1.9
	c-11.5-2.4-20-6.1-25.6-11c-5.6-5-8.4-11.9-8.4-20.9c0-9.9,4-17.8,12.1-23.6c8.1-5.8,18.9-8.7,32.5-8.7c5,0,9.8,0.4,14.3,1.2
	c4.5,0.8,8.3,1.9,11.6,3.5c3.2,1.5,5.8,3.5,7.7,5.8s2.8,5,2.8,8.1c0,2.8-0.6,5.3-1.7,7.5c-1.1,2.2-2.6,4-4.4,5.4
	c-1.1-0.7-2.8-1.5-4.9-2.3c-2.2-0.8-4.5-1.6-7-2.3c-2.5-0.7-5.2-1.3-8-1.7c-2.8-0.4-5.4-0.6-7.8-0.6c-4.9,0-8.7,0.7-11.4,2
	c-2.7,1.3-4.1,3.3-4.1,6c0,2,0.8,3.5,2.3,4.6c1.5,1.1,4.3,2.2,8.4,3.2l8,1.9c12.7,2.8,21.8,6.9,27.3,12.2
	C1289.4,173.1,1292.1,180,1292.1,188.4z"/>
<path fill="#FF5E17" d="M663.1,473.1c-21.5,0-43-7-57.1-20.9c-1.2-1.2-1.2-3.2,0-4.4c1.2-1.2,3.2-1.2,4.4,0
	c25.6,25.3,79.9,25.3,105.6,0c1.2-1.2,3.2-1.2,4.4,0c1.2,1.2,1.2,3.2,0,4.4C706.1,466.1,684.6,473.1,663.1,473.1z"/>
<path fill="#FFFFFF" d="M429.6,189.2c-6.9,2.3-14.3,4.4-21.6,7.1c-1.2,0.5-2.5,0.9-3.7,1.4c0,0-0.1,0-0.1,0
	c-5.5,2.2-10.7,4.9-15.5,8.4c0,0,0,0,0,0c-0.7,0.6-1.4,1.1-2.1,1.7c-0.4,0.3-0.7,0.6-1.1,0.9c-0.8,0.7-1.6,1.4-2.3,2.1
	c7.8,1.2,29,3.5,54.7-3C435.5,201.5,432.7,195.2,429.6,189.2z M446.2,238.5c-18.8,18.9-45.3,40.2-80.3,48.3
	c-5.1,13.2-26.1,56.2,5.3,66.8c5.2,1.8,15.8,3.3,29.8,3.2c-13.3,20.4-31.2,37.5-52.2,49.9c-23.5,13.8-50.8,21.8-80.1,21.8
	c-14.1,0-27.9-1.9-40.9-5.4c-41.9-11.2-77-39.3-97.5-76.5c21.5,9.4,38.5,14.3,45.8,8.6c7.3-5.6,8.3-20.9-14-52.7
	c-21.3-30.4-47.1-72,3.2-129.1c45.9-52.1,111.5-54.6,158.3-30.5c1.4-0.4,13.5-3.5,30.6-5.2c10.5-1,23-1.5,36-0.4
	c-32-29-74.4-46.8-121-46.8c-99.4,0-180,80.6-180,180c0,99.4,80.6,180,180,180c99.4,0,180-80.6,180-180
	C449.1,259.6,448.1,248.9,446.2,238.5z M324.9,202.1c-0.7-4.4-4.9-7.3-9.2-6.6c-1.6,0.3-3,1-4.1,2c-1.9,1.8-3,4.4-2.5,7.2
	c0.7,4.4,4.9,7.3,9.2,6.6C322.7,210.6,325.6,206.4,324.9,202.1z M324.9,202.1c-0.7-4.4-4.9-7.3-9.2-6.6c-1.6,0.3-3,1-4.1,2
	c-1.9,1.8-3,4.4-2.5,7.2c0.7,4.4,4.9,7.3,9.2,6.6C322.7,210.6,325.6,206.4,324.9,202.1z M407.9,215.9c-0.1,0-0.1,0-0.2,0
	c-12.2,0.5-24-1.2-26.9-1.6c-0.3,0-0.5-0.1-0.6-0.1v0h0c-0.1-0.2-0.3-0.3-0.4-0.4c-0.1-0.1-0.2-0.2-0.3-0.3
	c-5.8-6.6-7.8-13.5-11.9-22c-28.5-34.1-86.5-34.2-128.9-16.7c-56.6,23.4-85.2,92.3-78.7,109.8c0.2,0.6,0.4,1.1,0.7,1.5
	c9.7,15.6,103.7,59.9,153.5,41.1c25.4-9.6,39.8-25.8,51.5-40.2v0c0.1-0.1,0.1-0.1,0.2-0.2c0,0,0.2-0.3,0.5-0.9
	c0.1-0.1,0.1-0.3,0.2-0.4c2-3.7,7.6-14.9,12.2-29.5l0,0c0-0.1,0.1-0.1,0.1-0.1c9.3-7.9,22.2-17.7,27.9-30.4c1.4-3,2.3-6.2,2.7-9.6
	C409,215.9,408.4,215.9,407.9,215.9z M315.1,191.9c6.3-1.1,12.4,3.2,13.4,9.6c1.1,6.3-3.2,12.4-9.6,13.4c-3.6,0.6-7-0.5-9.6-2.7v0
	c-2-1.7-3.4-4.1-3.9-6.9c-0.1-0.8-0.2-1.7-0.1-2.5v0C305.6,197.5,309.6,192.8,315.1,191.9z M318.3,211.3c4.3-0.7,7.3-4.9,6.6-9.2
	c-0.7-4.4-4.9-7.3-9.2-6.6c-1.6,0.3-3,1-4.1,2c-1.9,1.8-3,4.4-2.5,7.2C309.8,209.1,314,212,318.3,211.3z M323.5,142.9
	c-0.1,0-0.1,0-0.1,0c0.1,0,0.2,0,0.3,0C323.6,142.9,323.6,142.9,323.5,142.9z"/>
<path fill="#072249" d="M323.7,143c-0.1,0-0.2,0-0.3,0c0,0,0.1,0,0.1,0C323.6,142.9,323.6,142.9,323.7,143z"/>
<path fill="#072249" d="M401,356.8c-13.3,20.4-31.2,37.5-52.2,49.9c-23.5,13.8-50.8,21.8-80.1,21.8c-14.1,0-27.9-1.9-40.9-5.4
	c-41.9-11.2-77-39.3-97.5-76.5c21.5,9.4,38.5,14.3,45.8,8.6c7.3-5.6,8.3-20.9-14-52.7c-21.3-30.4-47.1-72,3.2-129.1
	c45.9-52.1,111.5-54.6,158.3-30.5c-0.1,0-0.1,0-0.1,0c8,6,14.5,11.4,19.8,16.5c0.5,0.5,1.1,1,1.6,1.5c13.1,12.6,18.9,22.4,22.8,30.6
	c-28.5-34.1-86.5-34.2-128.9-16.7c-56.6,23.4-85.2,92.3-78.7,109.8c0.2,0.6,0.4,1.1,0.7,1.5c9.7,15.6,103.7,59.9,153.5,41.1
	c25.4-9.6,39.8-25.8,51.5-40.2v0c0.1-0.1,0.1-0.1,0.2-0.2c-5.1,13.2-26.1,56.2,5.3,66.8C376.4,355.4,387,357,401,356.8z"/>
<g>
	<path fill="#E6E8EC" d="M378.8,256c-26.1,30.7-71.9,53.2-111.4,37.5c-32.5-12.9-74.8-35.4-107.5-8.9c3.9,10.3,21.6,17.3,30.4,21.7
		c18.8,9.3,38.9,16.6,59.5,21.1c22.6,5,47,7.3,68.8-2c19.3-8.2,34-22.4,47.1-38.4v0C371.5,277.5,375.5,266.5,378.8,256L378.8,256z"
		/>
</g>
<path fill="#212121" d="M470.8,194.8c-10.3,7.5-21.6,13.2-33.9,16.5c0,0,0,0,0,0c-19.1,5.3-37.3,4.6-56.7,2.9v0c1-1.1,2-2.2,3.1-3.3
	C412.9,215.6,444.7,209.3,470.8,194.8z"/>
<g>
	<path fill="#FF4E00" d="M463.4,169.1c0,0-10.2,11-27,17.7c-2.2,0.9-4.4,1.7-6.7,2.4c-6.9,2.3-14.3,4.4-21.6,7.1
		c-1.2,0.5-2.5,0.9-3.7,1.4c-6.5-11.8-17.5-24.5-31.4-34.8c-13.9-10.3-30.9-18.1-49.2-20c0,0-0.1,0-0.1-0.1
		c1.4-0.4,13.5-3.5,30.6-5.2c10.5-1,23-1.5,36-0.4C415.7,139.4,443.4,147.5,463.4,169.1z"/>
	<path fill="#FF4E00" d="M323.7,143c-0.1,0-0.2,0-0.3,0c0,0,0.1,0,0.1,0C323.6,142.9,323.6,142.9,323.7,143z"/>
</g>
<g>
	<path fill="#FF4E00" d="M459.9,223.8c-4,4.5-8.6,9.5-13.7,14.7v0c-18.8,18.9-45.3,40.2-80.3,48.3c5.4-9.7,9.6-20.2,12.9-30.8
		c12.5-10.7,28.7-22.4,30.7-40.2c-0.5,0-1.1,0.1-1.6,0.1c9.8-0.6,19.5-1.9,29-4.5c0,0,0,0,0,0c12.2-3.1,23.9-9,33.9-16.5
		C470.8,194.8,473.2,208.8,459.9,223.8z"/>
	<path fill="#FF4E00" d="M380,251.9c-0.3,1.3-0.6,2.7-1.1,4c0,0,0,0-0.1,0.1C379.3,254.6,379.7,253.3,380,251.9z"/>
</g>
<g>
	<path fill="#FFD701" d="M409.5,215.8c-0.4,3.4-1.3,6.6-2.7,9.6c-5.7,12.8-18.6,22.5-27.9,30.4c0.4-1.3,0.8-2.7,1.1-4
		c0-0.2,0.1-0.4,0.1-0.5c2.2-10.2,1.3-20.8,0-37.1c0.1,0,0.3,0,0.6,0.1c2.9,0.4,14.8,2.1,26.9,1.6c0.1,0,0.1,0,0.2,0
		C408.4,215.9,409,215.9,409.5,215.8z"/>
</g>
<g>
	<path fill="#FFD701" d="M404.4,197.7C404.3,197.7,404.3,197.7,404.4,197.7c-5.6,2.3-10.8,5-15.6,8.5c0,0,0,0,0,0
		c-0.7,0.5-1.4,1.1-2.1,1.7c-0.4,0.3-0.7,0.6-1.1,0.9c-0.8,0.7-1.6,1.4-2.3,2.1l0,0c-0.8,0.8-1.6,1.7-2.4,2.6
		c-0.2,0.2-0.4,0.5-0.6,0.7h0c-0.1-0.2-0.3-0.3-0.4-0.4c-0.1-0.1-0.2-0.2-0.3-0.3c-5.8-6.6-7.8-13.5-11.9-22
		c-3.9-8.2-9.7-18-22.8-30.6c-0.5-0.5-1-1-1.6-1.5c-5.3-5-11.8-10.5-19.8-16.5c0.1,0,0.2,0,0.3,0c18.4,1.9,35.3,9.7,49.2,20
		C386.9,173.2,397.9,185.9,404.4,197.7z"/>
	<path fill="#FFD701" d="M404.4,197.7c-5.5,2.2-10.8,4.9-15.6,8.5c4.8-3.5,10-6.2,15.5-8.4C404.3,197.7,404.3,197.7,404.4,197.7
		C404.4,197.7,404.4,197.7,404.4,197.7z"/>
</g>
<path fill="#212121" d="M318.3,211.3c-4.4,0.7-8.5-2.2-9.2-6.6c-0.5-2.8,0.6-5.4,2.5-7.2c1.1-1,2.5-1.7,4.1-2
	c4.4-0.7,8.5,2.2,9.2,6.6C325.6,206.4,322.7,210.6,318.3,211.3z"/>
<path fill="#212121" d="M329.1,225.5c-19,3.7-26.7,3-49.1,2.9c-34.7-0.1-54,11.6-74.8,23.2c20.2-15.6,37.8-23.9,56.2-27.1
	c34.9-6,49.4-3.2,47.9-12.3c2.5,2.2,6,3.3,9.6,2.7c6.3-1.1,10.6-7.1,9.6-13.4c-1.1-6.3-7.1-10.6-13.4-9.6c-5.5,0.9-9.5,5.6-9.7,11
	c-0.1-0.2-0.2-0.4-0.4-0.7c-4.2-7.3-0.2-11.4-1.9-19.5C328.8,178.3,345.4,222.3,329.1,225.5z"/>
<path fill="#141313" d="M318.3,211.3c-4.4,0.7-8.5-2.2-9.2-6.6c-0.5-2.8,0.6-5.4,2.5-7.2c1.1-1,2.5-1.7,4.1-2
	c4.4-0.7,8.5,2.2,9.2,6.6C325.6,206.4,322.7,210.6,318.3,211.3z"/>
<ellipse transform="matrix(0.4191 -0.9079 0.9079 0.4191 0.6845 400.2122)" fill="#EFEAEA" cx="313.1" cy="199.6" rx="2.8" ry="2.5"/>
<g>
	<path fill="#FF4E00" d="M328.5,201.5c-1.1-6.3-7.1-10.6-13.4-9.6c-5.5,0.9-9.5,5.6-9.7,11v0c0,0.8,0,1.6,0.1,2.5
		c0.5,2.8,1.9,5.2,3.9,6.9v0c2.5,2.2,6,3.3,9.6,2.7C325.3,213.8,329.6,207.8,328.5,201.5z M309.1,204.7c-0.5-2.8,0.6-5.4,2.5-7.2
		c1.1-1,2.5-1.7,4.1-2c4.4-0.7,8.5,2.2,9.2,6.6c0.7,4.4-2.2,8.5-6.6,9.2C314,212,309.8,209.1,309.1,204.7z"/>
</g>
</svg>
