<?xml version="1.0" encoding="utf-8"?>
<!-- Generator: Adobe Illustrator 21.0.1, SVG Export Plug-In . SVG Version: 6.00 Build 0)  -->
<!DOCTYPE svg PUBLIC "-//W3C//DTD SVG 1.1//EN" "http://www.w3.org/Graphics/SVG/1.1/DTD/svg11.dtd">
<svg version="1.1" id="Calque_1" xmlns="http://www.w3.org/2000/svg" xmlns:xlink="http://www.w3.org/1999/xlink" x="0px" y="0px"
	 viewBox="0 0 691 620" enable-background="new 0 0 691 620" xml:space="preserve">
<path fill="#072249" d="M531.4,492.8c-25.4,33-57,60.9-93,82.2c-48.5,28.6-104.9,44.9-165.3,44.9c-29.2,0-57.5-3.8-84.5-11.1
	C113.4,588.7,48.8,542.2,5.5,480c-6.2-8.9,2.7-20.4,12.8-16.7c29.5,10.6,52.3,14.2,63.7,5.3c15-11.7,17.1-43.1-28.9-108.7
	C9.2,297.2-44.1,211.2,59.6,93.3C154.3-14.4,289.8-19.5,386.3,30.3c-0.2,0-0.3,0.1-0.3,0.1c16.4,12.3,29.8,23.6,40.9,34
	c1.1,1,2.2,2.1,3.2,3.1c27,26,39,46.1,47,63.1c-58.8-70.4-178.6-70.7-266.1-34.5C94.3,144.5,35.2,286.7,48.7,322.8
	c0.4,1.2,0.9,2.2,1.5,3.1c16.7,26.8,153,94.2,257.8,94.2c2.7,0,5.4,0,8-0.1c1.3,0,2.6-0.1,3.9-0.2c0,0,0,0,0,0
	c1.3-0.1,2.6-0.1,3.9-0.2c0,0,0,0,0,0c1.3-0.1,2.6-0.2,3.9-0.3c1.3-0.1,2.6-0.2,3.8-0.4c1.3-0.1,2.5-0.3,3.8-0.5
	c1.2-0.2,2.5-0.3,3.7-0.5c1.1-0.2,2.3-0.4,3.4-0.6c3.3-0.6,6.5-1.2,9.6-2c2.8-0.7,5.6-1.5,8.3-2.3c2.3-0.7,4.5-1.5,6.7-2.3
	c52.5-19.8,82.1-53.3,106.3-82.9v0c0.1-0.1,0.2-0.3,0.3-0.4c-10.5,27.2-53.9,116.1,10.9,137.9c7.5,2.5,20.3,4.9,37.1,6
	C532.4,472,537.9,484.3,531.4,492.8z"/>
<path fill="#072249" d="M386.6,30.5c-0.2,0-0.4,0-0.5,0c0,0,0.1,0,0.3-0.1C386.4,30.4,386.5,30.4,386.6,30.5z"/>
<g>
	<path fill="#E6E8EC" d="M500.6,263.6c-4.3,21.5-14.5,42.7-25.6,61.4c-0.2,0.7-2.2,3.7-1.6,2.7v0c-38.3,46.8-86.7,87.4-149.6,91.8
		c-1.3,0-2.6,0.1-3.9,0.2c-57.2,3.1-115.7-13.6-168.4-34.6c-23.2-9.2-46-19.8-67.5-32.6c-11.4-6.8-30.3-16.4-35.3-29.9
		c48.9-39.7,127-25.3,179.2-1.4c27.4,12.5,53.7,27.4,84.2,30.6c40,4.2,79.2-8.7,113.4-28.7C452.9,307.3,478.9,286.9,500.6,263.6z"/>
</g>
<path fill="#212121" d="M690.4,137.5l-10.2,7.2c-0.1,0-0.1,0.1-0.2,0.1c-40.9,27-83.3,33.8-119.9,36.2c-0.1,0-0.1,0-0.2,0
	c-26.7,1.7-50.4-2.6-55.9-3.3c-0.1,0-0.2,0-0.2,0c-0.1,0-0.3,0-0.4,0c-0.1,0-0.2,0-0.3,0c0,0,0,0,0,0l0,0v0c0.4-0.5,0.8-1,1.3-1.5
	c0.4-0.5,0.8-0.9,1.2-1.4c1.2-1.4,2.5-2.7,3.8-4c0,0,0,0,0,0C532.1,174.3,609.9,182.1,690.4,137.5z"/>
<g>
	<path fill="#FF4E00" d="M675,84.3c0,0-21,22.6-55.8,36.5c-17.9,7.1-38.5,12.3-58.4,19.7c-2.6,1-5.1,1.9-7.6,3
		c-26.9-48.6-90.6-105-166.6-113h0c-0.2,0-0.4,0-0.5,0c0,0,0.1,0,0.3-0.1c2.8-0.8,27.8-7.2,63.1-10.6
		C513.9,13.4,612.9,17.3,675,84.3z"/>
</g>
<g>
	<path fill="#FF4E00" d="M667.9,197.3c-38.7,43.4-102.1,108.6-194.1,130.1c0,0,0.4-0.7,1.1-1.9c0.1-0.1,0.1-0.2,0.2-0.3
		c0,0,0-0.1,0.1-0.1c4-6.8,7.5-13.4,10.4-19.6c7.5-15.8,11.7-29,13.7-36.1c1-3.4,1.4-5.5,1.4-5.7c0,0,0,0,0,0
		c19.1-16.4,45.8-36.5,57.6-62.9c2.8-6.3,4.8-12.9,5.6-19.9c-1.2,0.1-2.4,0.1-3.6,0.2c36.6-2.4,79-9.2,119.9-36.2
		c0.1,0,0.1-0.1,0.2-0.1c3.4-2.2,6.8-4.6,10.2-7.2C690.4,137.5,695.3,166.5,667.9,197.3z"/>
	<path fill="#FF4E00" d="M502.8,255.3c-0.6,2.8-1.4,5.5-2.2,8.3c0,0,0,0,0,0c0,0.2-0.5,2.3-1.4,5.7c-2,7.1-6.2,20.3-13.7,36.1
		c-2.9,6.2-6.4,12.8-10.4,19.6c3.9-7.2,15.8-30.6,25.5-61.3c0.1-0.4,0.3-0.9,0.4-1.3C501.6,260.1,502.3,257.7,502.8,255.3z"/>
</g>
<g>
	<path fill="#FFD701" d="M563.8,180.9c-0.8,7-2.8,13.6-5.6,19.9c-11.8,26.3-38.5,46.5-57.6,62.9c0.9-2.8,1.6-5.5,2.2-8.3
		c0.1-0.4,0.2-0.8,0.3-1.3c5-22.3,3.6-47.6,0-76.4c0,0,0,0,0,0c0.1,0,0.2,0,0.3,0c0.1,0,0.2,0,0.4,0c0.1,0,0.2,0,0.2,0
		c5.5,0.8,29.2,5,55.9,3.3c0.1,0,0.1,0,0.2,0C561.3,181,562.6,180.9,563.8,180.9z"/>
	<path fill="#FFD701" d="M503.1,254.1c4.5-21.1,2.7-42.8,0-76.4C506.7,206.4,508.1,231.7,503.1,254.1z"/>
	<path fill="#FFD701" d="M559.9,181.1c-26.7,1.7-50.4-2.6-55.9-3.3C509.6,178.4,534.5,182.2,559.9,181.1z"/>
</g>
<g>
	<path fill="#FFD701" d="M553.2,143.5c-0.1,0-0.1,0.1-0.2,0.1c-15.9,6.5-31,14.9-43.5,27.2c-1.3,1.3-2.6,2.6-3.8,4
		c-0.4,0.5-0.8,0.9-1.2,1.4c-0.4,0.5-0.8,1-1.3,1.5h0c-0.3-0.3-0.6-0.6-0.9-0.9c-0.2-0.2-0.4-0.4-0.5-0.6
		c-12.1-13.6-16.1-27.8-24.5-45.5c-8-17-20.1-37.1-47-63.1c-1-1-2.1-2-3.2-3.1c-11-10.4-24.4-21.6-40.9-34c0.2,0,0.3,0,0.5,0h0
		C462.5,38.4,526.3,94.9,553.2,143.5z"/>
	<path fill="#FFD701" d="M553.2,143.5c-15.9,6.5-31.2,14.9-43.7,27.2c-1.3,1.3-2.6,2.6-3.8,4c1.2-1.4,2.5-2.7,3.8-4
		c12.5-12.4,27.6-20.7,43.5-27.2C553,143.5,553.1,143.5,553.2,143.5C553.2,143.5,553.2,143.5,553.2,143.5z"/>
</g>
<path fill="#212121" d="M375.6,171.5c-9,1.5-17.5-4.6-19-13.6c-1.5-9,4.6-17.5,13.6-19c9-1.5,17.5,4.6,19,13.6
	C390.6,161.4,384.6,170,375.6,171.5z"/>
<path fill="#212121" d="M397.8,200.9c-39.1,7.6-55.2,6.2-101.4,6c-71.7-0.2-111.5,24-154.4,47.9c41.7-32.2,77.9-49.4,116.1-56
	c72-12.3,102.1-6.5,98.9-25.5c5.2,4.5,12.4,6.8,19.7,5.5c13.1-2.2,22-14.6,19.8-27.7c-2.2-13.1-14.7-22-27.8-19.8
	c-11.4,1.9-19.6,11.5-20.1,22.6c-0.2-0.5-0.5-0.9-0.8-1.4c-8.6-15-0.5-23.6-3.9-40.2C397.2,103.5,431.5,194.3,397.8,200.9z"/>
<path fill="#141313" d="M375.6,171.5c-9,1.5-17.5-4.6-19-13.6c-1.5-9,4.6-17.5,13.6-19c9-1.5,17.5,4.6,19,13.6
	C390.6,161.4,384.6,170,375.6,171.5z"/>
<ellipse transform="matrix(0.4191 -0.9079 0.9079 0.4191 78.1562 416.7725)" fill="#EFEAEA" cx="364.8" cy="147.3" rx="5.8" ry="5.1"/>
<g>
	<path fill="#FF4E00" d="M396.6,151.2c-2.2-13.1-14.7-22-27.8-19.8c-11.4,1.9-19.6,11.5-20.1,22.6v0c0,0,0,0,0,0
		c-0.1,1.7,0,3.4,0.3,5.1c1,5.8,3.9,10.7,8,14.2l0,0c5.2,4.5,12.4,6.8,19.7,5.5C389.9,176.7,398.8,164.3,396.6,151.2z M375.6,171.5
		c-9,1.5-17.5-4.6-19-13.6c-1.5-9,4.6-17.5,13.6-19c9-1.5,17.5,4.6,19,13.6C390.6,161.4,384.6,170,375.6,171.5z"/>
	<path fill="#FFFFFF" d="M503.2,177.6L503.2,177.6L503.2,177.6L503.2,177.6c-0.3-0.3-0.6-0.6-0.9-1c-0.2-0.2-0.4-0.4-0.5-0.6
		c-12.1-13.6-16.1-27.8-24.5-45.5c-58.8-70.4-178.6-70.7-266.1-34.5C94.3,144.5,35.2,286.7,48.7,322.8c5.3-4.3,32.2-23.9,82.5-23.9
		c3.5,0,7.2,0.1,10.9,0.3c88,4.8,115.2,53.6,184.8,53.6c9,0,18.8-0.8,29.4-2.7c59.7-10.3,113.1-56.1,134.4-76.6
		c4.6-4.4,7.8-7.7,9.1-9.1c0.3-0.3,0.5-0.6,0.6-0.7l0,0c0.1-0.4,0.3-0.9,0.4-1.3c0.7-2.3,1.4-4.7,1.9-7.1c0.1-0.4,0.2-0.8,0.3-1.3
		C507.6,233,505.8,211.3,503.2,177.6z M397.8,200.9c-39.1,7.6-55.2,6.2-101.4,6c-71.7-0.2-111.5,24-154.4,47.9
		c41.7-32.2,77.9-49.4,116.1-56c72-12.3,102.1-6.5,98.9-25.5l0,0c-4.1-3.5-7-8.5-8-14.2c-0.3-1.7-0.4-3.4-0.3-5.1c0,0,0,0,0,0v0
		c-0.2-0.5-0.5-0.9-0.8-1.4c-8.6-15-0.5-23.6-3.9-40.2C397.2,103.5,431.5,194.3,397.8,200.9z"/>
</g>
</svg>
