<?xml version="1.0" encoding="utf-8"?>
<!-- Generator: Adobe Illustrator 21.0.1, SVG Export Plug-In . SVG Version: 6.00 Build 0)  -->
<!DOCTYPE svg PUBLIC "-//W3C//DTD SVG 1.1//EN" "http://www.w3.org/Graphics/SVG/1.1/DTD/svg11.dtd">
<svg version="1.1" id="Calque_1" xmlns="http://www.w3.org/2000/svg" xmlns:xlink="http://www.w3.org/1999/xlink" x="0px" y="0px"
	 viewBox="0 0 746 519" enable-background="new 0 0 746 519" xml:space="preserve">
<rect x="-0.1" fill="#072249" width="746.2" height="519.5"/>
<path fill="#FFFFFF" d="M124.3,360.4c0,4.3-0.6,8.2-1.9,11.7c-1.3,3.5-3.1,6.4-5.4,8.8c-2.3,2.4-5.1,4.3-8.4,5.6
	c-3.3,1.3-7,2-11.1,2s-7.8-0.7-11.1-2c-3.3-1.3-6.1-3.2-8.4-5.6c-2.3-2.4-4.1-5.4-5.4-8.8c-1.3-3.5-1.9-7.4-1.9-11.7
	s0.6-8.2,1.9-11.7c1.3-3.5,3.1-6.4,5.4-8.8c2.3-2.4,5.2-4.3,8.5-5.6c3.3-1.3,7-2,11-2c4,0,7.7,0.7,11,2c3.3,1.3,6.2,3.2,8.5,5.7
	c2.3,2.5,4.2,5.4,5.4,8.8C123.7,352.2,124.3,356.1,124.3,360.4z M97.5,341.8c-4.5,0-8.1,1.6-10.8,4.9c-2.6,3.2-4,7.8-4,13.7
	s1.3,10.4,3.9,13.7c2.6,3.2,6.2,4.8,10.9,4.8c4.7,0,8.3-1.6,10.9-4.8c2.6-3.2,3.9-7.8,3.9-13.7c0-5.8-1.3-10.4-3.9-13.6
	S102.1,341.8,97.5,341.8z"/>
<path fill="#FFFFFF" d="M148.8,337.1h21.4c0.3,0.5,0.6,1.1,0.8,1.9c0.3,0.8,0.4,1.7,0.4,2.8c0,3.2-1.4,4.8-4.3,4.8h-18v40.1
	c-0.5,0.2-1.3,0.4-2.2,0.6c-0.9,0.2-2,0.3-3.1,0.3c-2.2,0-3.8-0.4-4.9-1.2c-1.1-0.8-1.6-2.2-1.6-4.2v-51.7c0-3.5,0.5-6.5,1.5-8.9
	s2.5-4.5,4.4-6.1c1.9-1.6,4.2-2.8,6.9-3.5c2.7-0.8,5.6-1.1,8.9-1.1c4.7,0,8.3,0.6,10.8,1.8c2.5,1.2,3.7,2.9,3.7,5.1
	c0,1.1-0.2,2-0.6,2.8c-0.4,0.8-0.9,1.5-1.5,2.1c-1.4-0.6-3.1-1.1-5-1.6c-1.9-0.5-3.8-0.7-5.8-0.7c-4.2,0-7.2,0.8-9.1,2.5
	c-1.8,1.7-2.7,4.4-2.7,8.2V337.1z"/>
<path fill="#FFFFFF" d="M245.6,383.4V415c-1.2,0.3-2.9,0.6-5.1,0.9c-2.2,0.3-4.5,0.4-6.9,0.4c-5.1,0-8.7-0.9-10.7-2.6
	c-2-1.7-3-4.9-3-9.5v-79.6c0-2.2,0.6-3.9,1.7-5.1c1.1-1.2,2.8-2.1,5-2.8c1.7-0.7,3.7-1.2,6-1.6c2.2-0.4,4.5-0.8,6.9-1.1
	c2.4-0.3,4.7-0.5,7.1-0.7c2.4-0.1,4.6-0.2,6.6-0.2c14.9,0,26.1,3.1,33.8,9.4c7.7,6.3,11.5,14.9,11.5,25.8c0,5.3-1,10-2.9,14.4
	c-1.9,4.3-4.7,8-8.3,11.1c-3.6,3.1-8,5.4-13.2,7.1c-5.2,1.6-11.1,2.5-17.6,2.5H245.6z M254.8,363.2c5.4,0,9.6-1.2,12.8-3.7
	c3.2-2.5,4.8-6.2,4.8-11.1c0-9.7-5.8-14.6-17.4-14.6c-2,0-3.7,0.1-5.2,0.2c-1.5,0.1-2.9,0.3-4.3,0.5v28.7H254.8z"/>
<path fill="#FFFFFF" d="M334.2,415c-1.1,0.3-2.6,0.6-4.6,0.9c-2,0.3-4.2,0.4-6.6,0.4c-4.9,0-8.5-0.8-10.7-2.4
	c-2.2-1.6-3.3-4.7-3.3-9.3v-50c0-3.1,0.8-5.7,2.3-7.9c1.5-2.2,3.7-4.1,6.4-5.7c3.6-2.2,8-3.9,13-5.2c5.1-1.3,10.4-1.9,16-1.9
	c11.4,0,17.1,3.8,17.1,11.5c0,1.9-0.3,3.6-0.8,5.1c-0.5,1.5-1.1,2.8-1.8,3.9c-2.5-0.5-5.6-0.8-9.2-0.8c-3.2,0-6.3,0.4-9.5,1.1
	c-3.2,0.8-6,1.8-8.4,3.1V415z"/>
<path fill="#FFFFFF" d="M394.1,386.1c1.5,4.6,4.2,7.9,8,9.8c3.8,1.9,8.3,2.9,13.3,2.9c4.6,0,8.9-0.6,13-1.9c4-1.3,7.3-2.7,9.8-4.2
	c1.6,1.1,3,2.5,4.1,4.3c1.1,1.8,1.6,3.7,1.6,5.7c0,2.5-0.8,4.7-2.3,6.6c-1.5,1.9-3.6,3.4-6.3,4.7c-2.7,1.3-5.9,2.2-9.5,2.8
	c-3.7,0.6-7.7,0.9-12.1,0.9c-6.5,0-12.4-0.9-17.9-2.7c-5.5-1.8-10.2-4.5-14.1-8c-3.9-3.6-7-8-9.3-13.4c-2.2-5.4-3.4-11.7-3.4-18.9
	c0-7,1.1-13.1,3.4-18.2c2.2-5.1,5.3-9.4,9-12.8c3.8-3.4,8.1-5.9,13-7.5c4.9-1.6,9.9-2.4,15-2.4c5.6,0,10.7,0.8,15.3,2.5
	c4.6,1.7,8.6,4.1,12,7.1c3.3,3.1,5.9,6.7,7.8,11c1.9,4.3,2.8,8.9,2.8,13.9c0,3.5-0.9,6.1-2.8,7.9c-1.9,1.8-4.5,2.9-7.9,3.4
	L394.1,386.1z M409.7,352.3c-4.7,0-8.6,1.5-11.7,4.3c-3.1,2.9-5,7.1-5.5,12.6l31.3-5.1c-0.2-2.8-1.5-5.5-3.8-8
	C417.7,353.6,414.3,352.3,409.7,352.3z"/>
<path fill="#FFFFFF" d="M526.7,392c0,8.1-3,14.4-9,19c-6,4.5-14.9,6.8-26.6,6.8c-4.6,0-8.8-0.3-12.6-1s-7-1.6-9.8-3
	c-2.7-1.3-4.9-3-6.4-4.9c-1.5-2-2.3-4.3-2.3-6.9c0-2.4,0.5-4.5,1.5-6.2c1-1.7,2.2-3.1,3.8-4.2c3.2,1.9,6.8,3.5,10.8,4.9
	c4,1.4,8.8,2.1,14.1,2.1c7.8,0,11.7-2.2,11.7-6.6c0-1.9-0.7-3.3-2.1-4.3c-1.4-1-3.7-1.9-7-2.6l-6.6-1.5c-9-1.9-15.6-4.7-20-8.6
	c-4.4-3.9-6.6-9.3-6.6-16.3c0-7.8,3.1-13.9,9.4-18.5c6.3-4.5,14.7-6.8,25.4-6.8c3.9,0,7.7,0.3,11.2,0.9c3.5,0.6,6.5,1.5,9,2.7
	c2.5,1.2,4.5,2.7,6,4.5c1.5,1.8,2.2,3.9,2.2,6.3c0,2.2-0.4,4.1-1.3,5.8c-0.9,1.7-2,3.1-3.4,4.2c-0.9-0.5-2.2-1.1-3.9-1.8
	c-1.7-0.7-3.5-1.3-5.5-1.8c-2-0.5-4-1-6.2-1.3c-2.2-0.3-4.2-0.5-6.1-0.5c-3.8,0-6.8,0.5-8.9,1.6c-2.1,1-3.2,2.6-3.2,4.7
	c0,1.5,0.6,2.7,1.8,3.6c1.2,0.9,3.4,1.7,6.6,2.5l6.2,1.5c10,2.2,17.1,5.4,21.3,9.5C524.5,380.1,526.7,385.5,526.7,392z"/>
<path fill="#FFFFFF" d="M569.3,395.7c2,1.4,4.7,2.1,8.2,2.1c1.6,0,3.4-0.2,5.3-0.6c1.9-0.4,3.4-0.8,4.8-1.4c1,1.1,1.8,2.4,2.5,3.8
	c0.7,1.4,1,3.1,1,4.9c0,3.8-1.5,7-4.5,9.4c-3,2.5-8.2,3.7-15.7,3.7c-9.2,0-16.4-2.1-21.5-6.3c-5.1-4.2-7.7-11.1-7.7-20.6v-73.7
	c1.2-0.3,2.8-0.7,4.8-1.1c2-0.4,4.1-0.6,6.4-0.6c4.8,0,8.3,0.8,10.4,2.5c2.1,1.7,3.2,4.8,3.2,9.3v10.7H589c0.5,1.1,1.1,2.5,1.6,4.2
	c0.5,1.7,0.8,3.5,0.8,5.3c0,3.5-0.8,6-2.4,7.5c-1.6,1.5-3.6,2.3-6.2,2.3h-16.6v31.8C566.4,392.2,567.4,394.4,569.3,395.7z"/>
<path fill="#FFFFFF" d="M637.6,333.8c5.7,0,10.9,0.6,15.5,1.7c4.6,1.1,8.6,2.9,11.9,5.3c3.3,2.4,5.8,5.5,7.6,9.2
	c1.8,3.7,2.7,8.1,2.7,13.1v37.1c0,2.8-0.7,5.1-2.2,6.8c-1.5,1.7-3.3,3.1-5.3,4.3c-3.4,2.1-7.5,3.7-12.5,4.8
	c-4.9,1.1-10.5,1.6-16.7,1.6c-11.3,0-20.2-2.2-26.9-6.5c-6.7-4.3-10-10.9-10-19.8c0-7.5,2.2-13.3,6.7-17.2
	c4.5-3.9,11.4-6.4,20.7-7.4l21.8-2.3v-1.8c0-3.5-1.4-6.1-4.3-7.7c-2.8-1.6-6.9-2.5-12.3-2.5c-4.2,0-8.2,0.5-12.2,1.5
	c-4,1-7.6,2.1-10.7,3.4c-1.3-0.9-2.4-2.2-3.4-4c-0.9-1.8-1.4-3.7-1.4-5.8c0-4.8,2.5-8.3,7.5-10.3c3.2-1.2,6.9-2.1,11.1-2.7
	C629.4,334.1,633.5,333.8,637.6,333.8z M638.6,399.3c2.4,0,4.8-0.2,7.1-0.7c2.4-0.5,4.1-1.1,5.3-1.9v-15.1l-13.5,1.1
	c-3.5,0.3-6.3,1.1-8.5,2.4c-2.1,1.3-3.2,3.1-3.2,5.7c0,2.6,1,4.7,3,6.2C630.9,398.5,634.1,399.3,638.6,399.3z"/>
<path fill="#FFFFFF" d="M148,100.1c0.7,1.2,1.4,2.8,2,4.8c0.6,2,0.9,4.1,0.9,6.5c0,4.1-0.9,7.1-2.7,9.1c-1.8,2-4.3,3-7.5,3H99.7
	v24.3h42.1c0.7,1.4,1.5,3,2.1,4.8c0.7,1.9,1,4,1,6.5c0,4.1-0.9,7.1-2.8,9c-1.9,1.9-4.3,2.9-7.4,2.9H100v41.3c-1.4,0.4-3.3,0.7-5.7,1
	c-2.5,0.3-5.1,0.5-7.8,0.5c-5.8,0-9.9-1-12.1-3c-2.3-2-3.4-5.6-3.4-10.7v-84.5c0-4.7,1.4-8.4,4.2-11.2c2.8-2.8,6.5-4.2,11.2-4.2H148
	z"/>
<path fill="#FFFFFF" d="M191,212.3c-1.2,0.4-3,0.7-5.2,1c-2.2,0.3-4.7,0.5-7.4,0.5c-5.6,0-9.6-0.9-12-2.7c-2.5-1.8-3.7-5.3-3.7-10.5
	v-56.5c0-3.5,0.9-6.4,2.6-8.9c1.7-2.5,4.1-4.6,7.2-6.5c4.1-2.5,9-4.4,14.7-5.8c5.7-1.4,11.8-2.1,18.1-2.1c12.8,0,19.3,4.3,19.3,13
	c0,2.1-0.3,4-0.9,5.7c-0.6,1.7-1.3,3.2-2,4.4c-2.8-0.6-6.3-0.9-10.4-0.9c-3.6,0-7.2,0.4-10.7,1.3c-3.6,0.9-6.7,2-9.5,3.5V212.3z"/>
<path fill="#FFFFFF" d="M237,97.7c0-4.2,1.5-7.8,4.4-10.7c2.9-3,6.7-4.4,11.4-4.4c4.7,0,8.5,1.5,11.4,4.4c2.9,3,4.4,6.6,4.4,10.7
	c0,4.3-1.5,8-4.4,10.9c-2.9,3-6.7,4.4-11.4,4.4c-4.7,0-8.5-1.5-11.4-4.4C238.4,105.7,237,102.1,237,97.7z M266.8,212.3
	c-1.2,0.4-3,0.7-5.2,1c-2.2,0.3-4.7,0.5-7.4,0.5c-5.6,0-9.5-0.9-12-2.7c-2.4-1.8-3.6-5.3-3.6-10.5v-76.2c1.2-0.4,3-0.7,5.2-1.1
	c2.2-0.4,4.7-0.6,7.4-0.6c5.6,0,9.5,0.9,12,2.8s3.6,5.4,3.6,10.6V212.3z"/>
<path fill="#FFFFFF" d="M312.6,179.6c1.7,5.2,4.8,8.9,9.1,11c4.3,2.2,9.3,3.2,15,3.2c5.2,0,10.1-0.7,14.6-2.1
	c4.6-1.4,8.3-3,11.1-4.7c1.9,1.2,3.4,2.8,4.6,4.8c1.2,2,1.9,4.1,1.9,6.5c0,2.8-0.9,5.3-2.6,7.4c-1.7,2.1-4.1,3.9-7.1,5.3
	c-3,1.4-6.6,2.5-10.7,3.2c-4.1,0.7-8.7,1-13.6,1c-7.3,0-14-1-20.2-3.1c-6.2-2-11.5-5.1-15.9-9.1c-4.4-4-7.9-9-10.5-15.1
	c-2.5-6.1-3.8-13.2-3.8-21.3c0-7.9,1.3-14.8,3.8-20.6c2.5-5.8,5.9-10.6,10.2-14.5c4.3-3.8,9.1-6.6,14.6-8.4c5.5-1.8,11.1-2.7,17-2.7
	c6.3,0,12.1,1,17.3,2.9c5.2,1.9,9.8,4.6,13.5,8.1c3.8,3.5,6.7,7.6,8.8,12.4c2.1,4.8,3.2,10.1,3.2,15.8c0,4-1.1,6.9-3.2,8.9
	c-2.1,2-5.1,3.3-8.9,3.9L312.6,179.6z M330.2,141.5c-5.3,0-9.7,1.6-13.3,4.9c-3.5,3.3-5.6,8-6.2,14.2l35.4-5.7
	c-0.2-3.2-1.7-6.2-4.3-9.1C339.3,142.9,335.4,141.5,330.2,141.5z"/>
<path fill="#FFFFFF" d="M442.9,145.9c-2.6-2.1-6.1-3.2-10.4-3.2c-3,0-5.7,0.4-8.2,1.1c-2.5,0.7-4.8,1.7-6.9,2.8v65.6
	c-1.2,0.4-3,0.7-5.2,1c-2.2,0.3-4.7,0.5-7.4,0.5c-5.6,0-9.6-0.9-12-2.7c-2.5-1.8-3.7-5.3-3.7-10.5v-57.3c0-3.2,0.7-5.8,2-7.8
	c1.4-2,3.3-3.8,5.7-5.6c4-2.8,9-5.1,15.3-6.9c6.2-1.7,13.1-2.6,20.7-2.6c13.5,0,23.9,3,31.2,8.9c7.3,5.9,11,14.4,11,25.4v57.5
	c-1.4,0.4-3.2,0.7-5.4,1c-2.2,0.3-4.7,0.5-7.4,0.5c-5.6,0-9.5-0.9-12-2.7c-2.4-1.8-3.6-5.3-3.6-10.5v-45
	C446.8,151.2,445.5,148,442.9,145.9z"/>
<path fill="#FFFFFF" d="M538.7,120.5c2.8,0,5.5,0.2,8.1,0.6c2.5,0.4,4.8,1,7,1.8V91.8c1.4-0.4,3.2-0.7,5.4-1.1
	c2.2-0.4,4.7-0.6,7.4-0.6c5.6,0,9.5,0.9,12,2.8s3.6,5.4,3.6,10.6v90.3c0,3-0.6,5.5-1.9,7.5c-1.2,2-3.2,3.9-5.9,5.7
	c-3.5,2.1-7.9,4-13.3,5.7c-5.4,1.7-11.7,2.6-18.7,2.6c-15.6,0-27.8-3.9-36.8-11.8c-9-7.8-13.4-19.6-13.4-35.3
	c0-8.2,1.2-15.2,3.6-21.1s5.7-10.9,9.9-14.8c4.2-4,9.1-6.9,14.8-8.8C526,121.5,532.2,120.5,538.7,120.5z M553.9,145.5
	c-1.6-0.7-3.4-1.4-5.3-1.9c-1.9-0.6-3.9-0.8-6-0.8c-6.7,0-12,2-15.9,6.1c-4,4.1-5.9,10.6-5.9,19.5c0,8.5,1.9,14.7,5.7,18.6
	c3.8,3.9,9,5.8,15.7,5.8c2.6,0,4.9-0.3,6.9-0.8c2-0.6,3.7-1.2,4.9-1.9V145.5z"/>
<path fill="#FFFFFF" d="M676.4,186.3c0,9.1-3.4,16.3-10.2,21.4c-6.8,5.1-16.8,7.7-30,7.7c-5.2,0-9.9-0.4-14.2-1.1
	c-4.3-0.7-7.9-1.9-11-3.3c-3.1-1.5-5.5-3.3-7.2-5.6c-1.7-2.2-2.6-4.8-2.6-7.8c0-2.7,0.6-5,1.7-6.9c1.1-1.9,2.5-3.5,4.3-4.7
	c3.6,2.1,7.7,4,12.2,5.6c4.6,1.6,9.9,2.4,15.9,2.4c8.8,0,13.2-2.5,13.2-7.4c0-2.1-0.8-3.7-2.3-4.8c-1.5-1.1-4.2-2.1-7.9-3l-7.4-1.7
	c-10.1-2.1-17.7-5.3-22.6-9.7c-4.9-4.4-7.4-10.5-7.4-18.4c0-8.8,3.6-15.7,10.7-20.8c7.1-5.1,16.6-7.7,28.6-7.7c4.4,0,8.6,0.3,12.6,1
	c4,0.7,7.3,1.7,10.2,3.1c2.8,1.4,5.1,3.1,6.8,5.1c1.7,2,2.5,4.4,2.5,7.1c0,2.5-0.5,4.7-1.5,6.6c-1,1.9-2.3,3.5-3.9,4.7
	c-1-0.6-2.4-1.3-4.4-2c-1.9-0.7-4-1.4-6.2-2c-2.2-0.6-4.6-1.1-7-1.5c-2.5-0.4-4.8-0.6-6.9-0.6c-4.3,0-7.7,0.6-10.1,1.8
	c-2.4,1.2-3.6,2.9-3.6,5.3c0,1.7,0.7,3.1,2,4.1c1.4,1,3.8,1.9,7.4,2.8l7,1.7c11.2,2.5,19.3,6.1,24.1,10.7
	C674,172.8,676.4,178.9,676.4,186.3z"/>
<path fill="#FF5E17" d="M121.5,437.5c-19,0-37.9-6.2-50.4-18.5c-1.1-1.1-1.1-2.8,0-3.9c1.1-1.1,2.8-1.1,3.9,0
	c22.6,22.3,70.5,22.3,93.1,0c1.1-1.1,2.8-1,3.9,0c1.1,1.1,1,2.8,0,3.9C159.4,431.3,140.5,437.5,121.5,437.5z"/>
</svg>
